G04 MADE WITH FRITZING*
G04 WWW.FRITZING.ORG*
G04 DOUBLE SIDED*
G04 HOLES PLATED*
G04 CONTOUR ON CENTER OF CONTOUR VECTOR*
%ASAXBY*%
%FSLAX23Y23*%
%MOIN*%
%OFA0B0*%
%SFA1.0B1.0*%
%ADD10C,0.086000*%
%ADD11C,0.070000*%
%ADD12C,0.075000*%
%ADD13C,0.124033*%
%ADD14C,0.074667*%
%ADD15C,0.074695*%
%ADD16C,0.078000*%
%ADD17C,0.024000*%
%ADD18C,0.016000*%
%LNCOPPER0*%
G90*
G70*
G54D10*
X415Y1214D03*
X514Y1017D03*
X612Y1017D03*
X317Y1017D03*
X218Y1017D03*
G54D11*
X1910Y936D03*
X1910Y736D03*
G54D12*
X1802Y1033D03*
X1802Y633D03*
G54D13*
X586Y502D03*
X198Y502D03*
G54D14*
X292Y206D03*
X392Y206D03*
G54D15*
X492Y206D03*
G54D16*
X2029Y818D03*
X2029Y718D03*
X2029Y618D03*
X1655Y111D03*
X1655Y211D03*
X1655Y311D03*
X1655Y411D03*
X1655Y511D03*
X1655Y611D03*
X1655Y711D03*
X1655Y811D03*
X1655Y911D03*
X1655Y1011D03*
X1655Y1111D03*
X1655Y1211D03*
X1655Y111D03*
X1655Y211D03*
X1655Y311D03*
X1655Y411D03*
X1655Y511D03*
X1655Y611D03*
X1655Y711D03*
X1655Y811D03*
X1655Y911D03*
X1655Y1011D03*
X1655Y1111D03*
X1655Y1211D03*
X1555Y1211D03*
X1555Y1111D03*
X1555Y1011D03*
X1555Y911D03*
X1555Y811D03*
X1555Y711D03*
X1555Y611D03*
X1555Y511D03*
X1555Y411D03*
X1555Y311D03*
X1555Y211D03*
X1555Y111D03*
X956Y109D03*
X956Y209D03*
X956Y309D03*
X956Y409D03*
X956Y509D03*
X956Y609D03*
X956Y709D03*
X956Y809D03*
X956Y909D03*
X956Y1009D03*
X956Y1109D03*
X956Y1209D03*
X956Y109D03*
X956Y209D03*
X956Y309D03*
X956Y409D03*
X956Y509D03*
X956Y609D03*
X956Y709D03*
X956Y809D03*
X956Y909D03*
X956Y1009D03*
X956Y1109D03*
X956Y1209D03*
X856Y1209D03*
X856Y1109D03*
X856Y1009D03*
X856Y909D03*
X856Y809D03*
X856Y709D03*
X856Y609D03*
X856Y509D03*
X856Y409D03*
X856Y309D03*
X856Y209D03*
X856Y109D03*
G54D17*
X1574Y511D02*
X1636Y511D01*
D02*
X1574Y611D02*
X1636Y611D01*
D02*
X875Y1209D02*
X937Y1209D01*
D02*
X693Y868D02*
X624Y995D01*
D02*
X838Y816D02*
X693Y868D01*
G54D18*
D02*
X403Y189D02*
X491Y53D01*
D02*
X491Y53D02*
X675Y20D01*
D02*
X675Y20D02*
X1303Y20D01*
D02*
X1303Y20D02*
X1479Y584D01*
D02*
X1479Y584D02*
X1537Y605D01*
D02*
X500Y187D02*
X536Y101D01*
D02*
X536Y101D02*
X673Y53D01*
D02*
X673Y53D02*
X1275Y52D01*
D02*
X1275Y52D02*
X1482Y890D01*
D02*
X1482Y890D02*
X1537Y906D01*
G54D17*
D02*
X875Y1009D02*
X937Y1009D01*
D02*
X875Y609D02*
X937Y609D01*
D02*
X1574Y411D02*
X1636Y411D01*
D02*
X1574Y711D02*
X1636Y711D01*
D02*
X1574Y311D02*
X1636Y311D01*
D02*
X875Y1109D02*
X937Y1109D01*
D02*
X1574Y911D02*
X1636Y911D01*
D02*
X1786Y1041D02*
X1672Y1102D01*
D02*
X1899Y726D02*
X1815Y645D01*
D02*
X875Y909D02*
X937Y909D01*
D02*
X1574Y1011D02*
X1636Y1011D01*
D02*
X875Y109D02*
X937Y109D01*
D02*
X875Y209D02*
X937Y209D01*
D02*
X285Y880D02*
X230Y994D01*
D02*
X838Y715D02*
X285Y880D01*
D02*
X1574Y211D02*
X1636Y211D01*
D02*
X1574Y811D02*
X1636Y811D01*
D02*
X1574Y1211D02*
X1636Y1211D01*
D02*
X875Y509D02*
X937Y509D01*
D02*
X1574Y111D02*
X1636Y111D01*
D02*
X1574Y1111D02*
X1636Y1111D01*
D02*
X875Y809D02*
X937Y809D01*
D02*
X1788Y621D02*
X1670Y523D01*
D02*
X1899Y946D02*
X1815Y1021D01*
D02*
X875Y409D02*
X937Y409D01*
D02*
X839Y1017D02*
X438Y1204D01*
D02*
X875Y709D02*
X937Y709D01*
D02*
X875Y309D02*
X937Y309D01*
D02*
X391Y1207D02*
X96Y1118D01*
D02*
X96Y1118D02*
X96Y320D01*
D02*
X96Y320D02*
X274Y217D01*
D02*
X2011Y822D02*
X1674Y907D01*
D02*
X2010Y721D02*
X1925Y734D01*
D02*
X2115Y615D02*
X2115Y884D01*
D02*
X2115Y884D02*
X1925Y933D01*
D02*
X2048Y617D02*
X2115Y615D01*
G04 End of Copper0*
M02*