; NON-PLATED HOLES START AT T1
; THROUGH (PLATED) HOLES START AT T100
M48
INCH
T1C0.047244
T2C0.125984
T100C0.030000
T101C0.041361
T102C0.035000
T103C0.041333
T104C0.051181
T105C0.038000
T106C0.088356
%
T1
X006121Y012142
X002184Y013127
X004152Y010174
X006121Y013127
X002184Y012142
T2
X021052Y000923
X021041Y012787
X000917Y000870
X000910Y012771
T100
X019100Y009364
X019100Y007364
T101
X004921Y002064
T102
X018018Y010325
X018018Y006325
T103
X003921Y002064
X002921Y002064
T104
X005136Y010174
X002184Y010174
X006121Y010174
X004152Y012142
X003168Y010174
T105
X008563Y007093
X009563Y007093
X009563Y004093
X008563Y001093
X008563Y004093
X009563Y001093
X015552Y002113
X015552Y011113
X016552Y002113
X009563Y010093
X009563Y002093
X008563Y010093
X008563Y002093
X016552Y011113
X008563Y009093
X015552Y007113
X016552Y004113
X009563Y005093
X015552Y005113
X008563Y005093
X009563Y009093
X016552Y003113
X016552Y012113
X016552Y001113
X015552Y008113
X008563Y008093
X009563Y006093
X009563Y008093
X015552Y009113
X008563Y006093
X008563Y011093
X016552Y005113
X015552Y004113
X016552Y007113
X009563Y011093
X020291Y006176
X015552Y003113
X015552Y012113
X016552Y008113
X015552Y001113
X016552Y009113
X015552Y010113
X008563Y003093
X015552Y006113
X009563Y003093
X016552Y010113
X020291Y008176
X009563Y012093
X016552Y006113
X020291Y007176
X008563Y012093
T106
X005862Y005017
X001979Y005017
T00
M30
