G04 MADE WITH FRITZING*
G04 WWW.FRITZING.ORG*
G04 DOUBLE SIDED*
G04 HOLES PLATED*
G04 CONTOUR ON CENTER OF CONTOUR VECTOR*
%ASAXBY*%
%FSLAX23Y23*%
%MOIN*%
%OFA0B0*%
%SFA1.0B1.0*%
%ADD10C,0.236220*%
%ADD11C,0.008000*%
%ADD12C,0.010000*%
%ADD13C,0.009999*%
%ADD14C,0.005000*%
%ADD15R,0.001000X0.001000*%
%LNSILK1*%
G90*
G70*
G54D10*
X392Y502D03*
G54D11*
X651Y919D02*
X179Y919D01*
D02*
X651Y1352D02*
X651Y1076D01*
D02*
X651Y919D02*
X651Y958D01*
D02*
X651Y1352D02*
X179Y1352D01*
D02*
X179Y1352D02*
X179Y1076D01*
D02*
X179Y919D02*
X179Y958D01*
G54D12*
D02*
X1835Y923D02*
X1835Y723D01*
D02*
X1835Y723D02*
X1769Y723D01*
D02*
X1769Y723D02*
X1769Y923D01*
D02*
X1769Y923D02*
X1835Y923D01*
G54D13*
D02*
X603Y658D02*
X603Y572D01*
G54D12*
D02*
X182Y422D02*
X182Y242D01*
D02*
X603Y402D02*
X603Y242D01*
G54D13*
D02*
X182Y658D02*
X182Y572D01*
G54D12*
D02*
X182Y658D02*
X603Y658D01*
D02*
X1979Y868D02*
X1979Y568D01*
D02*
X1979Y568D02*
X2079Y568D01*
D02*
X2079Y568D02*
X2079Y868D01*
D02*
X2079Y868D02*
X1979Y868D01*
G54D14*
D02*
X1979Y833D02*
X2014Y868D01*
G54D12*
D02*
X1705Y61D02*
X1705Y1261D01*
D02*
X1705Y1261D02*
X1505Y1261D01*
D02*
X1505Y1261D02*
X1505Y61D01*
D02*
X1505Y61D02*
X1705Y61D01*
G54D14*
D02*
X1705Y96D02*
X1670Y61D01*
G54D12*
D02*
X1006Y59D02*
X1006Y1259D01*
D02*
X1006Y1259D02*
X806Y1259D01*
D02*
X806Y1259D02*
X806Y59D01*
D02*
X806Y59D02*
X1006Y59D01*
G54D14*
D02*
X1006Y94D02*
X971Y59D01*
G54D15*
X1Y1372D02*
X2199Y1372D01*
X1Y1371D02*
X2199Y1371D01*
X1Y1370D02*
X2199Y1370D01*
X1Y1369D02*
X2199Y1369D01*
X1Y1368D02*
X2199Y1368D01*
X1Y1367D02*
X2199Y1367D01*
X1Y1366D02*
X2199Y1366D01*
X1Y1365D02*
X2199Y1365D01*
X1Y1364D02*
X8Y1364D01*
X2192Y1364D02*
X2199Y1364D01*
X1Y1363D02*
X8Y1363D01*
X2192Y1363D02*
X2199Y1363D01*
X1Y1362D02*
X8Y1362D01*
X2192Y1362D02*
X2199Y1362D01*
X1Y1361D02*
X8Y1361D01*
X2192Y1361D02*
X2199Y1361D01*
X1Y1360D02*
X8Y1360D01*
X2192Y1360D02*
X2199Y1360D01*
X1Y1359D02*
X8Y1359D01*
X2192Y1359D02*
X2199Y1359D01*
X1Y1358D02*
X8Y1358D01*
X2192Y1358D02*
X2199Y1358D01*
X1Y1357D02*
X8Y1357D01*
X2192Y1357D02*
X2199Y1357D01*
X1Y1356D02*
X8Y1356D01*
X2192Y1356D02*
X2199Y1356D01*
X1Y1355D02*
X8Y1355D01*
X2192Y1355D02*
X2199Y1355D01*
X1Y1354D02*
X8Y1354D01*
X2192Y1354D02*
X2199Y1354D01*
X1Y1353D02*
X8Y1353D01*
X2192Y1353D02*
X2199Y1353D01*
X1Y1352D02*
X8Y1352D01*
X2192Y1352D02*
X2199Y1352D01*
X1Y1351D02*
X8Y1351D01*
X2192Y1351D02*
X2199Y1351D01*
X1Y1350D02*
X8Y1350D01*
X2192Y1350D02*
X2199Y1350D01*
X1Y1349D02*
X8Y1349D01*
X2192Y1349D02*
X2199Y1349D01*
X1Y1348D02*
X8Y1348D01*
X2192Y1348D02*
X2199Y1348D01*
X1Y1347D02*
X8Y1347D01*
X2192Y1347D02*
X2199Y1347D01*
X1Y1346D02*
X8Y1346D01*
X2192Y1346D02*
X2199Y1346D01*
X1Y1345D02*
X8Y1345D01*
X2192Y1345D02*
X2199Y1345D01*
X1Y1344D02*
X8Y1344D01*
X2192Y1344D02*
X2199Y1344D01*
X1Y1343D02*
X8Y1343D01*
X2192Y1343D02*
X2199Y1343D01*
X1Y1342D02*
X8Y1342D01*
X2192Y1342D02*
X2199Y1342D01*
X1Y1341D02*
X8Y1341D01*
X2192Y1341D02*
X2199Y1341D01*
X1Y1340D02*
X8Y1340D01*
X2192Y1340D02*
X2199Y1340D01*
X1Y1339D02*
X8Y1339D01*
X2192Y1339D02*
X2199Y1339D01*
X1Y1338D02*
X8Y1338D01*
X2192Y1338D02*
X2199Y1338D01*
X1Y1337D02*
X8Y1337D01*
X2192Y1337D02*
X2199Y1337D01*
X1Y1336D02*
X8Y1336D01*
X2192Y1336D02*
X2199Y1336D01*
X1Y1335D02*
X8Y1335D01*
X2192Y1335D02*
X2199Y1335D01*
X1Y1334D02*
X8Y1334D01*
X2192Y1334D02*
X2199Y1334D01*
X1Y1333D02*
X8Y1333D01*
X2192Y1333D02*
X2199Y1333D01*
X1Y1332D02*
X8Y1332D01*
X2192Y1332D02*
X2199Y1332D01*
X1Y1331D02*
X8Y1331D01*
X2192Y1331D02*
X2199Y1331D01*
X1Y1330D02*
X8Y1330D01*
X2192Y1330D02*
X2199Y1330D01*
X1Y1329D02*
X8Y1329D01*
X2192Y1329D02*
X2199Y1329D01*
X1Y1328D02*
X8Y1328D01*
X2192Y1328D02*
X2199Y1328D01*
X1Y1327D02*
X8Y1327D01*
X2192Y1327D02*
X2199Y1327D01*
X1Y1326D02*
X8Y1326D01*
X2192Y1326D02*
X2199Y1326D01*
X1Y1325D02*
X8Y1325D01*
X2192Y1325D02*
X2199Y1325D01*
X1Y1324D02*
X8Y1324D01*
X2192Y1324D02*
X2199Y1324D01*
X1Y1323D02*
X8Y1323D01*
X2192Y1323D02*
X2199Y1323D01*
X1Y1322D02*
X8Y1322D01*
X2192Y1322D02*
X2199Y1322D01*
X1Y1321D02*
X8Y1321D01*
X2192Y1321D02*
X2199Y1321D01*
X1Y1320D02*
X8Y1320D01*
X2192Y1320D02*
X2199Y1320D01*
X1Y1319D02*
X8Y1319D01*
X2192Y1319D02*
X2199Y1319D01*
X1Y1318D02*
X8Y1318D01*
X2192Y1318D02*
X2199Y1318D01*
X1Y1317D02*
X8Y1317D01*
X2192Y1317D02*
X2199Y1317D01*
X1Y1316D02*
X8Y1316D01*
X2192Y1316D02*
X2199Y1316D01*
X1Y1315D02*
X8Y1315D01*
X2192Y1315D02*
X2199Y1315D01*
X1Y1314D02*
X8Y1314D01*
X2192Y1314D02*
X2199Y1314D01*
X1Y1313D02*
X8Y1313D01*
X2192Y1313D02*
X2199Y1313D01*
X1Y1312D02*
X8Y1312D01*
X2192Y1312D02*
X2199Y1312D01*
X1Y1311D02*
X8Y1311D01*
X2192Y1311D02*
X2199Y1311D01*
X1Y1310D02*
X8Y1310D01*
X2192Y1310D02*
X2199Y1310D01*
X1Y1309D02*
X8Y1309D01*
X2192Y1309D02*
X2199Y1309D01*
X1Y1308D02*
X8Y1308D01*
X2192Y1308D02*
X2199Y1308D01*
X1Y1307D02*
X8Y1307D01*
X2192Y1307D02*
X2199Y1307D01*
X1Y1306D02*
X8Y1306D01*
X2192Y1306D02*
X2199Y1306D01*
X1Y1305D02*
X8Y1305D01*
X2192Y1305D02*
X2199Y1305D01*
X1Y1304D02*
X8Y1304D01*
X2192Y1304D02*
X2199Y1304D01*
X1Y1303D02*
X8Y1303D01*
X2192Y1303D02*
X2199Y1303D01*
X1Y1302D02*
X8Y1302D01*
X2192Y1302D02*
X2199Y1302D01*
X1Y1301D02*
X8Y1301D01*
X2192Y1301D02*
X2199Y1301D01*
X1Y1300D02*
X8Y1300D01*
X2192Y1300D02*
X2199Y1300D01*
X1Y1299D02*
X8Y1299D01*
X2192Y1299D02*
X2199Y1299D01*
X1Y1298D02*
X8Y1298D01*
X2192Y1298D02*
X2199Y1298D01*
X1Y1297D02*
X8Y1297D01*
X2192Y1297D02*
X2199Y1297D01*
X1Y1296D02*
X8Y1296D01*
X2192Y1296D02*
X2199Y1296D01*
X1Y1295D02*
X8Y1295D01*
X2192Y1295D02*
X2199Y1295D01*
X1Y1294D02*
X8Y1294D01*
X2192Y1294D02*
X2199Y1294D01*
X1Y1293D02*
X8Y1293D01*
X2192Y1293D02*
X2199Y1293D01*
X1Y1292D02*
X8Y1292D01*
X2192Y1292D02*
X2199Y1292D01*
X1Y1291D02*
X8Y1291D01*
X2192Y1291D02*
X2199Y1291D01*
X1Y1290D02*
X8Y1290D01*
X2192Y1290D02*
X2199Y1290D01*
X1Y1289D02*
X8Y1289D01*
X2192Y1289D02*
X2199Y1289D01*
X1Y1288D02*
X8Y1288D01*
X2192Y1288D02*
X2199Y1288D01*
X1Y1287D02*
X8Y1287D01*
X2192Y1287D02*
X2199Y1287D01*
X1Y1286D02*
X8Y1286D01*
X2192Y1286D02*
X2199Y1286D01*
X1Y1285D02*
X8Y1285D01*
X2192Y1285D02*
X2199Y1285D01*
X1Y1284D02*
X8Y1284D01*
X2192Y1284D02*
X2199Y1284D01*
X1Y1283D02*
X8Y1283D01*
X2192Y1283D02*
X2199Y1283D01*
X1Y1282D02*
X8Y1282D01*
X2192Y1282D02*
X2199Y1282D01*
X1Y1281D02*
X8Y1281D01*
X2192Y1281D02*
X2199Y1281D01*
X1Y1280D02*
X8Y1280D01*
X2192Y1280D02*
X2199Y1280D01*
X1Y1279D02*
X8Y1279D01*
X2192Y1279D02*
X2199Y1279D01*
X1Y1278D02*
X8Y1278D01*
X2192Y1278D02*
X2199Y1278D01*
X1Y1277D02*
X8Y1277D01*
X2192Y1277D02*
X2199Y1277D01*
X1Y1276D02*
X8Y1276D01*
X2192Y1276D02*
X2199Y1276D01*
X1Y1275D02*
X8Y1275D01*
X2192Y1275D02*
X2199Y1275D01*
X1Y1274D02*
X8Y1274D01*
X2192Y1274D02*
X2199Y1274D01*
X1Y1273D02*
X8Y1273D01*
X2192Y1273D02*
X2199Y1273D01*
X1Y1272D02*
X8Y1272D01*
X2192Y1272D02*
X2199Y1272D01*
X1Y1271D02*
X8Y1271D01*
X2192Y1271D02*
X2199Y1271D01*
X1Y1270D02*
X8Y1270D01*
X2192Y1270D02*
X2199Y1270D01*
X1Y1269D02*
X8Y1269D01*
X2192Y1269D02*
X2199Y1269D01*
X1Y1268D02*
X8Y1268D01*
X2192Y1268D02*
X2199Y1268D01*
X1Y1267D02*
X8Y1267D01*
X2192Y1267D02*
X2199Y1267D01*
X1Y1266D02*
X8Y1266D01*
X2192Y1266D02*
X2199Y1266D01*
X1Y1265D02*
X8Y1265D01*
X2192Y1265D02*
X2199Y1265D01*
X1Y1264D02*
X8Y1264D01*
X2192Y1264D02*
X2199Y1264D01*
X1Y1263D02*
X8Y1263D01*
X2192Y1263D02*
X2199Y1263D01*
X1Y1262D02*
X8Y1262D01*
X1722Y1262D02*
X1745Y1262D01*
X1777Y1262D02*
X1780Y1262D01*
X1806Y1262D02*
X1809Y1262D01*
X1832Y1262D02*
X1835Y1262D01*
X2192Y1262D02*
X2199Y1262D01*
X1Y1261D02*
X8Y1261D01*
X1722Y1261D02*
X1746Y1261D01*
X1776Y1261D02*
X1780Y1261D01*
X1805Y1261D02*
X1809Y1261D01*
X1831Y1261D02*
X1836Y1261D01*
X2192Y1261D02*
X2199Y1261D01*
X1Y1260D02*
X8Y1260D01*
X1722Y1260D02*
X1747Y1260D01*
X1776Y1260D02*
X1781Y1260D01*
X1805Y1260D02*
X1810Y1260D01*
X1831Y1260D02*
X1836Y1260D01*
X2192Y1260D02*
X2199Y1260D01*
X1Y1259D02*
X8Y1259D01*
X1722Y1259D02*
X1748Y1259D01*
X1775Y1259D02*
X1781Y1259D01*
X1805Y1259D02*
X1810Y1259D01*
X1831Y1259D02*
X1836Y1259D01*
X2192Y1259D02*
X2199Y1259D01*
X1Y1258D02*
X8Y1258D01*
X1722Y1258D02*
X1749Y1258D01*
X1775Y1258D02*
X1781Y1258D01*
X1805Y1258D02*
X1810Y1258D01*
X1831Y1258D02*
X1836Y1258D01*
X2192Y1258D02*
X2199Y1258D01*
X1Y1257D02*
X8Y1257D01*
X1722Y1257D02*
X1749Y1257D01*
X1775Y1257D02*
X1781Y1257D01*
X1805Y1257D02*
X1810Y1257D01*
X1831Y1257D02*
X1836Y1257D01*
X2192Y1257D02*
X2199Y1257D01*
X1Y1256D02*
X8Y1256D01*
X1722Y1256D02*
X1727Y1256D01*
X1744Y1256D02*
X1750Y1256D01*
X1774Y1256D02*
X1782Y1256D01*
X1805Y1256D02*
X1810Y1256D01*
X1831Y1256D02*
X1836Y1256D01*
X2192Y1256D02*
X2199Y1256D01*
X1Y1255D02*
X8Y1255D01*
X1722Y1255D02*
X1727Y1255D01*
X1745Y1255D02*
X1750Y1255D01*
X1774Y1255D02*
X1782Y1255D01*
X1805Y1255D02*
X1810Y1255D01*
X1831Y1255D02*
X1836Y1255D01*
X2192Y1255D02*
X2199Y1255D01*
X1Y1254D02*
X8Y1254D01*
X1722Y1254D02*
X1727Y1254D01*
X1745Y1254D02*
X1750Y1254D01*
X1774Y1254D02*
X1782Y1254D01*
X1805Y1254D02*
X1810Y1254D01*
X1831Y1254D02*
X1836Y1254D01*
X2192Y1254D02*
X2199Y1254D01*
X1Y1253D02*
X8Y1253D01*
X1722Y1253D02*
X1727Y1253D01*
X1745Y1253D02*
X1750Y1253D01*
X1773Y1253D02*
X1783Y1253D01*
X1805Y1253D02*
X1810Y1253D01*
X1831Y1253D02*
X1836Y1253D01*
X2192Y1253D02*
X2199Y1253D01*
X1Y1252D02*
X8Y1252D01*
X1722Y1252D02*
X1727Y1252D01*
X1745Y1252D02*
X1750Y1252D01*
X1773Y1252D02*
X1783Y1252D01*
X1805Y1252D02*
X1810Y1252D01*
X1831Y1252D02*
X1836Y1252D01*
X2192Y1252D02*
X2199Y1252D01*
X1Y1251D02*
X8Y1251D01*
X1722Y1251D02*
X1727Y1251D01*
X1745Y1251D02*
X1750Y1251D01*
X1773Y1251D02*
X1783Y1251D01*
X1805Y1251D02*
X1810Y1251D01*
X1831Y1251D02*
X1836Y1251D01*
X2192Y1251D02*
X2199Y1251D01*
X1Y1250D02*
X8Y1250D01*
X1722Y1250D02*
X1727Y1250D01*
X1745Y1250D02*
X1750Y1250D01*
X1773Y1250D02*
X1784Y1250D01*
X1805Y1250D02*
X1810Y1250D01*
X1831Y1250D02*
X1836Y1250D01*
X2192Y1250D02*
X2199Y1250D01*
X1Y1249D02*
X8Y1249D01*
X1722Y1249D02*
X1727Y1249D01*
X1744Y1249D02*
X1750Y1249D01*
X1772Y1249D02*
X1784Y1249D01*
X1805Y1249D02*
X1810Y1249D01*
X1831Y1249D02*
X1836Y1249D01*
X2192Y1249D02*
X2199Y1249D01*
X1Y1248D02*
X8Y1248D01*
X1722Y1248D02*
X1727Y1248D01*
X1742Y1248D02*
X1749Y1248D01*
X1772Y1248D02*
X1777Y1248D01*
X1779Y1248D02*
X1784Y1248D01*
X1805Y1248D02*
X1810Y1248D01*
X1831Y1248D02*
X1836Y1248D01*
X2192Y1248D02*
X2199Y1248D01*
X1Y1247D02*
X8Y1247D01*
X1722Y1247D02*
X1749Y1247D01*
X1772Y1247D02*
X1777Y1247D01*
X1779Y1247D02*
X1784Y1247D01*
X1805Y1247D02*
X1810Y1247D01*
X1831Y1247D02*
X1836Y1247D01*
X2192Y1247D02*
X2199Y1247D01*
X1Y1246D02*
X8Y1246D01*
X1722Y1246D02*
X1748Y1246D01*
X1771Y1246D02*
X1777Y1246D01*
X1780Y1246D02*
X1785Y1246D01*
X1805Y1246D02*
X1810Y1246D01*
X1819Y1246D02*
X1821Y1246D01*
X1831Y1246D02*
X1836Y1246D01*
X2192Y1246D02*
X2199Y1246D01*
X1Y1245D02*
X8Y1245D01*
X1722Y1245D02*
X1748Y1245D01*
X1771Y1245D02*
X1776Y1245D01*
X1780Y1245D02*
X1785Y1245D01*
X1805Y1245D02*
X1810Y1245D01*
X1818Y1245D02*
X1822Y1245D01*
X1831Y1245D02*
X1836Y1245D01*
X2192Y1245D02*
X2199Y1245D01*
X1Y1244D02*
X8Y1244D01*
X1722Y1244D02*
X1746Y1244D01*
X1771Y1244D02*
X1776Y1244D01*
X1780Y1244D02*
X1785Y1244D01*
X1805Y1244D02*
X1810Y1244D01*
X1818Y1244D02*
X1823Y1244D01*
X1831Y1244D02*
X1836Y1244D01*
X2192Y1244D02*
X2199Y1244D01*
X1Y1243D02*
X8Y1243D01*
X1722Y1243D02*
X1745Y1243D01*
X1771Y1243D02*
X1776Y1243D01*
X1780Y1243D02*
X1786Y1243D01*
X1805Y1243D02*
X1810Y1243D01*
X1818Y1243D02*
X1823Y1243D01*
X1831Y1243D02*
X1836Y1243D01*
X2192Y1243D02*
X2199Y1243D01*
X1Y1242D02*
X8Y1242D01*
X1722Y1242D02*
X1727Y1242D01*
X1731Y1242D02*
X1738Y1242D01*
X1770Y1242D02*
X1775Y1242D01*
X1781Y1242D02*
X1786Y1242D01*
X1805Y1242D02*
X1810Y1242D01*
X1818Y1242D02*
X1823Y1242D01*
X1831Y1242D02*
X1836Y1242D01*
X2192Y1242D02*
X2199Y1242D01*
X1Y1241D02*
X8Y1241D01*
X1722Y1241D02*
X1727Y1241D01*
X1732Y1241D02*
X1738Y1241D01*
X1770Y1241D02*
X1775Y1241D01*
X1781Y1241D02*
X1786Y1241D01*
X1805Y1241D02*
X1810Y1241D01*
X1818Y1241D02*
X1823Y1241D01*
X1831Y1241D02*
X1836Y1241D01*
X2192Y1241D02*
X2199Y1241D01*
X1Y1240D02*
X8Y1240D01*
X1722Y1240D02*
X1727Y1240D01*
X1733Y1240D02*
X1739Y1240D01*
X1770Y1240D02*
X1775Y1240D01*
X1781Y1240D02*
X1786Y1240D01*
X1805Y1240D02*
X1810Y1240D01*
X1818Y1240D02*
X1823Y1240D01*
X1831Y1240D02*
X1836Y1240D01*
X2192Y1240D02*
X2199Y1240D01*
X1Y1239D02*
X8Y1239D01*
X1722Y1239D02*
X1727Y1239D01*
X1734Y1239D02*
X1739Y1239D01*
X1769Y1239D02*
X1775Y1239D01*
X1782Y1239D02*
X1787Y1239D01*
X1805Y1239D02*
X1810Y1239D01*
X1818Y1239D02*
X1823Y1239D01*
X1831Y1239D02*
X1836Y1239D01*
X2192Y1239D02*
X2199Y1239D01*
X1Y1238D02*
X8Y1238D01*
X1722Y1238D02*
X1727Y1238D01*
X1734Y1238D02*
X1740Y1238D01*
X1769Y1238D02*
X1774Y1238D01*
X1782Y1238D02*
X1787Y1238D01*
X1805Y1238D02*
X1810Y1238D01*
X1818Y1238D02*
X1823Y1238D01*
X1831Y1238D02*
X1836Y1238D01*
X2192Y1238D02*
X2199Y1238D01*
X1Y1237D02*
X8Y1237D01*
X1722Y1237D02*
X1727Y1237D01*
X1735Y1237D02*
X1741Y1237D01*
X1769Y1237D02*
X1774Y1237D01*
X1782Y1237D02*
X1787Y1237D01*
X1805Y1237D02*
X1810Y1237D01*
X1818Y1237D02*
X1823Y1237D01*
X1831Y1237D02*
X1836Y1237D01*
X2192Y1237D02*
X2199Y1237D01*
X1Y1236D02*
X8Y1236D01*
X1722Y1236D02*
X1727Y1236D01*
X1735Y1236D02*
X1741Y1236D01*
X1768Y1236D02*
X1774Y1236D01*
X1782Y1236D02*
X1788Y1236D01*
X1805Y1236D02*
X1810Y1236D01*
X1818Y1236D02*
X1823Y1236D01*
X1831Y1236D02*
X1836Y1236D01*
X2192Y1236D02*
X2199Y1236D01*
X1Y1235D02*
X8Y1235D01*
X1722Y1235D02*
X1727Y1235D01*
X1736Y1235D02*
X1742Y1235D01*
X1768Y1235D02*
X1773Y1235D01*
X1783Y1235D02*
X1788Y1235D01*
X1805Y1235D02*
X1810Y1235D01*
X1818Y1235D02*
X1823Y1235D01*
X1831Y1235D02*
X1836Y1235D01*
X2192Y1235D02*
X2199Y1235D01*
X1Y1234D02*
X8Y1234D01*
X1722Y1234D02*
X1727Y1234D01*
X1736Y1234D02*
X1742Y1234D01*
X1768Y1234D02*
X1773Y1234D01*
X1783Y1234D02*
X1788Y1234D01*
X1805Y1234D02*
X1810Y1234D01*
X1818Y1234D02*
X1823Y1234D01*
X1831Y1234D02*
X1836Y1234D01*
X2192Y1234D02*
X2199Y1234D01*
X1Y1233D02*
X8Y1233D01*
X1722Y1233D02*
X1727Y1233D01*
X1737Y1233D02*
X1743Y1233D01*
X1768Y1233D02*
X1789Y1233D01*
X1805Y1233D02*
X1810Y1233D01*
X1818Y1233D02*
X1823Y1233D01*
X1831Y1233D02*
X1836Y1233D01*
X2192Y1233D02*
X2199Y1233D01*
X1Y1232D02*
X8Y1232D01*
X1722Y1232D02*
X1727Y1232D01*
X1738Y1232D02*
X1744Y1232D01*
X1767Y1232D02*
X1789Y1232D01*
X1805Y1232D02*
X1810Y1232D01*
X1818Y1232D02*
X1823Y1232D01*
X1831Y1232D02*
X1836Y1232D01*
X2192Y1232D02*
X2199Y1232D01*
X1Y1231D02*
X8Y1231D01*
X1722Y1231D02*
X1727Y1231D01*
X1738Y1231D02*
X1744Y1231D01*
X1767Y1231D02*
X1789Y1231D01*
X1805Y1231D02*
X1810Y1231D01*
X1818Y1231D02*
X1823Y1231D01*
X1831Y1231D02*
X1836Y1231D01*
X2192Y1231D02*
X2199Y1231D01*
X1Y1230D02*
X8Y1230D01*
X1722Y1230D02*
X1727Y1230D01*
X1739Y1230D02*
X1745Y1230D01*
X1767Y1230D02*
X1789Y1230D01*
X1805Y1230D02*
X1810Y1230D01*
X1818Y1230D02*
X1823Y1230D01*
X1831Y1230D02*
X1836Y1230D01*
X2192Y1230D02*
X2199Y1230D01*
X1Y1229D02*
X8Y1229D01*
X1722Y1229D02*
X1727Y1229D01*
X1739Y1229D02*
X1745Y1229D01*
X1766Y1229D02*
X1790Y1229D01*
X1805Y1229D02*
X1810Y1229D01*
X1818Y1229D02*
X1823Y1229D01*
X1831Y1229D02*
X1836Y1229D01*
X2192Y1229D02*
X2199Y1229D01*
X1Y1228D02*
X8Y1228D01*
X1722Y1228D02*
X1727Y1228D01*
X1740Y1228D02*
X1746Y1228D01*
X1766Y1228D02*
X1790Y1228D01*
X1805Y1228D02*
X1810Y1228D01*
X1818Y1228D02*
X1823Y1228D01*
X1831Y1228D02*
X1836Y1228D01*
X2192Y1228D02*
X2199Y1228D01*
X1Y1227D02*
X8Y1227D01*
X1722Y1227D02*
X1727Y1227D01*
X1741Y1227D02*
X1746Y1227D01*
X1766Y1227D02*
X1771Y1227D01*
X1785Y1227D02*
X1790Y1227D01*
X1805Y1227D02*
X1810Y1227D01*
X1818Y1227D02*
X1823Y1227D01*
X1831Y1227D02*
X1836Y1227D01*
X2192Y1227D02*
X2199Y1227D01*
X1Y1226D02*
X8Y1226D01*
X1722Y1226D02*
X1727Y1226D01*
X1741Y1226D02*
X1747Y1226D01*
X1766Y1226D02*
X1771Y1226D01*
X1785Y1226D02*
X1791Y1226D01*
X1805Y1226D02*
X1810Y1226D01*
X1818Y1226D02*
X1823Y1226D01*
X1831Y1226D02*
X1836Y1226D01*
X2192Y1226D02*
X2199Y1226D01*
X1Y1225D02*
X8Y1225D01*
X1722Y1225D02*
X1727Y1225D01*
X1742Y1225D02*
X1748Y1225D01*
X1765Y1225D02*
X1770Y1225D01*
X1786Y1225D02*
X1791Y1225D01*
X1805Y1225D02*
X1810Y1225D01*
X1817Y1225D02*
X1823Y1225D01*
X1830Y1225D02*
X1836Y1225D01*
X2192Y1225D02*
X2199Y1225D01*
X1Y1224D02*
X8Y1224D01*
X1722Y1224D02*
X1727Y1224D01*
X1742Y1224D02*
X1748Y1224D01*
X1765Y1224D02*
X1770Y1224D01*
X1786Y1224D02*
X1791Y1224D01*
X1805Y1224D02*
X1811Y1224D01*
X1817Y1224D02*
X1824Y1224D01*
X1830Y1224D02*
X1836Y1224D01*
X2192Y1224D02*
X2199Y1224D01*
X1Y1223D02*
X8Y1223D01*
X1722Y1223D02*
X1727Y1223D01*
X1743Y1223D02*
X1749Y1223D01*
X1765Y1223D02*
X1770Y1223D01*
X1786Y1223D02*
X1791Y1223D01*
X1806Y1223D02*
X1835Y1223D01*
X2192Y1223D02*
X2199Y1223D01*
X1Y1222D02*
X8Y1222D01*
X1722Y1222D02*
X1727Y1222D01*
X1743Y1222D02*
X1749Y1222D01*
X1764Y1222D02*
X1770Y1222D01*
X1787Y1222D02*
X1792Y1222D01*
X1806Y1222D02*
X1834Y1222D01*
X2192Y1222D02*
X2199Y1222D01*
X1Y1221D02*
X8Y1221D01*
X1722Y1221D02*
X1727Y1221D01*
X1744Y1221D02*
X1750Y1221D01*
X1764Y1221D02*
X1769Y1221D01*
X1787Y1221D02*
X1792Y1221D01*
X1807Y1221D02*
X1834Y1221D01*
X2192Y1221D02*
X2199Y1221D01*
X1Y1220D02*
X8Y1220D01*
X1722Y1220D02*
X1727Y1220D01*
X1745Y1220D02*
X1750Y1220D01*
X1764Y1220D02*
X1769Y1220D01*
X1787Y1220D02*
X1792Y1220D01*
X1807Y1220D02*
X1833Y1220D01*
X2192Y1220D02*
X2199Y1220D01*
X1Y1219D02*
X8Y1219D01*
X1722Y1219D02*
X1726Y1219D01*
X1745Y1219D02*
X1750Y1219D01*
X1764Y1219D02*
X1769Y1219D01*
X1788Y1219D02*
X1792Y1219D01*
X1808Y1219D02*
X1833Y1219D01*
X2192Y1219D02*
X2199Y1219D01*
X1Y1218D02*
X8Y1218D01*
X1723Y1218D02*
X1726Y1218D01*
X1746Y1218D02*
X1749Y1218D01*
X1765Y1218D02*
X1768Y1218D01*
X1788Y1218D02*
X1791Y1218D01*
X1809Y1218D02*
X1819Y1218D01*
X1822Y1218D02*
X1832Y1218D01*
X2192Y1218D02*
X2199Y1218D01*
X1Y1217D02*
X8Y1217D01*
X2192Y1217D02*
X2199Y1217D01*
X1Y1216D02*
X8Y1216D01*
X2192Y1216D02*
X2199Y1216D01*
X1Y1215D02*
X8Y1215D01*
X2192Y1215D02*
X2199Y1215D01*
X1Y1214D02*
X8Y1214D01*
X2192Y1214D02*
X2199Y1214D01*
X1Y1213D02*
X8Y1213D01*
X2192Y1213D02*
X2199Y1213D01*
X1Y1212D02*
X8Y1212D01*
X2192Y1212D02*
X2199Y1212D01*
X1Y1211D02*
X8Y1211D01*
X2192Y1211D02*
X2199Y1211D01*
X1Y1210D02*
X8Y1210D01*
X2192Y1210D02*
X2199Y1210D01*
X1Y1209D02*
X8Y1209D01*
X2192Y1209D02*
X2199Y1209D01*
X1Y1208D02*
X8Y1208D01*
X2192Y1208D02*
X2199Y1208D01*
X1Y1207D02*
X8Y1207D01*
X1720Y1207D02*
X1733Y1207D01*
X1774Y1207D02*
X1784Y1207D01*
X1801Y1207D02*
X1814Y1207D01*
X1855Y1207D02*
X1857Y1207D01*
X1870Y1207D02*
X1872Y1207D01*
X1882Y1207D02*
X1899Y1207D01*
X1909Y1207D02*
X1913Y1207D01*
X1924Y1207D02*
X1926Y1207D01*
X2192Y1207D02*
X2199Y1207D01*
X1Y1206D02*
X8Y1206D01*
X1720Y1206D02*
X1733Y1206D01*
X1774Y1206D02*
X1784Y1206D01*
X1801Y1206D02*
X1814Y1206D01*
X1855Y1206D02*
X1857Y1206D01*
X1870Y1206D02*
X1872Y1206D01*
X1882Y1206D02*
X1899Y1206D01*
X1909Y1206D02*
X1913Y1206D01*
X1924Y1206D02*
X1926Y1206D01*
X2192Y1206D02*
X2199Y1206D01*
X1Y1205D02*
X8Y1205D01*
X1720Y1205D02*
X1733Y1205D01*
X1774Y1205D02*
X1784Y1205D01*
X1801Y1205D02*
X1814Y1205D01*
X1855Y1205D02*
X1857Y1205D01*
X1870Y1205D02*
X1872Y1205D01*
X1882Y1205D02*
X1899Y1205D01*
X1909Y1205D02*
X1914Y1205D01*
X1924Y1205D02*
X1926Y1205D01*
X2192Y1205D02*
X2199Y1205D01*
X1Y1204D02*
X8Y1204D01*
X1720Y1204D02*
X1733Y1204D01*
X1775Y1204D02*
X1784Y1204D01*
X1801Y1204D02*
X1814Y1204D01*
X1855Y1204D02*
X1857Y1204D01*
X1870Y1204D02*
X1872Y1204D01*
X1883Y1204D02*
X1898Y1204D01*
X1909Y1204D02*
X1914Y1204D01*
X1924Y1204D02*
X1926Y1204D01*
X2192Y1204D02*
X2199Y1204D01*
X1Y1203D02*
X8Y1203D01*
X1720Y1203D02*
X1722Y1203D01*
X1781Y1203D02*
X1784Y1203D01*
X1801Y1203D02*
X1803Y1203D01*
X1855Y1203D02*
X1857Y1203D01*
X1870Y1203D02*
X1872Y1203D01*
X1889Y1203D02*
X1892Y1203D01*
X1909Y1203D02*
X1915Y1203D01*
X1924Y1203D02*
X1926Y1203D01*
X2192Y1203D02*
X2199Y1203D01*
X1Y1202D02*
X8Y1202D01*
X1720Y1202D02*
X1722Y1202D01*
X1781Y1202D02*
X1784Y1202D01*
X1801Y1202D02*
X1803Y1202D01*
X1855Y1202D02*
X1857Y1202D01*
X1870Y1202D02*
X1872Y1202D01*
X1889Y1202D02*
X1892Y1202D01*
X1909Y1202D02*
X1915Y1202D01*
X1924Y1202D02*
X1926Y1202D01*
X2192Y1202D02*
X2199Y1202D01*
X1Y1201D02*
X8Y1201D01*
X1720Y1201D02*
X1722Y1201D01*
X1781Y1201D02*
X1784Y1201D01*
X1801Y1201D02*
X1803Y1201D01*
X1855Y1201D02*
X1857Y1201D01*
X1870Y1201D02*
X1872Y1201D01*
X1889Y1201D02*
X1892Y1201D01*
X1909Y1201D02*
X1916Y1201D01*
X1924Y1201D02*
X1926Y1201D01*
X2192Y1201D02*
X2199Y1201D01*
X1Y1200D02*
X8Y1200D01*
X1720Y1200D02*
X1722Y1200D01*
X1781Y1200D02*
X1784Y1200D01*
X1801Y1200D02*
X1803Y1200D01*
X1855Y1200D02*
X1857Y1200D01*
X1870Y1200D02*
X1872Y1200D01*
X1889Y1200D02*
X1892Y1200D01*
X1909Y1200D02*
X1916Y1200D01*
X1924Y1200D02*
X1926Y1200D01*
X2192Y1200D02*
X2199Y1200D01*
X1Y1199D02*
X8Y1199D01*
X1720Y1199D02*
X1722Y1199D01*
X1781Y1199D02*
X1784Y1199D01*
X1801Y1199D02*
X1803Y1199D01*
X1855Y1199D02*
X1858Y1199D01*
X1869Y1199D02*
X1872Y1199D01*
X1889Y1199D02*
X1892Y1199D01*
X1909Y1199D02*
X1911Y1199D01*
X1913Y1199D02*
X1916Y1199D01*
X1924Y1199D02*
X1926Y1199D01*
X2192Y1199D02*
X2199Y1199D01*
X1Y1198D02*
X8Y1198D01*
X1720Y1198D02*
X1722Y1198D01*
X1781Y1198D02*
X1784Y1198D01*
X1801Y1198D02*
X1803Y1198D01*
X1855Y1198D02*
X1858Y1198D01*
X1869Y1198D02*
X1872Y1198D01*
X1889Y1198D02*
X1892Y1198D01*
X1909Y1198D02*
X1911Y1198D01*
X1914Y1198D02*
X1917Y1198D01*
X1924Y1198D02*
X1926Y1198D01*
X2192Y1198D02*
X2199Y1198D01*
X1Y1197D02*
X8Y1197D01*
X1720Y1197D02*
X1722Y1197D01*
X1781Y1197D02*
X1784Y1197D01*
X1801Y1197D02*
X1803Y1197D01*
X1855Y1197D02*
X1858Y1197D01*
X1868Y1197D02*
X1872Y1197D01*
X1889Y1197D02*
X1892Y1197D01*
X1909Y1197D02*
X1911Y1197D01*
X1914Y1197D02*
X1917Y1197D01*
X1924Y1197D02*
X1926Y1197D01*
X2192Y1197D02*
X2199Y1197D01*
X1Y1196D02*
X8Y1196D01*
X1720Y1196D02*
X1722Y1196D01*
X1781Y1196D02*
X1784Y1196D01*
X1801Y1196D02*
X1803Y1196D01*
X1856Y1196D02*
X1859Y1196D01*
X1868Y1196D02*
X1871Y1196D01*
X1889Y1196D02*
X1892Y1196D01*
X1909Y1196D02*
X1911Y1196D01*
X1915Y1196D02*
X1918Y1196D01*
X1924Y1196D02*
X1926Y1196D01*
X2192Y1196D02*
X2199Y1196D01*
X1Y1195D02*
X8Y1195D01*
X1720Y1195D02*
X1722Y1195D01*
X1781Y1195D02*
X1784Y1195D01*
X1801Y1195D02*
X1803Y1195D01*
X1856Y1195D02*
X1859Y1195D01*
X1868Y1195D02*
X1871Y1195D01*
X1889Y1195D02*
X1892Y1195D01*
X1909Y1195D02*
X1911Y1195D01*
X1915Y1195D02*
X1918Y1195D01*
X1924Y1195D02*
X1926Y1195D01*
X2192Y1195D02*
X2199Y1195D01*
X1Y1194D02*
X8Y1194D01*
X1720Y1194D02*
X1722Y1194D01*
X1781Y1194D02*
X1784Y1194D01*
X1801Y1194D02*
X1803Y1194D01*
X1857Y1194D02*
X1860Y1194D01*
X1867Y1194D02*
X1870Y1194D01*
X1889Y1194D02*
X1892Y1194D01*
X1909Y1194D02*
X1911Y1194D01*
X1915Y1194D02*
X1919Y1194D01*
X1924Y1194D02*
X1926Y1194D01*
X2192Y1194D02*
X2199Y1194D01*
X1Y1193D02*
X8Y1193D01*
X1720Y1193D02*
X1723Y1193D01*
X1747Y1193D02*
X1764Y1193D01*
X1781Y1193D02*
X1784Y1193D01*
X1801Y1193D02*
X1804Y1193D01*
X1857Y1193D02*
X1860Y1193D01*
X1867Y1193D02*
X1870Y1193D01*
X1889Y1193D02*
X1892Y1193D01*
X1909Y1193D02*
X1911Y1193D01*
X1916Y1193D02*
X1919Y1193D01*
X1924Y1193D02*
X1926Y1193D01*
X2192Y1193D02*
X2199Y1193D01*
X1Y1192D02*
X8Y1192D01*
X1720Y1192D02*
X1737Y1192D01*
X1747Y1192D02*
X1764Y1192D01*
X1781Y1192D02*
X1784Y1192D01*
X1801Y1192D02*
X1818Y1192D01*
X1857Y1192D02*
X1860Y1192D01*
X1867Y1192D02*
X1870Y1192D01*
X1889Y1192D02*
X1892Y1192D01*
X1909Y1192D02*
X1911Y1192D01*
X1916Y1192D02*
X1919Y1192D01*
X1924Y1192D02*
X1926Y1192D01*
X2192Y1192D02*
X2199Y1192D01*
X1Y1191D02*
X8Y1191D01*
X1720Y1191D02*
X1737Y1191D01*
X1747Y1191D02*
X1764Y1191D01*
X1781Y1191D02*
X1784Y1191D01*
X1801Y1191D02*
X1818Y1191D01*
X1858Y1191D02*
X1861Y1191D01*
X1866Y1191D02*
X1869Y1191D01*
X1889Y1191D02*
X1892Y1191D01*
X1909Y1191D02*
X1911Y1191D01*
X1917Y1191D02*
X1920Y1191D01*
X1924Y1191D02*
X1926Y1191D01*
X2192Y1191D02*
X2199Y1191D01*
X1Y1190D02*
X8Y1190D01*
X1720Y1190D02*
X1737Y1190D01*
X1747Y1190D02*
X1764Y1190D01*
X1781Y1190D02*
X1784Y1190D01*
X1801Y1190D02*
X1818Y1190D01*
X1858Y1190D02*
X1861Y1190D01*
X1866Y1190D02*
X1869Y1190D01*
X1889Y1190D02*
X1892Y1190D01*
X1909Y1190D02*
X1911Y1190D01*
X1917Y1190D02*
X1920Y1190D01*
X1924Y1190D02*
X1926Y1190D01*
X2192Y1190D02*
X2199Y1190D01*
X1Y1189D02*
X8Y1189D01*
X1720Y1189D02*
X1737Y1189D01*
X1781Y1189D02*
X1784Y1189D01*
X1789Y1189D02*
X1791Y1189D01*
X1801Y1189D02*
X1818Y1189D01*
X1859Y1189D02*
X1862Y1189D01*
X1865Y1189D02*
X1868Y1189D01*
X1889Y1189D02*
X1892Y1189D01*
X1909Y1189D02*
X1911Y1189D01*
X1918Y1189D02*
X1921Y1189D01*
X1924Y1189D02*
X1926Y1189D01*
X2192Y1189D02*
X2199Y1189D01*
X1Y1188D02*
X8Y1188D01*
X1720Y1188D02*
X1722Y1188D01*
X1735Y1188D02*
X1737Y1188D01*
X1781Y1188D02*
X1784Y1188D01*
X1789Y1188D02*
X1791Y1188D01*
X1801Y1188D02*
X1803Y1188D01*
X1816Y1188D02*
X1818Y1188D01*
X1859Y1188D02*
X1862Y1188D01*
X1865Y1188D02*
X1868Y1188D01*
X1889Y1188D02*
X1892Y1188D01*
X1909Y1188D02*
X1911Y1188D01*
X1918Y1188D02*
X1921Y1188D01*
X1924Y1188D02*
X1926Y1188D01*
X2192Y1188D02*
X2199Y1188D01*
X1Y1187D02*
X8Y1187D01*
X1720Y1187D02*
X1722Y1187D01*
X1735Y1187D02*
X1737Y1187D01*
X1781Y1187D02*
X1784Y1187D01*
X1788Y1187D02*
X1791Y1187D01*
X1801Y1187D02*
X1803Y1187D01*
X1816Y1187D02*
X1818Y1187D01*
X1859Y1187D02*
X1862Y1187D01*
X1865Y1187D02*
X1868Y1187D01*
X1889Y1187D02*
X1892Y1187D01*
X1909Y1187D02*
X1911Y1187D01*
X1918Y1187D02*
X1922Y1187D01*
X1924Y1187D02*
X1926Y1187D01*
X2192Y1187D02*
X2199Y1187D01*
X1Y1186D02*
X8Y1186D01*
X1720Y1186D02*
X1722Y1186D01*
X1735Y1186D02*
X1737Y1186D01*
X1781Y1186D02*
X1784Y1186D01*
X1788Y1186D02*
X1791Y1186D01*
X1801Y1186D02*
X1803Y1186D01*
X1816Y1186D02*
X1818Y1186D01*
X1860Y1186D02*
X1867Y1186D01*
X1889Y1186D02*
X1892Y1186D01*
X1909Y1186D02*
X1911Y1186D01*
X1919Y1186D02*
X1926Y1186D01*
X2192Y1186D02*
X2199Y1186D01*
X1Y1185D02*
X8Y1185D01*
X1720Y1185D02*
X1722Y1185D01*
X1735Y1185D02*
X1737Y1185D01*
X1781Y1185D02*
X1784Y1185D01*
X1788Y1185D02*
X1791Y1185D01*
X1801Y1185D02*
X1803Y1185D01*
X1816Y1185D02*
X1818Y1185D01*
X1860Y1185D02*
X1867Y1185D01*
X1889Y1185D02*
X1892Y1185D01*
X1909Y1185D02*
X1911Y1185D01*
X1919Y1185D02*
X1926Y1185D01*
X2192Y1185D02*
X2199Y1185D01*
X1Y1184D02*
X8Y1184D01*
X1720Y1184D02*
X1722Y1184D01*
X1735Y1184D02*
X1737Y1184D01*
X1781Y1184D02*
X1784Y1184D01*
X1788Y1184D02*
X1791Y1184D01*
X1801Y1184D02*
X1803Y1184D01*
X1816Y1184D02*
X1818Y1184D01*
X1860Y1184D02*
X1866Y1184D01*
X1889Y1184D02*
X1892Y1184D01*
X1909Y1184D02*
X1911Y1184D01*
X1920Y1184D02*
X1926Y1184D01*
X2192Y1184D02*
X2199Y1184D01*
X1Y1183D02*
X8Y1183D01*
X1720Y1183D02*
X1722Y1183D01*
X1735Y1183D02*
X1737Y1183D01*
X1781Y1183D02*
X1784Y1183D01*
X1788Y1183D02*
X1791Y1183D01*
X1801Y1183D02*
X1803Y1183D01*
X1816Y1183D02*
X1818Y1183D01*
X1861Y1183D02*
X1866Y1183D01*
X1889Y1183D02*
X1892Y1183D01*
X1909Y1183D02*
X1911Y1183D01*
X1920Y1183D02*
X1926Y1183D01*
X2192Y1183D02*
X2199Y1183D01*
X1Y1182D02*
X8Y1182D01*
X1720Y1182D02*
X1737Y1182D01*
X1775Y1182D02*
X1791Y1182D01*
X1801Y1182D02*
X1818Y1182D01*
X1861Y1182D02*
X1866Y1182D01*
X1883Y1182D02*
X1898Y1182D01*
X1909Y1182D02*
X1911Y1182D01*
X1921Y1182D02*
X1926Y1182D01*
X2192Y1182D02*
X2199Y1182D01*
X1Y1181D02*
X8Y1181D01*
X1720Y1181D02*
X1737Y1181D01*
X1774Y1181D02*
X1791Y1181D01*
X1801Y1181D02*
X1818Y1181D01*
X1862Y1181D02*
X1865Y1181D01*
X1882Y1181D02*
X1899Y1181D01*
X1909Y1181D02*
X1911Y1181D01*
X1921Y1181D02*
X1926Y1181D01*
X2192Y1181D02*
X2199Y1181D01*
X1Y1180D02*
X8Y1180D01*
X1720Y1180D02*
X1737Y1180D01*
X1774Y1180D02*
X1791Y1180D01*
X1801Y1180D02*
X1818Y1180D01*
X1862Y1180D02*
X1865Y1180D01*
X1882Y1180D02*
X1899Y1180D01*
X1909Y1180D02*
X1911Y1180D01*
X1922Y1180D02*
X1926Y1180D01*
X2192Y1180D02*
X2199Y1180D01*
X1Y1179D02*
X8Y1179D01*
X1720Y1179D02*
X1737Y1179D01*
X1774Y1179D02*
X1791Y1179D01*
X1801Y1179D02*
X1818Y1179D01*
X1863Y1179D02*
X1864Y1179D01*
X1882Y1179D02*
X1899Y1179D01*
X1909Y1179D02*
X1911Y1179D01*
X1922Y1179D02*
X1926Y1179D01*
X2192Y1179D02*
X2199Y1179D01*
X1Y1178D02*
X8Y1178D01*
X2192Y1178D02*
X2199Y1178D01*
X1Y1177D02*
X8Y1177D01*
X2192Y1177D02*
X2199Y1177D01*
X1Y1176D02*
X8Y1176D01*
X2192Y1176D02*
X2199Y1176D01*
X1Y1175D02*
X8Y1175D01*
X2192Y1175D02*
X2199Y1175D01*
X1Y1174D02*
X8Y1174D01*
X2192Y1174D02*
X2199Y1174D01*
X1Y1173D02*
X8Y1173D01*
X2192Y1173D02*
X2199Y1173D01*
X1Y1172D02*
X8Y1172D01*
X2192Y1172D02*
X2199Y1172D01*
X1Y1171D02*
X8Y1171D01*
X2192Y1171D02*
X2199Y1171D01*
X1Y1170D02*
X8Y1170D01*
X2192Y1170D02*
X2199Y1170D01*
X1Y1169D02*
X8Y1169D01*
X2192Y1169D02*
X2199Y1169D01*
X1Y1168D02*
X8Y1168D01*
X2192Y1168D02*
X2199Y1168D01*
X1Y1167D02*
X8Y1167D01*
X2192Y1167D02*
X2199Y1167D01*
X1Y1166D02*
X8Y1166D01*
X2192Y1166D02*
X2199Y1166D01*
X1Y1165D02*
X8Y1165D01*
X2192Y1165D02*
X2199Y1165D01*
X1Y1164D02*
X8Y1164D01*
X2192Y1164D02*
X2199Y1164D01*
X1Y1163D02*
X8Y1163D01*
X2192Y1163D02*
X2199Y1163D01*
X1Y1162D02*
X8Y1162D01*
X2192Y1162D02*
X2199Y1162D01*
X1Y1161D02*
X8Y1161D01*
X2192Y1161D02*
X2199Y1161D01*
X1Y1160D02*
X8Y1160D01*
X2192Y1160D02*
X2199Y1160D01*
X1Y1159D02*
X8Y1159D01*
X2192Y1159D02*
X2199Y1159D01*
X1Y1158D02*
X8Y1158D01*
X2192Y1158D02*
X2199Y1158D01*
X1Y1157D02*
X8Y1157D01*
X2192Y1157D02*
X2199Y1157D01*
X1Y1156D02*
X8Y1156D01*
X2192Y1156D02*
X2199Y1156D01*
X1Y1155D02*
X8Y1155D01*
X2192Y1155D02*
X2199Y1155D01*
X1Y1154D02*
X8Y1154D01*
X2192Y1154D02*
X2199Y1154D01*
X1Y1153D02*
X8Y1153D01*
X2192Y1153D02*
X2199Y1153D01*
X1Y1152D02*
X8Y1152D01*
X2192Y1152D02*
X2199Y1152D01*
X1Y1151D02*
X8Y1151D01*
X2192Y1151D02*
X2199Y1151D01*
X1Y1150D02*
X8Y1150D01*
X2192Y1150D02*
X2199Y1150D01*
X1Y1149D02*
X8Y1149D01*
X2192Y1149D02*
X2199Y1149D01*
X1Y1148D02*
X8Y1148D01*
X2192Y1148D02*
X2199Y1148D01*
X1Y1147D02*
X8Y1147D01*
X2192Y1147D02*
X2199Y1147D01*
X1Y1146D02*
X8Y1146D01*
X2192Y1146D02*
X2199Y1146D01*
X1Y1145D02*
X8Y1145D01*
X2192Y1145D02*
X2199Y1145D01*
X1Y1144D02*
X8Y1144D01*
X2192Y1144D02*
X2199Y1144D01*
X1Y1143D02*
X8Y1143D01*
X2192Y1143D02*
X2199Y1143D01*
X1Y1142D02*
X8Y1142D01*
X2192Y1142D02*
X2199Y1142D01*
X1Y1141D02*
X8Y1141D01*
X2192Y1141D02*
X2199Y1141D01*
X1Y1140D02*
X8Y1140D01*
X2192Y1140D02*
X2199Y1140D01*
X1Y1139D02*
X8Y1139D01*
X2192Y1139D02*
X2199Y1139D01*
X1Y1138D02*
X8Y1138D01*
X2192Y1138D02*
X2199Y1138D01*
X1Y1137D02*
X8Y1137D01*
X2192Y1137D02*
X2199Y1137D01*
X1Y1136D02*
X8Y1136D01*
X2192Y1136D02*
X2199Y1136D01*
X1Y1135D02*
X8Y1135D01*
X2192Y1135D02*
X2199Y1135D01*
X1Y1134D02*
X8Y1134D01*
X2192Y1134D02*
X2199Y1134D01*
X1Y1133D02*
X8Y1133D01*
X1738Y1133D02*
X1753Y1133D01*
X1770Y1133D02*
X1779Y1133D01*
X1799Y1133D02*
X1802Y1133D01*
X1820Y1133D02*
X1839Y1133D01*
X2192Y1133D02*
X2199Y1133D01*
X1Y1132D02*
X8Y1132D01*
X1736Y1132D02*
X1754Y1132D01*
X1770Y1132D02*
X1779Y1132D01*
X1798Y1132D02*
X1803Y1132D01*
X1819Y1132D02*
X1841Y1132D01*
X2192Y1132D02*
X2199Y1132D01*
X1Y1131D02*
X8Y1131D01*
X1735Y1131D02*
X1754Y1131D01*
X1770Y1131D02*
X1780Y1131D01*
X1797Y1131D02*
X1803Y1131D01*
X1818Y1131D02*
X1842Y1131D01*
X2192Y1131D02*
X2199Y1131D01*
X1Y1130D02*
X8Y1130D01*
X1733Y1130D02*
X1754Y1130D01*
X1770Y1130D02*
X1780Y1130D01*
X1797Y1130D02*
X1803Y1130D01*
X1818Y1130D02*
X1843Y1130D01*
X2192Y1130D02*
X2199Y1130D01*
X1Y1129D02*
X8Y1129D01*
X1732Y1129D02*
X1754Y1129D01*
X1770Y1129D02*
X1780Y1129D01*
X1797Y1129D02*
X1803Y1129D01*
X1819Y1129D02*
X1844Y1129D01*
X2192Y1129D02*
X2199Y1129D01*
X1Y1128D02*
X8Y1128D01*
X1731Y1128D02*
X1753Y1128D01*
X1770Y1128D02*
X1781Y1128D01*
X1797Y1128D02*
X1803Y1128D01*
X1819Y1128D02*
X1845Y1128D01*
X2192Y1128D02*
X2199Y1128D01*
X1Y1127D02*
X8Y1127D01*
X1730Y1127D02*
X1751Y1127D01*
X1770Y1127D02*
X1781Y1127D01*
X1797Y1127D02*
X1803Y1127D01*
X1822Y1127D02*
X1845Y1127D01*
X2192Y1127D02*
X2199Y1127D01*
X1Y1126D02*
X8Y1126D01*
X1729Y1126D02*
X1738Y1126D01*
X1770Y1126D02*
X1782Y1126D01*
X1797Y1126D02*
X1803Y1126D01*
X1825Y1126D02*
X1831Y1126D01*
X1839Y1126D02*
X1846Y1126D01*
X2192Y1126D02*
X2199Y1126D01*
X1Y1125D02*
X8Y1125D01*
X1728Y1125D02*
X1737Y1125D01*
X1770Y1125D02*
X1782Y1125D01*
X1797Y1125D02*
X1803Y1125D01*
X1825Y1125D02*
X1831Y1125D01*
X1839Y1125D02*
X1846Y1125D01*
X2192Y1125D02*
X2199Y1125D01*
X1Y1124D02*
X8Y1124D01*
X1727Y1124D02*
X1736Y1124D01*
X1770Y1124D02*
X1783Y1124D01*
X1797Y1124D02*
X1803Y1124D01*
X1825Y1124D02*
X1831Y1124D01*
X1840Y1124D02*
X1847Y1124D01*
X2192Y1124D02*
X2199Y1124D01*
X1Y1123D02*
X8Y1123D01*
X1726Y1123D02*
X1735Y1123D01*
X1770Y1123D02*
X1783Y1123D01*
X1797Y1123D02*
X1803Y1123D01*
X1825Y1123D02*
X1831Y1123D01*
X1840Y1123D02*
X1847Y1123D01*
X2192Y1123D02*
X2199Y1123D01*
X1Y1122D02*
X8Y1122D01*
X1725Y1122D02*
X1734Y1122D01*
X1770Y1122D02*
X1784Y1122D01*
X1797Y1122D02*
X1803Y1122D01*
X1825Y1122D02*
X1831Y1122D01*
X1841Y1122D02*
X1848Y1122D01*
X2192Y1122D02*
X2199Y1122D01*
X1Y1121D02*
X8Y1121D01*
X1724Y1121D02*
X1733Y1121D01*
X1770Y1121D02*
X1784Y1121D01*
X1797Y1121D02*
X1803Y1121D01*
X1825Y1121D02*
X1831Y1121D01*
X1841Y1121D02*
X1848Y1121D01*
X2192Y1121D02*
X2199Y1121D01*
X1Y1120D02*
X8Y1120D01*
X1723Y1120D02*
X1732Y1120D01*
X1770Y1120D02*
X1776Y1120D01*
X1778Y1120D02*
X1784Y1120D01*
X1797Y1120D02*
X1803Y1120D01*
X1825Y1120D02*
X1831Y1120D01*
X1842Y1120D02*
X1849Y1120D01*
X2192Y1120D02*
X2199Y1120D01*
X1Y1119D02*
X8Y1119D01*
X1722Y1119D02*
X1730Y1119D01*
X1770Y1119D02*
X1776Y1119D01*
X1778Y1119D02*
X1785Y1119D01*
X1797Y1119D02*
X1803Y1119D01*
X1825Y1119D02*
X1831Y1119D01*
X1842Y1119D02*
X1849Y1119D01*
X2192Y1119D02*
X2199Y1119D01*
X1Y1118D02*
X8Y1118D01*
X1722Y1118D02*
X1729Y1118D01*
X1770Y1118D02*
X1776Y1118D01*
X1779Y1118D02*
X1785Y1118D01*
X1797Y1118D02*
X1803Y1118D01*
X1825Y1118D02*
X1831Y1118D01*
X1843Y1118D02*
X1850Y1118D01*
X2192Y1118D02*
X2199Y1118D01*
X1Y1117D02*
X8Y1117D01*
X1722Y1117D02*
X1728Y1117D01*
X1770Y1117D02*
X1776Y1117D01*
X1779Y1117D02*
X1786Y1117D01*
X1797Y1117D02*
X1803Y1117D01*
X1825Y1117D02*
X1831Y1117D01*
X1844Y1117D02*
X1850Y1117D01*
X2192Y1117D02*
X2199Y1117D01*
X1Y1116D02*
X8Y1116D01*
X1722Y1116D02*
X1728Y1116D01*
X1770Y1116D02*
X1776Y1116D01*
X1780Y1116D02*
X1786Y1116D01*
X1797Y1116D02*
X1803Y1116D01*
X1825Y1116D02*
X1831Y1116D01*
X1844Y1116D02*
X1851Y1116D01*
X2192Y1116D02*
X2199Y1116D01*
X1Y1115D02*
X8Y1115D01*
X1721Y1115D02*
X1727Y1115D01*
X1770Y1115D02*
X1776Y1115D01*
X1780Y1115D02*
X1787Y1115D01*
X1797Y1115D02*
X1803Y1115D01*
X1825Y1115D02*
X1831Y1115D01*
X1845Y1115D02*
X1851Y1115D01*
X2192Y1115D02*
X2199Y1115D01*
X1Y1114D02*
X8Y1114D01*
X1721Y1114D02*
X1727Y1114D01*
X1770Y1114D02*
X1776Y1114D01*
X1781Y1114D02*
X1787Y1114D01*
X1797Y1114D02*
X1803Y1114D01*
X1825Y1114D02*
X1831Y1114D01*
X1845Y1114D02*
X1852Y1114D01*
X2192Y1114D02*
X2199Y1114D01*
X1Y1113D02*
X8Y1113D01*
X1721Y1113D02*
X1727Y1113D01*
X1770Y1113D02*
X1776Y1113D01*
X1781Y1113D02*
X1788Y1113D01*
X1797Y1113D02*
X1803Y1113D01*
X1825Y1113D02*
X1831Y1113D01*
X1846Y1113D02*
X1852Y1113D01*
X2192Y1113D02*
X2199Y1113D01*
X1Y1112D02*
X8Y1112D01*
X1721Y1112D02*
X1727Y1112D01*
X1770Y1112D02*
X1776Y1112D01*
X1781Y1112D02*
X1788Y1112D01*
X1797Y1112D02*
X1803Y1112D01*
X1825Y1112D02*
X1831Y1112D01*
X1846Y1112D02*
X1852Y1112D01*
X2192Y1112D02*
X2199Y1112D01*
X1Y1111D02*
X8Y1111D01*
X1721Y1111D02*
X1727Y1111D01*
X1770Y1111D02*
X1776Y1111D01*
X1782Y1111D02*
X1788Y1111D01*
X1797Y1111D02*
X1803Y1111D01*
X1825Y1111D02*
X1831Y1111D01*
X1847Y1111D02*
X1853Y1111D01*
X2192Y1111D02*
X2199Y1111D01*
X1Y1110D02*
X8Y1110D01*
X1721Y1110D02*
X1727Y1110D01*
X1770Y1110D02*
X1776Y1110D01*
X1782Y1110D02*
X1789Y1110D01*
X1797Y1110D02*
X1803Y1110D01*
X1825Y1110D02*
X1831Y1110D01*
X1847Y1110D02*
X1853Y1110D01*
X2192Y1110D02*
X2199Y1110D01*
X1Y1109D02*
X8Y1109D01*
X1721Y1109D02*
X1727Y1109D01*
X1770Y1109D02*
X1776Y1109D01*
X1783Y1109D02*
X1789Y1109D01*
X1797Y1109D02*
X1803Y1109D01*
X1825Y1109D02*
X1831Y1109D01*
X1847Y1109D02*
X1853Y1109D01*
X2192Y1109D02*
X2199Y1109D01*
X1Y1108D02*
X8Y1108D01*
X1721Y1108D02*
X1727Y1108D01*
X1770Y1108D02*
X1776Y1108D01*
X1783Y1108D02*
X1790Y1108D01*
X1797Y1108D02*
X1803Y1108D01*
X1825Y1108D02*
X1831Y1108D01*
X1847Y1108D02*
X1853Y1108D01*
X2192Y1108D02*
X2199Y1108D01*
X1Y1107D02*
X8Y1107D01*
X1721Y1107D02*
X1727Y1107D01*
X1738Y1107D02*
X1752Y1107D01*
X1770Y1107D02*
X1776Y1107D01*
X1784Y1107D02*
X1790Y1107D01*
X1797Y1107D02*
X1803Y1107D01*
X1825Y1107D02*
X1831Y1107D01*
X1847Y1107D02*
X1853Y1107D01*
X2192Y1107D02*
X2199Y1107D01*
X1Y1106D02*
X8Y1106D01*
X1721Y1106D02*
X1727Y1106D01*
X1737Y1106D02*
X1753Y1106D01*
X1770Y1106D02*
X1776Y1106D01*
X1784Y1106D02*
X1791Y1106D01*
X1797Y1106D02*
X1803Y1106D01*
X1825Y1106D02*
X1831Y1106D01*
X1847Y1106D02*
X1853Y1106D01*
X2192Y1106D02*
X2199Y1106D01*
X1Y1105D02*
X8Y1105D01*
X1721Y1105D02*
X1727Y1105D01*
X1736Y1105D02*
X1754Y1105D01*
X1770Y1105D02*
X1776Y1105D01*
X1784Y1105D02*
X1791Y1105D01*
X1797Y1105D02*
X1803Y1105D01*
X1825Y1105D02*
X1831Y1105D01*
X1847Y1105D02*
X1853Y1105D01*
X2192Y1105D02*
X2199Y1105D01*
X1Y1104D02*
X8Y1104D01*
X1721Y1104D02*
X1727Y1104D01*
X1736Y1104D02*
X1754Y1104D01*
X1770Y1104D02*
X1776Y1104D01*
X1785Y1104D02*
X1791Y1104D01*
X1797Y1104D02*
X1803Y1104D01*
X1825Y1104D02*
X1831Y1104D01*
X1847Y1104D02*
X1853Y1104D01*
X2192Y1104D02*
X2199Y1104D01*
X1Y1103D02*
X8Y1103D01*
X1721Y1103D02*
X1727Y1103D01*
X1736Y1103D02*
X1754Y1103D01*
X1770Y1103D02*
X1776Y1103D01*
X1785Y1103D02*
X1792Y1103D01*
X1797Y1103D02*
X1803Y1103D01*
X1825Y1103D02*
X1831Y1103D01*
X1846Y1103D02*
X1852Y1103D01*
X2192Y1103D02*
X2199Y1103D01*
X1Y1102D02*
X8Y1102D01*
X1721Y1102D02*
X1727Y1102D01*
X1737Y1102D02*
X1754Y1102D01*
X1770Y1102D02*
X1776Y1102D01*
X1786Y1102D02*
X1792Y1102D01*
X1797Y1102D02*
X1803Y1102D01*
X1825Y1102D02*
X1831Y1102D01*
X1846Y1102D02*
X1852Y1102D01*
X2192Y1102D02*
X2199Y1102D01*
X1Y1101D02*
X8Y1101D01*
X1721Y1101D02*
X1727Y1101D01*
X1738Y1101D02*
X1754Y1101D01*
X1770Y1101D02*
X1776Y1101D01*
X1786Y1101D02*
X1793Y1101D01*
X1797Y1101D02*
X1803Y1101D01*
X1825Y1101D02*
X1831Y1101D01*
X1845Y1101D02*
X1852Y1101D01*
X2192Y1101D02*
X2199Y1101D01*
X1Y1100D02*
X8Y1100D01*
X1721Y1100D02*
X1727Y1100D01*
X1748Y1100D02*
X1754Y1100D01*
X1770Y1100D02*
X1776Y1100D01*
X1787Y1100D02*
X1793Y1100D01*
X1797Y1100D02*
X1803Y1100D01*
X1825Y1100D02*
X1831Y1100D01*
X1845Y1100D02*
X1851Y1100D01*
X2192Y1100D02*
X2199Y1100D01*
X1Y1099D02*
X8Y1099D01*
X1721Y1099D02*
X1727Y1099D01*
X1748Y1099D02*
X1754Y1099D01*
X1770Y1099D02*
X1776Y1099D01*
X1787Y1099D02*
X1794Y1099D01*
X1797Y1099D02*
X1803Y1099D01*
X1825Y1099D02*
X1831Y1099D01*
X1844Y1099D02*
X1851Y1099D01*
X2192Y1099D02*
X2199Y1099D01*
X1Y1098D02*
X8Y1098D01*
X1721Y1098D02*
X1727Y1098D01*
X1748Y1098D02*
X1754Y1098D01*
X1770Y1098D02*
X1776Y1098D01*
X1788Y1098D02*
X1794Y1098D01*
X1797Y1098D02*
X1803Y1098D01*
X1825Y1098D02*
X1831Y1098D01*
X1844Y1098D02*
X1850Y1098D01*
X2192Y1098D02*
X2199Y1098D01*
X1Y1097D02*
X8Y1097D01*
X1721Y1097D02*
X1727Y1097D01*
X1748Y1097D02*
X1754Y1097D01*
X1770Y1097D02*
X1776Y1097D01*
X1788Y1097D02*
X1795Y1097D01*
X1797Y1097D02*
X1803Y1097D01*
X1825Y1097D02*
X1831Y1097D01*
X1843Y1097D02*
X1850Y1097D01*
X2192Y1097D02*
X2199Y1097D01*
X1Y1096D02*
X8Y1096D01*
X1721Y1096D02*
X1727Y1096D01*
X1748Y1096D02*
X1754Y1096D01*
X1770Y1096D02*
X1776Y1096D01*
X1788Y1096D02*
X1795Y1096D01*
X1797Y1096D02*
X1803Y1096D01*
X1825Y1096D02*
X1831Y1096D01*
X1843Y1096D02*
X1849Y1096D01*
X2192Y1096D02*
X2199Y1096D01*
X1Y1095D02*
X8Y1095D01*
X1721Y1095D02*
X1727Y1095D01*
X1748Y1095D02*
X1754Y1095D01*
X1770Y1095D02*
X1776Y1095D01*
X1789Y1095D02*
X1795Y1095D01*
X1797Y1095D02*
X1803Y1095D01*
X1825Y1095D02*
X1831Y1095D01*
X1842Y1095D02*
X1849Y1095D01*
X2192Y1095D02*
X2199Y1095D01*
X1Y1094D02*
X8Y1094D01*
X1721Y1094D02*
X1727Y1094D01*
X1748Y1094D02*
X1754Y1094D01*
X1770Y1094D02*
X1776Y1094D01*
X1789Y1094D02*
X1803Y1094D01*
X1825Y1094D02*
X1831Y1094D01*
X1842Y1094D02*
X1848Y1094D01*
X2192Y1094D02*
X2199Y1094D01*
X1Y1093D02*
X8Y1093D01*
X1721Y1093D02*
X1727Y1093D01*
X1748Y1093D02*
X1754Y1093D01*
X1770Y1093D02*
X1776Y1093D01*
X1790Y1093D02*
X1803Y1093D01*
X1825Y1093D02*
X1831Y1093D01*
X1841Y1093D02*
X1848Y1093D01*
X2192Y1093D02*
X2199Y1093D01*
X1Y1092D02*
X8Y1092D01*
X1721Y1092D02*
X1727Y1092D01*
X1748Y1092D02*
X1754Y1092D01*
X1770Y1092D02*
X1776Y1092D01*
X1790Y1092D02*
X1803Y1092D01*
X1825Y1092D02*
X1831Y1092D01*
X1841Y1092D02*
X1847Y1092D01*
X2192Y1092D02*
X2199Y1092D01*
X1Y1091D02*
X8Y1091D01*
X1721Y1091D02*
X1727Y1091D01*
X1748Y1091D02*
X1754Y1091D01*
X1770Y1091D02*
X1776Y1091D01*
X1791Y1091D02*
X1803Y1091D01*
X1825Y1091D02*
X1831Y1091D01*
X1840Y1091D02*
X1847Y1091D01*
X2192Y1091D02*
X2199Y1091D01*
X1Y1090D02*
X8Y1090D01*
X1721Y1090D02*
X1727Y1090D01*
X1748Y1090D02*
X1754Y1090D01*
X1770Y1090D02*
X1776Y1090D01*
X1791Y1090D02*
X1803Y1090D01*
X1825Y1090D02*
X1831Y1090D01*
X1840Y1090D02*
X1846Y1090D01*
X2192Y1090D02*
X2199Y1090D01*
X1Y1089D02*
X8Y1089D01*
X1722Y1089D02*
X1728Y1089D01*
X1747Y1089D02*
X1754Y1089D01*
X1770Y1089D02*
X1776Y1089D01*
X1791Y1089D02*
X1803Y1089D01*
X1825Y1089D02*
X1831Y1089D01*
X1839Y1089D02*
X1846Y1089D01*
X2192Y1089D02*
X2199Y1089D01*
X1Y1088D02*
X8Y1088D01*
X1722Y1088D02*
X1730Y1088D01*
X1746Y1088D02*
X1754Y1088D01*
X1770Y1088D02*
X1776Y1088D01*
X1792Y1088D02*
X1803Y1088D01*
X1825Y1088D02*
X1831Y1088D01*
X1838Y1088D02*
X1845Y1088D01*
X2192Y1088D02*
X2199Y1088D01*
X1Y1087D02*
X8Y1087D01*
X1722Y1087D02*
X1753Y1087D01*
X1770Y1087D02*
X1776Y1087D01*
X1792Y1087D02*
X1803Y1087D01*
X1820Y1087D02*
X1845Y1087D01*
X2192Y1087D02*
X2199Y1087D01*
X1Y1086D02*
X8Y1086D01*
X1723Y1086D02*
X1753Y1086D01*
X1770Y1086D02*
X1776Y1086D01*
X1793Y1086D02*
X1803Y1086D01*
X1819Y1086D02*
X1844Y1086D01*
X2192Y1086D02*
X2199Y1086D01*
X1Y1085D02*
X8Y1085D01*
X1723Y1085D02*
X1752Y1085D01*
X1770Y1085D02*
X1776Y1085D01*
X1793Y1085D02*
X1803Y1085D01*
X1818Y1085D02*
X1844Y1085D01*
X2192Y1085D02*
X2199Y1085D01*
X1Y1084D02*
X8Y1084D01*
X1724Y1084D02*
X1751Y1084D01*
X1770Y1084D02*
X1776Y1084D01*
X1794Y1084D02*
X1803Y1084D01*
X1818Y1084D02*
X1843Y1084D01*
X2192Y1084D02*
X2199Y1084D01*
X1Y1083D02*
X8Y1083D01*
X1725Y1083D02*
X1750Y1083D01*
X1771Y1083D02*
X1776Y1083D01*
X1794Y1083D02*
X1803Y1083D01*
X1819Y1083D02*
X1842Y1083D01*
X2192Y1083D02*
X2199Y1083D01*
X1Y1082D02*
X8Y1082D01*
X1727Y1082D02*
X1748Y1082D01*
X1771Y1082D02*
X1775Y1082D01*
X1795Y1082D02*
X1803Y1082D01*
X1819Y1082D02*
X1840Y1082D01*
X2192Y1082D02*
X2199Y1082D01*
X1Y1081D02*
X8Y1081D01*
X1731Y1081D02*
X1744Y1081D01*
X1773Y1081D02*
X1773Y1081D01*
X1796Y1081D02*
X1802Y1081D01*
X1821Y1081D02*
X1836Y1081D01*
X2192Y1081D02*
X2199Y1081D01*
X1Y1080D02*
X8Y1080D01*
X2192Y1080D02*
X2199Y1080D01*
X1Y1079D02*
X8Y1079D01*
X2192Y1079D02*
X2199Y1079D01*
X1Y1078D02*
X8Y1078D01*
X2192Y1078D02*
X2199Y1078D01*
X1Y1077D02*
X8Y1077D01*
X2192Y1077D02*
X2199Y1077D01*
X1Y1076D02*
X8Y1076D01*
X2192Y1076D02*
X2199Y1076D01*
X1Y1075D02*
X8Y1075D01*
X2192Y1075D02*
X2199Y1075D01*
X1Y1074D02*
X8Y1074D01*
X2192Y1074D02*
X2199Y1074D01*
X1Y1073D02*
X8Y1073D01*
X2192Y1073D02*
X2199Y1073D01*
X1Y1072D02*
X8Y1072D01*
X2192Y1072D02*
X2199Y1072D01*
X1Y1071D02*
X8Y1071D01*
X2192Y1071D02*
X2199Y1071D01*
X1Y1070D02*
X8Y1070D01*
X2192Y1070D02*
X2199Y1070D01*
X1Y1069D02*
X8Y1069D01*
X2192Y1069D02*
X2199Y1069D01*
X1Y1068D02*
X8Y1068D01*
X2192Y1068D02*
X2199Y1068D01*
X1Y1067D02*
X8Y1067D01*
X2192Y1067D02*
X2199Y1067D01*
X1Y1066D02*
X8Y1066D01*
X2192Y1066D02*
X2199Y1066D01*
X1Y1065D02*
X8Y1065D01*
X2192Y1065D02*
X2199Y1065D01*
X1Y1064D02*
X8Y1064D01*
X2192Y1064D02*
X2199Y1064D01*
X1Y1063D02*
X8Y1063D01*
X2192Y1063D02*
X2199Y1063D01*
X1Y1062D02*
X8Y1062D01*
X2192Y1062D02*
X2199Y1062D01*
X1Y1061D02*
X8Y1061D01*
X2192Y1061D02*
X2199Y1061D01*
X1Y1060D02*
X8Y1060D01*
X2192Y1060D02*
X2199Y1060D01*
X1Y1059D02*
X8Y1059D01*
X2192Y1059D02*
X2199Y1059D01*
X1Y1058D02*
X8Y1058D01*
X2192Y1058D02*
X2199Y1058D01*
X1Y1057D02*
X8Y1057D01*
X2192Y1057D02*
X2199Y1057D01*
X1Y1056D02*
X8Y1056D01*
X2192Y1056D02*
X2199Y1056D01*
X1Y1055D02*
X8Y1055D01*
X2192Y1055D02*
X2199Y1055D01*
X1Y1054D02*
X8Y1054D01*
X2192Y1054D02*
X2199Y1054D01*
X1Y1053D02*
X8Y1053D01*
X2192Y1053D02*
X2199Y1053D01*
X1Y1052D02*
X8Y1052D01*
X2192Y1052D02*
X2199Y1052D01*
X1Y1051D02*
X8Y1051D01*
X2192Y1051D02*
X2199Y1051D01*
X1Y1050D02*
X8Y1050D01*
X2192Y1050D02*
X2199Y1050D01*
X1Y1049D02*
X8Y1049D01*
X2192Y1049D02*
X2199Y1049D01*
X1Y1048D02*
X8Y1048D01*
X2192Y1048D02*
X2199Y1048D01*
X1Y1047D02*
X8Y1047D01*
X2192Y1047D02*
X2199Y1047D01*
X1Y1046D02*
X8Y1046D01*
X2192Y1046D02*
X2199Y1046D01*
X1Y1045D02*
X8Y1045D01*
X2192Y1045D02*
X2199Y1045D01*
X1Y1044D02*
X8Y1044D01*
X2192Y1044D02*
X2199Y1044D01*
X1Y1043D02*
X8Y1043D01*
X2192Y1043D02*
X2199Y1043D01*
X1Y1042D02*
X8Y1042D01*
X2192Y1042D02*
X2199Y1042D01*
X1Y1041D02*
X8Y1041D01*
X684Y1041D02*
X693Y1041D01*
X714Y1041D02*
X719Y1041D01*
X764Y1041D02*
X778Y1041D01*
X2192Y1041D02*
X2199Y1041D01*
X1Y1040D02*
X8Y1040D01*
X680Y1040D02*
X695Y1040D01*
X713Y1040D02*
X721Y1040D01*
X741Y1040D02*
X744Y1040D01*
X762Y1040D02*
X782Y1040D01*
X2192Y1040D02*
X2199Y1040D01*
X1Y1039D02*
X8Y1039D01*
X678Y1039D02*
X696Y1039D01*
X713Y1039D02*
X721Y1039D01*
X740Y1039D02*
X745Y1039D01*
X761Y1039D02*
X784Y1039D01*
X2192Y1039D02*
X2199Y1039D01*
X1Y1038D02*
X8Y1038D01*
X677Y1038D02*
X696Y1038D01*
X713Y1038D02*
X722Y1038D01*
X740Y1038D02*
X745Y1038D01*
X761Y1038D02*
X785Y1038D01*
X2192Y1038D02*
X2199Y1038D01*
X1Y1037D02*
X8Y1037D01*
X675Y1037D02*
X696Y1037D01*
X713Y1037D02*
X722Y1037D01*
X739Y1037D02*
X745Y1037D01*
X761Y1037D02*
X786Y1037D01*
X2192Y1037D02*
X2199Y1037D01*
X1Y1036D02*
X8Y1036D01*
X674Y1036D02*
X696Y1036D01*
X713Y1036D02*
X723Y1036D01*
X739Y1036D02*
X745Y1036D01*
X761Y1036D02*
X786Y1036D01*
X2192Y1036D02*
X2199Y1036D01*
X1Y1035D02*
X8Y1035D01*
X673Y1035D02*
X695Y1035D01*
X713Y1035D02*
X723Y1035D01*
X739Y1035D02*
X745Y1035D01*
X762Y1035D02*
X787Y1035D01*
X2192Y1035D02*
X2199Y1035D01*
X1Y1034D02*
X8Y1034D01*
X672Y1034D02*
X682Y1034D01*
X713Y1034D02*
X724Y1034D01*
X739Y1034D02*
X745Y1034D01*
X767Y1034D02*
X773Y1034D01*
X780Y1034D02*
X787Y1034D01*
X2192Y1034D02*
X2199Y1034D01*
X1Y1033D02*
X8Y1033D01*
X671Y1033D02*
X680Y1033D01*
X713Y1033D02*
X724Y1033D01*
X739Y1033D02*
X745Y1033D01*
X767Y1033D02*
X773Y1033D01*
X781Y1033D02*
X788Y1033D01*
X2192Y1033D02*
X2199Y1033D01*
X1Y1032D02*
X8Y1032D01*
X670Y1032D02*
X679Y1032D01*
X713Y1032D02*
X724Y1032D01*
X739Y1032D02*
X745Y1032D01*
X767Y1032D02*
X773Y1032D01*
X782Y1032D02*
X788Y1032D01*
X2192Y1032D02*
X2199Y1032D01*
X1Y1031D02*
X8Y1031D01*
X669Y1031D02*
X678Y1031D01*
X713Y1031D02*
X725Y1031D01*
X739Y1031D02*
X745Y1031D01*
X767Y1031D02*
X773Y1031D01*
X782Y1031D02*
X789Y1031D01*
X2192Y1031D02*
X2199Y1031D01*
X1Y1030D02*
X8Y1030D01*
X668Y1030D02*
X677Y1030D01*
X713Y1030D02*
X725Y1030D01*
X739Y1030D02*
X745Y1030D01*
X767Y1030D02*
X773Y1030D01*
X783Y1030D02*
X789Y1030D01*
X2192Y1030D02*
X2199Y1030D01*
X1Y1029D02*
X8Y1029D01*
X667Y1029D02*
X676Y1029D01*
X713Y1029D02*
X726Y1029D01*
X739Y1029D02*
X745Y1029D01*
X767Y1029D02*
X773Y1029D01*
X783Y1029D02*
X790Y1029D01*
X2192Y1029D02*
X2199Y1029D01*
X1Y1028D02*
X8Y1028D01*
X666Y1028D02*
X675Y1028D01*
X713Y1028D02*
X726Y1028D01*
X739Y1028D02*
X745Y1028D01*
X767Y1028D02*
X773Y1028D01*
X784Y1028D02*
X790Y1028D01*
X2192Y1028D02*
X2199Y1028D01*
X1Y1027D02*
X8Y1027D01*
X665Y1027D02*
X673Y1027D01*
X713Y1027D02*
X718Y1027D01*
X720Y1027D02*
X727Y1027D01*
X739Y1027D02*
X745Y1027D01*
X767Y1027D02*
X773Y1027D01*
X784Y1027D02*
X791Y1027D01*
X2192Y1027D02*
X2199Y1027D01*
X1Y1026D02*
X8Y1026D01*
X664Y1026D02*
X672Y1026D01*
X713Y1026D02*
X718Y1026D01*
X721Y1026D02*
X727Y1026D01*
X739Y1026D02*
X745Y1026D01*
X767Y1026D02*
X773Y1026D01*
X785Y1026D02*
X791Y1026D01*
X2192Y1026D02*
X2199Y1026D01*
X1Y1025D02*
X8Y1025D01*
X664Y1025D02*
X671Y1025D01*
X713Y1025D02*
X718Y1025D01*
X721Y1025D02*
X728Y1025D01*
X739Y1025D02*
X745Y1025D01*
X767Y1025D02*
X773Y1025D01*
X785Y1025D02*
X792Y1025D01*
X2192Y1025D02*
X2199Y1025D01*
X1Y1024D02*
X8Y1024D01*
X664Y1024D02*
X670Y1024D01*
X713Y1024D02*
X718Y1024D01*
X721Y1024D02*
X728Y1024D01*
X739Y1024D02*
X745Y1024D01*
X767Y1024D02*
X773Y1024D01*
X786Y1024D02*
X792Y1024D01*
X2192Y1024D02*
X2199Y1024D01*
X1Y1023D02*
X8Y1023D01*
X664Y1023D02*
X670Y1023D01*
X713Y1023D02*
X718Y1023D01*
X722Y1023D02*
X728Y1023D01*
X739Y1023D02*
X745Y1023D01*
X767Y1023D02*
X773Y1023D01*
X786Y1023D02*
X793Y1023D01*
X2192Y1023D02*
X2199Y1023D01*
X1Y1022D02*
X8Y1022D01*
X664Y1022D02*
X670Y1022D01*
X713Y1022D02*
X718Y1022D01*
X722Y1022D02*
X729Y1022D01*
X739Y1022D02*
X745Y1022D01*
X767Y1022D02*
X773Y1022D01*
X787Y1022D02*
X793Y1022D01*
X2192Y1022D02*
X2199Y1022D01*
X1Y1021D02*
X8Y1021D01*
X663Y1021D02*
X669Y1021D01*
X713Y1021D02*
X718Y1021D01*
X723Y1021D02*
X729Y1021D01*
X739Y1021D02*
X745Y1021D01*
X767Y1021D02*
X773Y1021D01*
X787Y1021D02*
X794Y1021D01*
X2192Y1021D02*
X2199Y1021D01*
X1Y1020D02*
X8Y1020D01*
X663Y1020D02*
X669Y1020D01*
X713Y1020D02*
X718Y1020D01*
X723Y1020D02*
X730Y1020D01*
X739Y1020D02*
X745Y1020D01*
X767Y1020D02*
X773Y1020D01*
X788Y1020D02*
X794Y1020D01*
X2192Y1020D02*
X2199Y1020D01*
X1Y1019D02*
X8Y1019D01*
X663Y1019D02*
X669Y1019D01*
X713Y1019D02*
X718Y1019D01*
X724Y1019D02*
X730Y1019D01*
X739Y1019D02*
X745Y1019D01*
X767Y1019D02*
X773Y1019D01*
X788Y1019D02*
X795Y1019D01*
X2192Y1019D02*
X2199Y1019D01*
X1Y1018D02*
X8Y1018D01*
X663Y1018D02*
X669Y1018D01*
X713Y1018D02*
X718Y1018D01*
X724Y1018D02*
X731Y1018D01*
X739Y1018D02*
X745Y1018D01*
X767Y1018D02*
X773Y1018D01*
X789Y1018D02*
X795Y1018D01*
X2192Y1018D02*
X2199Y1018D01*
X1Y1017D02*
X8Y1017D01*
X663Y1017D02*
X669Y1017D01*
X713Y1017D02*
X718Y1017D01*
X725Y1017D02*
X731Y1017D01*
X739Y1017D02*
X745Y1017D01*
X767Y1017D02*
X773Y1017D01*
X789Y1017D02*
X795Y1017D01*
X2192Y1017D02*
X2199Y1017D01*
X1Y1016D02*
X8Y1016D01*
X663Y1016D02*
X669Y1016D01*
X713Y1016D02*
X718Y1016D01*
X725Y1016D02*
X731Y1016D01*
X739Y1016D02*
X745Y1016D01*
X767Y1016D02*
X773Y1016D01*
X789Y1016D02*
X795Y1016D01*
X2192Y1016D02*
X2199Y1016D01*
X1Y1015D02*
X8Y1015D01*
X663Y1015D02*
X669Y1015D01*
X713Y1015D02*
X718Y1015D01*
X725Y1015D02*
X732Y1015D01*
X739Y1015D02*
X745Y1015D01*
X767Y1015D02*
X773Y1015D01*
X789Y1015D02*
X795Y1015D01*
X2192Y1015D02*
X2199Y1015D01*
X1Y1014D02*
X8Y1014D01*
X663Y1014D02*
X669Y1014D01*
X679Y1014D02*
X695Y1014D01*
X713Y1014D02*
X718Y1014D01*
X726Y1014D02*
X732Y1014D01*
X739Y1014D02*
X745Y1014D01*
X767Y1014D02*
X773Y1014D01*
X789Y1014D02*
X795Y1014D01*
X2192Y1014D02*
X2199Y1014D01*
X1Y1013D02*
X8Y1013D01*
X663Y1013D02*
X669Y1013D01*
X679Y1013D02*
X696Y1013D01*
X713Y1013D02*
X718Y1013D01*
X726Y1013D02*
X733Y1013D01*
X739Y1013D02*
X745Y1013D01*
X767Y1013D02*
X773Y1013D01*
X789Y1013D02*
X795Y1013D01*
X2192Y1013D02*
X2199Y1013D01*
X1Y1012D02*
X8Y1012D01*
X663Y1012D02*
X669Y1012D01*
X678Y1012D02*
X696Y1012D01*
X713Y1012D02*
X718Y1012D01*
X727Y1012D02*
X733Y1012D01*
X739Y1012D02*
X745Y1012D01*
X767Y1012D02*
X773Y1012D01*
X789Y1012D02*
X795Y1012D01*
X2192Y1012D02*
X2199Y1012D01*
X1Y1011D02*
X8Y1011D01*
X663Y1011D02*
X669Y1011D01*
X678Y1011D02*
X696Y1011D01*
X713Y1011D02*
X718Y1011D01*
X727Y1011D02*
X734Y1011D01*
X739Y1011D02*
X745Y1011D01*
X767Y1011D02*
X773Y1011D01*
X789Y1011D02*
X795Y1011D01*
X2192Y1011D02*
X2199Y1011D01*
X1Y1010D02*
X8Y1010D01*
X663Y1010D02*
X669Y1010D01*
X678Y1010D02*
X696Y1010D01*
X713Y1010D02*
X718Y1010D01*
X728Y1010D02*
X734Y1010D01*
X739Y1010D02*
X745Y1010D01*
X767Y1010D02*
X773Y1010D01*
X788Y1010D02*
X795Y1010D01*
X2192Y1010D02*
X2199Y1010D01*
X1Y1009D02*
X8Y1009D01*
X663Y1009D02*
X669Y1009D01*
X679Y1009D02*
X696Y1009D01*
X713Y1009D02*
X718Y1009D01*
X728Y1009D02*
X735Y1009D01*
X739Y1009D02*
X745Y1009D01*
X767Y1009D02*
X773Y1009D01*
X788Y1009D02*
X794Y1009D01*
X2192Y1009D02*
X2199Y1009D01*
X1Y1008D02*
X8Y1008D01*
X663Y1008D02*
X669Y1008D01*
X681Y1008D02*
X696Y1008D01*
X713Y1008D02*
X718Y1008D01*
X728Y1008D02*
X735Y1008D01*
X739Y1008D02*
X745Y1008D01*
X767Y1008D02*
X773Y1008D01*
X787Y1008D02*
X794Y1008D01*
X2192Y1008D02*
X2199Y1008D01*
X1Y1007D02*
X8Y1007D01*
X663Y1007D02*
X669Y1007D01*
X690Y1007D02*
X696Y1007D01*
X713Y1007D02*
X718Y1007D01*
X729Y1007D02*
X735Y1007D01*
X739Y1007D02*
X745Y1007D01*
X767Y1007D02*
X773Y1007D01*
X787Y1007D02*
X793Y1007D01*
X2192Y1007D02*
X2199Y1007D01*
X1Y1006D02*
X8Y1006D01*
X663Y1006D02*
X669Y1006D01*
X690Y1006D02*
X696Y1006D01*
X713Y1006D02*
X718Y1006D01*
X729Y1006D02*
X736Y1006D01*
X739Y1006D02*
X745Y1006D01*
X767Y1006D02*
X773Y1006D01*
X786Y1006D02*
X793Y1006D01*
X2192Y1006D02*
X2199Y1006D01*
X1Y1005D02*
X8Y1005D01*
X663Y1005D02*
X669Y1005D01*
X690Y1005D02*
X696Y1005D01*
X713Y1005D02*
X718Y1005D01*
X730Y1005D02*
X736Y1005D01*
X739Y1005D02*
X745Y1005D01*
X767Y1005D02*
X773Y1005D01*
X786Y1005D02*
X792Y1005D01*
X2192Y1005D02*
X2199Y1005D01*
X1Y1004D02*
X8Y1004D01*
X663Y1004D02*
X669Y1004D01*
X690Y1004D02*
X696Y1004D01*
X713Y1004D02*
X718Y1004D01*
X730Y1004D02*
X737Y1004D01*
X739Y1004D02*
X745Y1004D01*
X767Y1004D02*
X773Y1004D01*
X785Y1004D02*
X792Y1004D01*
X2192Y1004D02*
X2199Y1004D01*
X1Y1003D02*
X8Y1003D01*
X663Y1003D02*
X669Y1003D01*
X690Y1003D02*
X696Y1003D01*
X713Y1003D02*
X718Y1003D01*
X731Y1003D02*
X737Y1003D01*
X739Y1003D02*
X745Y1003D01*
X767Y1003D02*
X773Y1003D01*
X785Y1003D02*
X791Y1003D01*
X2192Y1003D02*
X2199Y1003D01*
X1Y1002D02*
X8Y1002D01*
X663Y1002D02*
X669Y1002D01*
X690Y1002D02*
X696Y1002D01*
X713Y1002D02*
X718Y1002D01*
X731Y1002D02*
X745Y1002D01*
X767Y1002D02*
X773Y1002D01*
X784Y1002D02*
X791Y1002D01*
X2192Y1002D02*
X2199Y1002D01*
X1Y1001D02*
X8Y1001D01*
X663Y1001D02*
X669Y1001D01*
X690Y1001D02*
X696Y1001D01*
X713Y1001D02*
X718Y1001D01*
X732Y1001D02*
X745Y1001D01*
X767Y1001D02*
X773Y1001D01*
X784Y1001D02*
X790Y1001D01*
X2192Y1001D02*
X2199Y1001D01*
X1Y1000D02*
X8Y1000D01*
X663Y1000D02*
X669Y1000D01*
X690Y1000D02*
X696Y1000D01*
X713Y1000D02*
X718Y1000D01*
X732Y1000D02*
X745Y1000D01*
X767Y1000D02*
X773Y1000D01*
X783Y1000D02*
X790Y1000D01*
X2192Y1000D02*
X2199Y1000D01*
X1Y999D02*
X8Y999D01*
X663Y999D02*
X669Y999D01*
X690Y999D02*
X696Y999D01*
X713Y999D02*
X718Y999D01*
X732Y999D02*
X745Y999D01*
X767Y999D02*
X773Y999D01*
X783Y999D02*
X789Y999D01*
X2192Y999D02*
X2199Y999D01*
X1Y998D02*
X8Y998D01*
X663Y998D02*
X669Y998D01*
X690Y998D02*
X696Y998D01*
X713Y998D02*
X718Y998D01*
X733Y998D02*
X745Y998D01*
X767Y998D02*
X773Y998D01*
X782Y998D02*
X789Y998D01*
X2192Y998D02*
X2199Y998D01*
X1Y997D02*
X8Y997D01*
X664Y997D02*
X670Y997D01*
X690Y997D02*
X696Y997D01*
X713Y997D02*
X718Y997D01*
X733Y997D02*
X745Y997D01*
X767Y997D02*
X773Y997D01*
X782Y997D02*
X788Y997D01*
X2192Y997D02*
X2199Y997D01*
X1Y996D02*
X8Y996D01*
X664Y996D02*
X670Y996D01*
X689Y996D02*
X696Y996D01*
X713Y996D02*
X718Y996D01*
X734Y996D02*
X745Y996D01*
X767Y996D02*
X773Y996D01*
X781Y996D02*
X788Y996D01*
X2192Y996D02*
X2199Y996D01*
X1Y995D02*
X8Y995D01*
X664Y995D02*
X673Y995D01*
X687Y995D02*
X696Y995D01*
X713Y995D02*
X718Y995D01*
X734Y995D02*
X745Y995D01*
X767Y995D02*
X774Y995D01*
X779Y995D02*
X787Y995D01*
X2192Y995D02*
X2199Y995D01*
X1Y994D02*
X8Y994D01*
X664Y994D02*
X695Y994D01*
X713Y994D02*
X718Y994D01*
X735Y994D02*
X745Y994D01*
X762Y994D02*
X787Y994D01*
X2192Y994D02*
X2199Y994D01*
X1Y993D02*
X8Y993D01*
X665Y993D02*
X695Y993D01*
X713Y993D02*
X718Y993D01*
X735Y993D02*
X745Y993D01*
X761Y993D02*
X786Y993D01*
X2192Y993D02*
X2199Y993D01*
X1Y992D02*
X8Y992D01*
X666Y992D02*
X694Y992D01*
X713Y992D02*
X718Y992D01*
X736Y992D02*
X745Y992D01*
X761Y992D02*
X786Y992D01*
X2192Y992D02*
X2199Y992D01*
X1Y991D02*
X8Y991D01*
X667Y991D02*
X693Y991D01*
X713Y991D02*
X718Y991D01*
X736Y991D02*
X745Y991D01*
X761Y991D02*
X785Y991D01*
X2192Y991D02*
X2199Y991D01*
X1Y990D02*
X8Y990D01*
X668Y990D02*
X692Y990D01*
X713Y990D02*
X718Y990D01*
X736Y990D02*
X745Y990D01*
X761Y990D02*
X784Y990D01*
X1797Y990D02*
X1806Y990D01*
X2192Y990D02*
X2199Y990D01*
X1Y989D02*
X8Y989D01*
X670Y989D02*
X690Y989D01*
X714Y989D02*
X717Y989D01*
X737Y989D02*
X745Y989D01*
X762Y989D02*
X782Y989D01*
X1797Y989D02*
X1806Y989D01*
X2192Y989D02*
X2199Y989D01*
X1Y988D02*
X8Y988D01*
X1797Y988D02*
X1806Y988D01*
X2192Y988D02*
X2199Y988D01*
X1Y987D02*
X8Y987D01*
X1797Y987D02*
X1806Y987D01*
X2192Y987D02*
X2199Y987D01*
X1Y986D02*
X8Y986D01*
X1797Y986D02*
X1806Y986D01*
X2192Y986D02*
X2199Y986D01*
X1Y985D02*
X8Y985D01*
X1797Y985D02*
X1806Y985D01*
X2192Y985D02*
X2199Y985D01*
X1Y984D02*
X8Y984D01*
X1797Y984D02*
X1806Y984D01*
X2192Y984D02*
X2199Y984D01*
X1Y983D02*
X8Y983D01*
X1797Y983D02*
X1806Y983D01*
X2192Y983D02*
X2199Y983D01*
X1Y982D02*
X8Y982D01*
X1797Y982D02*
X1806Y982D01*
X2192Y982D02*
X2199Y982D01*
X1Y981D02*
X8Y981D01*
X1797Y981D02*
X1806Y981D01*
X2192Y981D02*
X2199Y981D01*
X1Y980D02*
X8Y980D01*
X1797Y980D02*
X1806Y980D01*
X2192Y980D02*
X2199Y980D01*
X1Y979D02*
X8Y979D01*
X1797Y979D02*
X1806Y979D01*
X2192Y979D02*
X2199Y979D01*
X1Y978D02*
X8Y978D01*
X1797Y978D02*
X1806Y978D01*
X2192Y978D02*
X2199Y978D01*
X1Y977D02*
X8Y977D01*
X1797Y977D02*
X1806Y977D01*
X2192Y977D02*
X2199Y977D01*
X1Y976D02*
X8Y976D01*
X1797Y976D02*
X1806Y976D01*
X2192Y976D02*
X2199Y976D01*
X1Y975D02*
X8Y975D01*
X1797Y975D02*
X1806Y975D01*
X2192Y975D02*
X2199Y975D01*
X1Y974D02*
X8Y974D01*
X1797Y974D02*
X1806Y974D01*
X2192Y974D02*
X2199Y974D01*
X1Y973D02*
X8Y973D01*
X1797Y973D02*
X1806Y973D01*
X2192Y973D02*
X2199Y973D01*
X1Y972D02*
X8Y972D01*
X1797Y972D02*
X1806Y972D01*
X2192Y972D02*
X2199Y972D01*
X1Y971D02*
X8Y971D01*
X1797Y971D02*
X1806Y971D01*
X2192Y971D02*
X2199Y971D01*
X1Y970D02*
X8Y970D01*
X1797Y970D02*
X1806Y970D01*
X2192Y970D02*
X2199Y970D01*
X1Y969D02*
X8Y969D01*
X1797Y969D02*
X1806Y969D01*
X2192Y969D02*
X2199Y969D01*
X1Y968D02*
X8Y968D01*
X1797Y968D02*
X1806Y968D01*
X2192Y968D02*
X2199Y968D01*
X1Y967D02*
X8Y967D01*
X1797Y967D02*
X1806Y967D01*
X2192Y967D02*
X2199Y967D01*
X1Y966D02*
X8Y966D01*
X1797Y966D02*
X1806Y966D01*
X2192Y966D02*
X2199Y966D01*
X1Y965D02*
X8Y965D01*
X1797Y965D02*
X1806Y965D01*
X2192Y965D02*
X2199Y965D01*
X1Y964D02*
X8Y964D01*
X1797Y964D02*
X1806Y964D01*
X2192Y964D02*
X2199Y964D01*
X1Y963D02*
X8Y963D01*
X1797Y963D02*
X1806Y963D01*
X2192Y963D02*
X2199Y963D01*
X1Y962D02*
X8Y962D01*
X1797Y962D02*
X1806Y962D01*
X2192Y962D02*
X2199Y962D01*
X1Y961D02*
X8Y961D01*
X1797Y961D02*
X1806Y961D01*
X2192Y961D02*
X2199Y961D01*
X1Y960D02*
X8Y960D01*
X1797Y960D02*
X1806Y960D01*
X2192Y960D02*
X2199Y960D01*
X1Y959D02*
X8Y959D01*
X1797Y959D02*
X1806Y959D01*
X2192Y959D02*
X2199Y959D01*
X1Y958D02*
X8Y958D01*
X1797Y958D02*
X1806Y958D01*
X2192Y958D02*
X2199Y958D01*
X1Y957D02*
X8Y957D01*
X1797Y957D02*
X1806Y957D01*
X2192Y957D02*
X2199Y957D01*
X1Y956D02*
X8Y956D01*
X1797Y956D02*
X1806Y956D01*
X2192Y956D02*
X2199Y956D01*
X1Y955D02*
X8Y955D01*
X1797Y955D02*
X1806Y955D01*
X2192Y955D02*
X2199Y955D01*
X1Y954D02*
X8Y954D01*
X1797Y954D02*
X1806Y954D01*
X2192Y954D02*
X2199Y954D01*
X1Y953D02*
X8Y953D01*
X1797Y953D02*
X1806Y953D01*
X2192Y953D02*
X2199Y953D01*
X1Y952D02*
X8Y952D01*
X1797Y952D02*
X1806Y952D01*
X2192Y952D02*
X2199Y952D01*
X1Y951D02*
X8Y951D01*
X1797Y951D02*
X1806Y951D01*
X2192Y951D02*
X2199Y951D01*
X1Y950D02*
X8Y950D01*
X1797Y950D02*
X1806Y950D01*
X2192Y950D02*
X2199Y950D01*
X1Y949D02*
X8Y949D01*
X1797Y949D02*
X1806Y949D01*
X2192Y949D02*
X2199Y949D01*
X1Y948D02*
X8Y948D01*
X1797Y948D02*
X1806Y948D01*
X2192Y948D02*
X2199Y948D01*
X1Y947D02*
X8Y947D01*
X1797Y947D02*
X1806Y947D01*
X2192Y947D02*
X2199Y947D01*
X1Y946D02*
X8Y946D01*
X1797Y946D02*
X1806Y946D01*
X2192Y946D02*
X2199Y946D01*
X1Y945D02*
X8Y945D01*
X1797Y945D02*
X1806Y945D01*
X2192Y945D02*
X2199Y945D01*
X1Y944D02*
X8Y944D01*
X679Y944D02*
X694Y944D01*
X711Y944D02*
X720Y944D01*
X740Y944D02*
X743Y944D01*
X761Y944D02*
X780Y944D01*
X1797Y944D02*
X1806Y944D01*
X2192Y944D02*
X2199Y944D01*
X1Y943D02*
X8Y943D01*
X677Y943D02*
X695Y943D01*
X711Y943D02*
X720Y943D01*
X739Y943D02*
X744Y943D01*
X760Y943D02*
X782Y943D01*
X1797Y943D02*
X1806Y943D01*
X2192Y943D02*
X2199Y943D01*
X1Y942D02*
X8Y942D01*
X676Y942D02*
X695Y942D01*
X711Y942D02*
X721Y942D01*
X738Y942D02*
X744Y942D01*
X759Y942D02*
X783Y942D01*
X1797Y942D02*
X1806Y942D01*
X2192Y942D02*
X2199Y942D01*
X1Y941D02*
X8Y941D01*
X674Y941D02*
X695Y941D01*
X711Y941D02*
X721Y941D01*
X738Y941D02*
X744Y941D01*
X759Y941D02*
X784Y941D01*
X1797Y941D02*
X1806Y941D01*
X2192Y941D02*
X2199Y941D01*
X1Y940D02*
X8Y940D01*
X673Y940D02*
X695Y940D01*
X711Y940D02*
X721Y940D01*
X738Y940D02*
X744Y940D01*
X760Y940D02*
X785Y940D01*
X1797Y940D02*
X1806Y940D01*
X2192Y940D02*
X2199Y940D01*
X1Y939D02*
X8Y939D01*
X672Y939D02*
X694Y939D01*
X711Y939D02*
X722Y939D01*
X738Y939D02*
X744Y939D01*
X760Y939D02*
X786Y939D01*
X1797Y939D02*
X1806Y939D01*
X2192Y939D02*
X2199Y939D01*
X1Y938D02*
X8Y938D01*
X671Y938D02*
X692Y938D01*
X711Y938D02*
X722Y938D01*
X738Y938D02*
X744Y938D01*
X762Y938D02*
X786Y938D01*
X1797Y938D02*
X1806Y938D01*
X2192Y938D02*
X2199Y938D01*
X1Y937D02*
X8Y937D01*
X670Y937D02*
X679Y937D01*
X711Y937D02*
X723Y937D01*
X738Y937D02*
X744Y937D01*
X766Y937D02*
X772Y937D01*
X780Y937D02*
X787Y937D01*
X1797Y937D02*
X1806Y937D01*
X2192Y937D02*
X2199Y937D01*
X1Y936D02*
X8Y936D01*
X669Y936D02*
X678Y936D01*
X711Y936D02*
X723Y936D01*
X738Y936D02*
X744Y936D01*
X766Y936D02*
X772Y936D01*
X780Y936D02*
X787Y936D01*
X1797Y936D02*
X1806Y936D01*
X2192Y936D02*
X2199Y936D01*
X1Y935D02*
X8Y935D01*
X668Y935D02*
X677Y935D01*
X711Y935D02*
X724Y935D01*
X738Y935D02*
X744Y935D01*
X766Y935D02*
X772Y935D01*
X781Y935D02*
X788Y935D01*
X1741Y935D02*
X1750Y935D01*
X1797Y935D02*
X1806Y935D01*
X2192Y935D02*
X2199Y935D01*
X1Y934D02*
X8Y934D01*
X667Y934D02*
X676Y934D01*
X711Y934D02*
X724Y934D01*
X738Y934D02*
X744Y934D01*
X766Y934D02*
X772Y934D01*
X781Y934D02*
X788Y934D01*
X1738Y934D02*
X1751Y934D01*
X1797Y934D02*
X1806Y934D01*
X2192Y934D02*
X2199Y934D01*
X1Y933D02*
X8Y933D01*
X666Y933D02*
X675Y933D01*
X711Y933D02*
X724Y933D01*
X738Y933D02*
X744Y933D01*
X766Y933D02*
X772Y933D01*
X782Y933D02*
X789Y933D01*
X1735Y933D02*
X1751Y933D01*
X1797Y933D02*
X1806Y933D01*
X2192Y933D02*
X2199Y933D01*
X1Y932D02*
X8Y932D01*
X665Y932D02*
X674Y932D01*
X711Y932D02*
X725Y932D01*
X738Y932D02*
X744Y932D01*
X766Y932D02*
X772Y932D01*
X782Y932D02*
X789Y932D01*
X1733Y932D02*
X1751Y932D01*
X1797Y932D02*
X1806Y932D01*
X2192Y932D02*
X2199Y932D01*
X1Y931D02*
X8Y931D01*
X664Y931D02*
X672Y931D01*
X711Y931D02*
X717Y931D01*
X719Y931D02*
X725Y931D01*
X738Y931D02*
X744Y931D01*
X766Y931D02*
X772Y931D01*
X783Y931D02*
X790Y931D01*
X1730Y931D02*
X1750Y931D01*
X1797Y931D02*
X1806Y931D01*
X2192Y931D02*
X2199Y931D01*
X1Y930D02*
X8Y930D01*
X663Y930D02*
X671Y930D01*
X711Y930D02*
X717Y930D01*
X719Y930D02*
X726Y930D01*
X738Y930D02*
X744Y930D01*
X766Y930D02*
X772Y930D01*
X783Y930D02*
X790Y930D01*
X1728Y930D02*
X1739Y930D01*
X1797Y930D02*
X1806Y930D01*
X2192Y930D02*
X2199Y930D01*
X1Y929D02*
X8Y929D01*
X663Y929D02*
X670Y929D01*
X711Y929D02*
X717Y929D01*
X720Y929D02*
X726Y929D01*
X738Y929D02*
X744Y929D01*
X766Y929D02*
X772Y929D01*
X784Y929D02*
X791Y929D01*
X1725Y929D02*
X1737Y929D01*
X1797Y929D02*
X1806Y929D01*
X2003Y929D02*
X2004Y929D01*
X2025Y929D02*
X2026Y929D01*
X2192Y929D02*
X2199Y929D01*
X1Y928D02*
X8Y928D01*
X663Y928D02*
X669Y928D01*
X711Y928D02*
X717Y928D01*
X720Y928D02*
X727Y928D01*
X738Y928D02*
X744Y928D01*
X766Y928D02*
X772Y928D01*
X784Y928D02*
X791Y928D01*
X1723Y928D02*
X1734Y928D01*
X1797Y928D02*
X1806Y928D01*
X2002Y928D02*
X2005Y928D01*
X2024Y928D02*
X2027Y928D01*
X2192Y928D02*
X2199Y928D01*
X1Y927D02*
X8Y927D01*
X662Y927D02*
X669Y927D01*
X711Y927D02*
X717Y927D01*
X721Y927D02*
X727Y927D01*
X738Y927D02*
X744Y927D01*
X766Y927D02*
X772Y927D01*
X785Y927D02*
X792Y927D01*
X1720Y927D02*
X1732Y927D01*
X1797Y927D02*
X1806Y927D01*
X2001Y927D02*
X2006Y927D01*
X2023Y927D02*
X2028Y927D01*
X2192Y927D02*
X2199Y927D01*
X1Y926D02*
X8Y926D01*
X662Y926D02*
X668Y926D01*
X711Y926D02*
X717Y926D01*
X721Y926D02*
X728Y926D01*
X738Y926D02*
X744Y926D01*
X766Y926D02*
X772Y926D01*
X785Y926D02*
X792Y926D01*
X1718Y926D02*
X1729Y926D01*
X1797Y926D02*
X1806Y926D01*
X2001Y926D02*
X2006Y926D01*
X2023Y926D02*
X2028Y926D01*
X2192Y926D02*
X2199Y926D01*
X1Y925D02*
X8Y925D01*
X662Y925D02*
X668Y925D01*
X711Y925D02*
X717Y925D01*
X721Y925D02*
X728Y925D01*
X738Y925D02*
X744Y925D01*
X766Y925D02*
X772Y925D01*
X786Y925D02*
X793Y925D01*
X1717Y925D02*
X1727Y925D01*
X1797Y925D02*
X1806Y925D01*
X2001Y925D02*
X2006Y925D01*
X2023Y925D02*
X2028Y925D01*
X2192Y925D02*
X2199Y925D01*
X1Y924D02*
X8Y924D01*
X662Y924D02*
X668Y924D01*
X711Y924D02*
X717Y924D01*
X722Y924D02*
X728Y924D01*
X738Y924D02*
X744Y924D01*
X766Y924D02*
X772Y924D01*
X786Y924D02*
X793Y924D01*
X1717Y924D02*
X1725Y924D01*
X1797Y924D02*
X1806Y924D01*
X2001Y924D02*
X2006Y924D01*
X2023Y924D02*
X2028Y924D01*
X2192Y924D02*
X2199Y924D01*
X1Y923D02*
X8Y923D01*
X662Y923D02*
X668Y923D01*
X711Y923D02*
X717Y923D01*
X722Y923D02*
X729Y923D01*
X738Y923D02*
X744Y923D01*
X766Y923D02*
X772Y923D01*
X787Y923D02*
X793Y923D01*
X1717Y923D02*
X1727Y923D01*
X2001Y923D02*
X2006Y923D01*
X2023Y923D02*
X2028Y923D01*
X2192Y923D02*
X2199Y923D01*
X1Y922D02*
X8Y922D01*
X662Y922D02*
X668Y922D01*
X711Y922D02*
X717Y922D01*
X723Y922D02*
X729Y922D01*
X738Y922D02*
X744Y922D01*
X766Y922D02*
X772Y922D01*
X787Y922D02*
X794Y922D01*
X1718Y922D02*
X1730Y922D01*
X2001Y922D02*
X2006Y922D01*
X2023Y922D02*
X2028Y922D01*
X2192Y922D02*
X2199Y922D01*
X1Y921D02*
X8Y921D01*
X662Y921D02*
X668Y921D01*
X711Y921D02*
X717Y921D01*
X723Y921D02*
X730Y921D01*
X738Y921D02*
X744Y921D01*
X766Y921D02*
X772Y921D01*
X788Y921D02*
X794Y921D01*
X1721Y921D02*
X1732Y921D01*
X2001Y921D02*
X2006Y921D01*
X2023Y921D02*
X2028Y921D01*
X2054Y921D02*
X2055Y921D01*
X2192Y921D02*
X2199Y921D01*
X1Y920D02*
X8Y920D01*
X662Y920D02*
X668Y920D01*
X711Y920D02*
X717Y920D01*
X724Y920D02*
X730Y920D01*
X738Y920D02*
X744Y920D01*
X766Y920D02*
X772Y920D01*
X788Y920D02*
X794Y920D01*
X1723Y920D02*
X1735Y920D01*
X2001Y920D02*
X2006Y920D01*
X2023Y920D02*
X2028Y920D01*
X2053Y920D02*
X2056Y920D01*
X2192Y920D02*
X2199Y920D01*
X1Y919D02*
X8Y919D01*
X662Y919D02*
X668Y919D01*
X711Y919D02*
X717Y919D01*
X724Y919D02*
X731Y919D01*
X738Y919D02*
X744Y919D01*
X766Y919D02*
X772Y919D01*
X788Y919D02*
X794Y919D01*
X1726Y919D02*
X1737Y919D01*
X2001Y919D02*
X2006Y919D01*
X2023Y919D02*
X2028Y919D01*
X2052Y919D02*
X2057Y919D01*
X2192Y919D02*
X2199Y919D01*
X1Y918D02*
X8Y918D01*
X662Y918D02*
X668Y918D01*
X678Y918D02*
X693Y918D01*
X711Y918D02*
X717Y918D01*
X725Y918D02*
X731Y918D01*
X738Y918D02*
X744Y918D01*
X766Y918D02*
X772Y918D01*
X788Y918D02*
X794Y918D01*
X1728Y918D02*
X1740Y918D01*
X2001Y918D02*
X2006Y918D01*
X2023Y918D02*
X2028Y918D01*
X2052Y918D02*
X2057Y918D01*
X2192Y918D02*
X2199Y918D01*
X1Y917D02*
X8Y917D01*
X662Y917D02*
X668Y917D01*
X677Y917D02*
X694Y917D01*
X711Y917D02*
X717Y917D01*
X725Y917D02*
X731Y917D01*
X738Y917D02*
X744Y917D01*
X766Y917D02*
X772Y917D01*
X788Y917D02*
X794Y917D01*
X1731Y917D02*
X1750Y917D01*
X2001Y917D02*
X2006Y917D01*
X2023Y917D02*
X2028Y917D01*
X2052Y917D02*
X2057Y917D01*
X2192Y917D02*
X2199Y917D01*
X1Y916D02*
X8Y916D01*
X662Y916D02*
X668Y916D01*
X677Y916D02*
X695Y916D01*
X711Y916D02*
X717Y916D01*
X725Y916D02*
X732Y916D01*
X738Y916D02*
X744Y916D01*
X766Y916D02*
X772Y916D01*
X788Y916D02*
X794Y916D01*
X1734Y916D02*
X1751Y916D01*
X2001Y916D02*
X2006Y916D01*
X2023Y916D02*
X2028Y916D01*
X2052Y916D02*
X2057Y916D01*
X2192Y916D02*
X2199Y916D01*
X1Y915D02*
X8Y915D01*
X662Y915D02*
X668Y915D01*
X677Y915D02*
X695Y915D01*
X711Y915D02*
X717Y915D01*
X726Y915D02*
X732Y915D01*
X738Y915D02*
X744Y915D01*
X766Y915D02*
X772Y915D01*
X788Y915D02*
X794Y915D01*
X1736Y915D02*
X1751Y915D01*
X2002Y915D02*
X2007Y915D01*
X2022Y915D02*
X2027Y915D01*
X2052Y915D02*
X2057Y915D01*
X2192Y915D02*
X2199Y915D01*
X1Y914D02*
X8Y914D01*
X662Y914D02*
X668Y914D01*
X677Y914D02*
X695Y914D01*
X711Y914D02*
X717Y914D01*
X726Y914D02*
X733Y914D01*
X738Y914D02*
X744Y914D01*
X766Y914D02*
X772Y914D01*
X787Y914D02*
X793Y914D01*
X1739Y914D02*
X1751Y914D01*
X2002Y914D02*
X2007Y914D01*
X2022Y914D02*
X2027Y914D01*
X2052Y914D02*
X2057Y914D01*
X2192Y914D02*
X2199Y914D01*
X1Y913D02*
X8Y913D01*
X662Y913D02*
X668Y913D01*
X678Y913D02*
X695Y913D01*
X711Y913D02*
X717Y913D01*
X727Y913D02*
X733Y913D01*
X738Y913D02*
X744Y913D01*
X766Y913D02*
X772Y913D01*
X787Y913D02*
X793Y913D01*
X1741Y913D02*
X1750Y913D01*
X2003Y913D02*
X2008Y913D01*
X2021Y913D02*
X2026Y913D01*
X2052Y913D02*
X2057Y913D01*
X2192Y913D02*
X2199Y913D01*
X1Y912D02*
X8Y912D01*
X662Y912D02*
X668Y912D01*
X679Y912D02*
X695Y912D01*
X711Y912D02*
X717Y912D01*
X727Y912D02*
X734Y912D01*
X738Y912D02*
X744Y912D01*
X766Y912D02*
X772Y912D01*
X786Y912D02*
X793Y912D01*
X2003Y912D02*
X2008Y912D01*
X2021Y912D02*
X2026Y912D01*
X2052Y912D02*
X2057Y912D01*
X2192Y912D02*
X2199Y912D01*
X1Y911D02*
X8Y911D01*
X662Y911D02*
X668Y911D01*
X689Y911D02*
X695Y911D01*
X711Y911D02*
X717Y911D01*
X728Y911D02*
X734Y911D01*
X738Y911D02*
X744Y911D01*
X766Y911D02*
X772Y911D01*
X786Y911D02*
X792Y911D01*
X2003Y911D02*
X2008Y911D01*
X2021Y911D02*
X2026Y911D01*
X2052Y911D02*
X2057Y911D01*
X2192Y911D02*
X2199Y911D01*
X1Y910D02*
X8Y910D01*
X662Y910D02*
X668Y910D01*
X689Y910D02*
X695Y910D01*
X711Y910D02*
X717Y910D01*
X728Y910D02*
X735Y910D01*
X738Y910D02*
X744Y910D01*
X766Y910D02*
X772Y910D01*
X785Y910D02*
X792Y910D01*
X2004Y910D02*
X2009Y910D01*
X2020Y910D02*
X2025Y910D01*
X2043Y910D02*
X2066Y910D01*
X2192Y910D02*
X2199Y910D01*
X1Y909D02*
X8Y909D01*
X662Y909D02*
X668Y909D01*
X689Y909D02*
X695Y909D01*
X711Y909D02*
X717Y909D01*
X728Y909D02*
X735Y909D01*
X738Y909D02*
X744Y909D01*
X766Y909D02*
X772Y909D01*
X785Y909D02*
X791Y909D01*
X2004Y909D02*
X2009Y909D01*
X2020Y909D02*
X2025Y909D01*
X2042Y909D02*
X2067Y909D01*
X2192Y909D02*
X2199Y909D01*
X1Y908D02*
X8Y908D01*
X662Y908D02*
X668Y908D01*
X689Y908D02*
X695Y908D01*
X711Y908D02*
X717Y908D01*
X729Y908D02*
X735Y908D01*
X738Y908D02*
X744Y908D01*
X766Y908D02*
X772Y908D01*
X784Y908D02*
X791Y908D01*
X2004Y908D02*
X2010Y908D01*
X2019Y908D02*
X2024Y908D01*
X2041Y908D02*
X2068Y908D01*
X2192Y908D02*
X2199Y908D01*
X1Y907D02*
X8Y907D01*
X662Y907D02*
X668Y907D01*
X689Y907D02*
X695Y907D01*
X711Y907D02*
X717Y907D01*
X729Y907D02*
X736Y907D01*
X738Y907D02*
X744Y907D01*
X766Y907D02*
X772Y907D01*
X784Y907D02*
X790Y907D01*
X2005Y907D02*
X2010Y907D01*
X2019Y907D02*
X2024Y907D01*
X2041Y907D02*
X2068Y907D01*
X2192Y907D02*
X2199Y907D01*
X1Y906D02*
X8Y906D01*
X662Y906D02*
X668Y906D01*
X689Y906D02*
X695Y906D01*
X711Y906D02*
X717Y906D01*
X730Y906D02*
X736Y906D01*
X738Y906D02*
X744Y906D01*
X766Y906D02*
X772Y906D01*
X783Y906D02*
X790Y906D01*
X2005Y906D02*
X2010Y906D01*
X2019Y906D02*
X2024Y906D01*
X2042Y906D02*
X2067Y906D01*
X2192Y906D02*
X2199Y906D01*
X1Y905D02*
X8Y905D01*
X662Y905D02*
X668Y905D01*
X689Y905D02*
X695Y905D01*
X711Y905D02*
X717Y905D01*
X730Y905D02*
X744Y905D01*
X766Y905D02*
X772Y905D01*
X783Y905D02*
X789Y905D01*
X2006Y905D02*
X2011Y905D01*
X2018Y905D02*
X2023Y905D01*
X2044Y905D02*
X2065Y905D01*
X2192Y905D02*
X2199Y905D01*
X1Y904D02*
X8Y904D01*
X662Y904D02*
X668Y904D01*
X689Y904D02*
X695Y904D01*
X711Y904D02*
X717Y904D01*
X731Y904D02*
X744Y904D01*
X766Y904D02*
X772Y904D01*
X782Y904D02*
X789Y904D01*
X2006Y904D02*
X2011Y904D01*
X2018Y904D02*
X2023Y904D01*
X2052Y904D02*
X2057Y904D01*
X2192Y904D02*
X2199Y904D01*
X1Y903D02*
X8Y903D01*
X662Y903D02*
X668Y903D01*
X689Y903D02*
X695Y903D01*
X711Y903D02*
X717Y903D01*
X731Y903D02*
X744Y903D01*
X766Y903D02*
X772Y903D01*
X782Y903D02*
X788Y903D01*
X2006Y903D02*
X2011Y903D01*
X2017Y903D02*
X2022Y903D01*
X2052Y903D02*
X2057Y903D01*
X2192Y903D02*
X2199Y903D01*
X1Y902D02*
X8Y902D01*
X662Y902D02*
X668Y902D01*
X689Y902D02*
X695Y902D01*
X711Y902D02*
X717Y902D01*
X732Y902D02*
X744Y902D01*
X766Y902D02*
X772Y902D01*
X781Y902D02*
X788Y902D01*
X1733Y902D02*
X1735Y902D01*
X2007Y902D02*
X2012Y902D01*
X2017Y902D02*
X2022Y902D01*
X2052Y902D02*
X2057Y902D01*
X2192Y902D02*
X2199Y902D01*
X1Y901D02*
X8Y901D01*
X662Y901D02*
X668Y901D01*
X689Y901D02*
X695Y901D01*
X711Y901D02*
X717Y901D01*
X732Y901D02*
X744Y901D01*
X766Y901D02*
X772Y901D01*
X780Y901D02*
X787Y901D01*
X1732Y901D02*
X1736Y901D01*
X2007Y901D02*
X2012Y901D01*
X2017Y901D02*
X2022Y901D01*
X2052Y901D02*
X2057Y901D01*
X2192Y901D02*
X2199Y901D01*
X1Y900D02*
X8Y900D01*
X662Y900D02*
X669Y900D01*
X688Y900D02*
X695Y900D01*
X711Y900D02*
X717Y900D01*
X732Y900D02*
X744Y900D01*
X766Y900D02*
X772Y900D01*
X780Y900D02*
X787Y900D01*
X1732Y900D02*
X1736Y900D01*
X2008Y900D02*
X2013Y900D01*
X2016Y900D02*
X2021Y900D01*
X2052Y900D02*
X2057Y900D01*
X2192Y900D02*
X2199Y900D01*
X1Y899D02*
X8Y899D01*
X663Y899D02*
X670Y899D01*
X687Y899D02*
X694Y899D01*
X711Y899D02*
X717Y899D01*
X733Y899D02*
X744Y899D01*
X766Y899D02*
X772Y899D01*
X779Y899D02*
X786Y899D01*
X1732Y899D02*
X1736Y899D01*
X2008Y899D02*
X2013Y899D01*
X2016Y899D02*
X2021Y899D01*
X2052Y899D02*
X2057Y899D01*
X2192Y899D02*
X2199Y899D01*
X1Y898D02*
X8Y898D01*
X663Y898D02*
X694Y898D01*
X711Y898D02*
X717Y898D01*
X733Y898D02*
X744Y898D01*
X761Y898D02*
X786Y898D01*
X1732Y898D02*
X1736Y898D01*
X2008Y898D02*
X2013Y898D01*
X2015Y898D02*
X2020Y898D01*
X2052Y898D02*
X2057Y898D01*
X2192Y898D02*
X2199Y898D01*
X1Y897D02*
X8Y897D01*
X664Y897D02*
X694Y897D01*
X711Y897D02*
X717Y897D01*
X734Y897D02*
X744Y897D01*
X760Y897D02*
X785Y897D01*
X1732Y897D02*
X1736Y897D01*
X2009Y897D02*
X2020Y897D01*
X2052Y897D02*
X2057Y897D01*
X2192Y897D02*
X2199Y897D01*
X1Y896D02*
X8Y896D01*
X664Y896D02*
X693Y896D01*
X711Y896D02*
X717Y896D01*
X734Y896D02*
X744Y896D01*
X759Y896D02*
X784Y896D01*
X1732Y896D02*
X1736Y896D01*
X2009Y896D02*
X2020Y896D01*
X2052Y896D02*
X2057Y896D01*
X2192Y896D02*
X2199Y896D01*
X1Y895D02*
X8Y895D01*
X665Y895D02*
X692Y895D01*
X711Y895D02*
X717Y895D01*
X735Y895D02*
X744Y895D01*
X759Y895D02*
X784Y895D01*
X1732Y895D02*
X1736Y895D01*
X2010Y895D02*
X2019Y895D01*
X2053Y895D02*
X2056Y895D01*
X2192Y895D02*
X2199Y895D01*
X1Y894D02*
X8Y894D01*
X666Y894D02*
X691Y894D01*
X712Y894D02*
X717Y894D01*
X735Y894D02*
X744Y894D01*
X760Y894D02*
X783Y894D01*
X1732Y894D02*
X1736Y894D01*
X2010Y894D02*
X2019Y894D01*
X2192Y894D02*
X2199Y894D01*
X1Y893D02*
X8Y893D01*
X668Y893D02*
X689Y893D01*
X712Y893D02*
X716Y893D01*
X736Y893D02*
X744Y893D01*
X760Y893D02*
X781Y893D01*
X1724Y893D02*
X1744Y893D01*
X2010Y893D02*
X2019Y893D01*
X2192Y893D02*
X2199Y893D01*
X1Y892D02*
X8Y892D01*
X671Y892D02*
X686Y892D01*
X714Y892D02*
X714Y892D01*
X737Y892D02*
X743Y892D01*
X762Y892D02*
X777Y892D01*
X1723Y892D02*
X1745Y892D01*
X2011Y892D02*
X2018Y892D01*
X2192Y892D02*
X2199Y892D01*
X1Y891D02*
X8Y891D01*
X1723Y891D02*
X1745Y891D01*
X2011Y891D02*
X2018Y891D01*
X2192Y891D02*
X2199Y891D01*
X1Y890D02*
X8Y890D01*
X1724Y890D02*
X1744Y890D01*
X1893Y890D02*
X1895Y890D01*
X1924Y890D02*
X1928Y890D01*
X2011Y890D02*
X2017Y890D01*
X2192Y890D02*
X2199Y890D01*
X1Y889D02*
X8Y889D01*
X1732Y889D02*
X1736Y889D01*
X1891Y889D02*
X1896Y889D01*
X1923Y889D02*
X1929Y889D01*
X2012Y889D02*
X2017Y889D01*
X2192Y889D02*
X2199Y889D01*
X1Y888D02*
X8Y888D01*
X1732Y888D02*
X1736Y888D01*
X1891Y888D02*
X1897Y888D01*
X1923Y888D02*
X1930Y888D01*
X2012Y888D02*
X2017Y888D01*
X2192Y888D02*
X2199Y888D01*
X1Y887D02*
X8Y887D01*
X1732Y887D02*
X1736Y887D01*
X1890Y887D02*
X1897Y887D01*
X1922Y887D02*
X1930Y887D01*
X2013Y887D02*
X2016Y887D01*
X2192Y887D02*
X2199Y887D01*
X1Y886D02*
X8Y886D01*
X1732Y886D02*
X1736Y886D01*
X1889Y886D02*
X1897Y886D01*
X1922Y886D02*
X1931Y886D01*
X2192Y886D02*
X2199Y886D01*
X1Y885D02*
X8Y885D01*
X1732Y885D02*
X1736Y885D01*
X1888Y885D02*
X1897Y885D01*
X1923Y885D02*
X1932Y885D01*
X2192Y885D02*
X2199Y885D01*
X1Y884D02*
X8Y884D01*
X1732Y884D02*
X1736Y884D01*
X1887Y884D02*
X1897Y884D01*
X1924Y884D02*
X1933Y884D01*
X2192Y884D02*
X2199Y884D01*
X1Y883D02*
X8Y883D01*
X1732Y883D02*
X1736Y883D01*
X1887Y883D02*
X1896Y883D01*
X1924Y883D02*
X1934Y883D01*
X2192Y883D02*
X2199Y883D01*
X1Y882D02*
X8Y882D01*
X1732Y882D02*
X1736Y882D01*
X1886Y882D02*
X1895Y882D01*
X1925Y882D02*
X1934Y882D01*
X2192Y882D02*
X2199Y882D01*
X1Y881D02*
X8Y881D01*
X1733Y881D02*
X1735Y881D01*
X1885Y881D02*
X1894Y881D01*
X1926Y881D02*
X1935Y881D01*
X2192Y881D02*
X2199Y881D01*
X1Y880D02*
X8Y880D01*
X1885Y880D02*
X1893Y880D01*
X1927Y880D02*
X1936Y880D01*
X2192Y880D02*
X2199Y880D01*
X1Y879D02*
X8Y879D01*
X1884Y879D02*
X1893Y879D01*
X1928Y879D02*
X1936Y879D01*
X2192Y879D02*
X2199Y879D01*
X1Y878D02*
X8Y878D01*
X1883Y878D02*
X1892Y878D01*
X1928Y878D02*
X1937Y878D01*
X2192Y878D02*
X2199Y878D01*
X1Y877D02*
X8Y877D01*
X1883Y877D02*
X1891Y877D01*
X1929Y877D02*
X1937Y877D01*
X2192Y877D02*
X2199Y877D01*
X1Y876D02*
X8Y876D01*
X1882Y876D02*
X1891Y876D01*
X1930Y876D02*
X1938Y876D01*
X2192Y876D02*
X2199Y876D01*
X1Y875D02*
X8Y875D01*
X1882Y875D02*
X1890Y875D01*
X1930Y875D02*
X1939Y875D01*
X2192Y875D02*
X2199Y875D01*
X1Y874D02*
X8Y874D01*
X1881Y874D02*
X1889Y874D01*
X1931Y874D02*
X1939Y874D01*
X2192Y874D02*
X2199Y874D01*
X1Y873D02*
X8Y873D01*
X1881Y873D02*
X1889Y873D01*
X1932Y873D02*
X1940Y873D01*
X2192Y873D02*
X2199Y873D01*
X1Y872D02*
X8Y872D01*
X1880Y872D02*
X1888Y872D01*
X1932Y872D02*
X1940Y872D01*
X2192Y872D02*
X2199Y872D01*
X1Y871D02*
X8Y871D01*
X1880Y871D02*
X1887Y871D01*
X1933Y871D02*
X1941Y871D01*
X2192Y871D02*
X2199Y871D01*
X1Y870D02*
X8Y870D01*
X1879Y870D02*
X1887Y870D01*
X1933Y870D02*
X1941Y870D01*
X2192Y870D02*
X2199Y870D01*
X1Y869D02*
X8Y869D01*
X1879Y869D02*
X1886Y869D01*
X1934Y869D02*
X1942Y869D01*
X2192Y869D02*
X2199Y869D01*
X1Y868D02*
X8Y868D01*
X1878Y868D02*
X1886Y868D01*
X1934Y868D02*
X1942Y868D01*
X2192Y868D02*
X2199Y868D01*
X1Y867D02*
X8Y867D01*
X1878Y867D02*
X1885Y867D01*
X1935Y867D02*
X1942Y867D01*
X2192Y867D02*
X2199Y867D01*
X1Y866D02*
X8Y866D01*
X1877Y866D02*
X1885Y866D01*
X1935Y866D02*
X1943Y866D01*
X2192Y866D02*
X2199Y866D01*
X1Y865D02*
X8Y865D01*
X1877Y865D02*
X1884Y865D01*
X1936Y865D02*
X1943Y865D01*
X2192Y865D02*
X2199Y865D01*
X1Y864D02*
X8Y864D01*
X1877Y864D02*
X1884Y864D01*
X1936Y864D02*
X1944Y864D01*
X2192Y864D02*
X2199Y864D01*
X1Y863D02*
X8Y863D01*
X1876Y863D02*
X1884Y863D01*
X1937Y863D02*
X1944Y863D01*
X2131Y863D02*
X2182Y863D01*
X2192Y863D02*
X2199Y863D01*
X1Y862D02*
X8Y862D01*
X1876Y862D02*
X1883Y862D01*
X1937Y862D02*
X1944Y862D01*
X2130Y862D02*
X2182Y862D01*
X2192Y862D02*
X2199Y862D01*
X1Y861D02*
X8Y861D01*
X1876Y861D02*
X1883Y861D01*
X1937Y861D02*
X1945Y861D01*
X2130Y861D02*
X2182Y861D01*
X2192Y861D02*
X2199Y861D01*
X1Y860D02*
X8Y860D01*
X1875Y860D02*
X1882Y860D01*
X1938Y860D02*
X1945Y860D01*
X2129Y860D02*
X2182Y860D01*
X2192Y860D02*
X2199Y860D01*
X1Y859D02*
X8Y859D01*
X1875Y859D02*
X1882Y859D01*
X1938Y859D02*
X1945Y859D01*
X2129Y859D02*
X2182Y859D01*
X2192Y859D02*
X2199Y859D01*
X1Y858D02*
X8Y858D01*
X1875Y858D02*
X1882Y858D01*
X1938Y858D02*
X1945Y858D01*
X2130Y858D02*
X2182Y858D01*
X2192Y858D02*
X2199Y858D01*
X1Y857D02*
X8Y857D01*
X1874Y857D02*
X1881Y857D01*
X1939Y857D02*
X1946Y857D01*
X2131Y857D02*
X2182Y857D01*
X2192Y857D02*
X2199Y857D01*
X1Y856D02*
X8Y856D01*
X1874Y856D02*
X1881Y856D01*
X1939Y856D02*
X1946Y856D01*
X2159Y856D02*
X2165Y856D01*
X2176Y856D02*
X2182Y856D01*
X2192Y856D02*
X2199Y856D01*
X1Y855D02*
X8Y855D01*
X1874Y855D02*
X1881Y855D01*
X1939Y855D02*
X1946Y855D01*
X2159Y855D02*
X2165Y855D01*
X2176Y855D02*
X2182Y855D01*
X2192Y855D02*
X2199Y855D01*
X1Y854D02*
X8Y854D01*
X1874Y854D02*
X1881Y854D01*
X1940Y854D02*
X1946Y854D01*
X2159Y854D02*
X2165Y854D01*
X2176Y854D02*
X2182Y854D01*
X2192Y854D02*
X2199Y854D01*
X1Y853D02*
X8Y853D01*
X1874Y853D02*
X1880Y853D01*
X1940Y853D02*
X1947Y853D01*
X2159Y853D02*
X2165Y853D01*
X2176Y853D02*
X2182Y853D01*
X2192Y853D02*
X2199Y853D01*
X1Y852D02*
X8Y852D01*
X1873Y852D02*
X1880Y852D01*
X1940Y852D02*
X1947Y852D01*
X2159Y852D02*
X2165Y852D01*
X2176Y852D02*
X2182Y852D01*
X2192Y852D02*
X2199Y852D01*
X1Y851D02*
X8Y851D01*
X1873Y851D02*
X1880Y851D01*
X1940Y851D02*
X1947Y851D01*
X2158Y851D02*
X2165Y851D01*
X2176Y851D02*
X2182Y851D01*
X2192Y851D02*
X2199Y851D01*
X1Y850D02*
X8Y850D01*
X1873Y850D02*
X1880Y850D01*
X1941Y850D02*
X1947Y850D01*
X2156Y850D02*
X2165Y850D01*
X2176Y850D02*
X2182Y850D01*
X2192Y850D02*
X2199Y850D01*
X1Y849D02*
X8Y849D01*
X1873Y849D02*
X1879Y849D01*
X1941Y849D02*
X1947Y849D01*
X2154Y849D02*
X2165Y849D01*
X2176Y849D02*
X2182Y849D01*
X2192Y849D02*
X2199Y849D01*
X1Y848D02*
X8Y848D01*
X1873Y848D02*
X1879Y848D01*
X1941Y848D02*
X1947Y848D01*
X2153Y848D02*
X2165Y848D01*
X2176Y848D02*
X2182Y848D01*
X2192Y848D02*
X2199Y848D01*
X1Y847D02*
X8Y847D01*
X1873Y847D02*
X1879Y847D01*
X1941Y847D02*
X1948Y847D01*
X2151Y847D02*
X2165Y847D01*
X2176Y847D02*
X2182Y847D01*
X2192Y847D02*
X2199Y847D01*
X1Y846D02*
X8Y846D01*
X1872Y846D02*
X1879Y846D01*
X1941Y846D02*
X1948Y846D01*
X2149Y846D02*
X2165Y846D01*
X2176Y846D02*
X2182Y846D01*
X2192Y846D02*
X2199Y846D01*
X1Y845D02*
X8Y845D01*
X1872Y845D02*
X1879Y845D01*
X1941Y845D02*
X1948Y845D01*
X2147Y845D02*
X2165Y845D01*
X2176Y845D02*
X2182Y845D01*
X2192Y845D02*
X2199Y845D01*
X1Y844D02*
X8Y844D01*
X1872Y844D02*
X1879Y844D01*
X1941Y844D02*
X1948Y844D01*
X2146Y844D02*
X2165Y844D01*
X2176Y844D02*
X2182Y844D01*
X2192Y844D02*
X2199Y844D01*
X1Y843D02*
X8Y843D01*
X1872Y843D02*
X1879Y843D01*
X1942Y843D02*
X1948Y843D01*
X2144Y843D02*
X2157Y843D01*
X2159Y843D02*
X2165Y843D01*
X2176Y843D02*
X2182Y843D01*
X2192Y843D02*
X2199Y843D01*
X1Y842D02*
X8Y842D01*
X1872Y842D02*
X1879Y842D01*
X1942Y842D02*
X1948Y842D01*
X2142Y842D02*
X2155Y842D01*
X2159Y842D02*
X2165Y842D01*
X2176Y842D02*
X2182Y842D01*
X2192Y842D02*
X2199Y842D01*
X1Y841D02*
X8Y841D01*
X1872Y841D02*
X1879Y841D01*
X1942Y841D02*
X1948Y841D01*
X2141Y841D02*
X2154Y841D01*
X2159Y841D02*
X2165Y841D01*
X2176Y841D02*
X2182Y841D01*
X2192Y841D02*
X2199Y841D01*
X1Y840D02*
X8Y840D01*
X1872Y840D02*
X1879Y840D01*
X1942Y840D02*
X1948Y840D01*
X2139Y840D02*
X2152Y840D01*
X2159Y840D02*
X2165Y840D01*
X2176Y840D02*
X2182Y840D01*
X2192Y840D02*
X2199Y840D01*
X1Y839D02*
X8Y839D01*
X1872Y839D02*
X1878Y839D01*
X1942Y839D02*
X1948Y839D01*
X2137Y839D02*
X2150Y839D01*
X2159Y839D02*
X2165Y839D01*
X2176Y839D02*
X2182Y839D01*
X2192Y839D02*
X2199Y839D01*
X1Y838D02*
X8Y838D01*
X1872Y838D02*
X1878Y838D01*
X1942Y838D02*
X1948Y838D01*
X2135Y838D02*
X2148Y838D01*
X2159Y838D02*
X2165Y838D01*
X2176Y838D02*
X2182Y838D01*
X2192Y838D02*
X2199Y838D01*
X1Y837D02*
X8Y837D01*
X1872Y837D02*
X1878Y837D01*
X1942Y837D02*
X1948Y837D01*
X2134Y837D02*
X2147Y837D01*
X2159Y837D02*
X2166Y837D01*
X2175Y837D02*
X2182Y837D01*
X2192Y837D02*
X2199Y837D01*
X1Y836D02*
X8Y836D01*
X1872Y836D02*
X1878Y836D01*
X1942Y836D02*
X1948Y836D01*
X2132Y836D02*
X2145Y836D01*
X2159Y836D02*
X2168Y836D01*
X2174Y836D02*
X2182Y836D01*
X2192Y836D02*
X2199Y836D01*
X1Y835D02*
X8Y835D01*
X1872Y835D02*
X1878Y835D01*
X1942Y835D02*
X1948Y835D01*
X2131Y835D02*
X2143Y835D01*
X2160Y835D02*
X2181Y835D01*
X2192Y835D02*
X2199Y835D01*
X1Y834D02*
X8Y834D01*
X1872Y834D02*
X1878Y834D01*
X1942Y834D02*
X1948Y834D01*
X2130Y834D02*
X2142Y834D01*
X2160Y834D02*
X2181Y834D01*
X2192Y834D02*
X2199Y834D01*
X1Y833D02*
X8Y833D01*
X1872Y833D02*
X1879Y833D01*
X1942Y833D02*
X1948Y833D01*
X2129Y833D02*
X2140Y833D01*
X2161Y833D02*
X2180Y833D01*
X2192Y833D02*
X2199Y833D01*
X1Y832D02*
X8Y832D01*
X1872Y832D02*
X1879Y832D01*
X1942Y832D02*
X1948Y832D01*
X2129Y832D02*
X2138Y832D01*
X2162Y832D02*
X2179Y832D01*
X2192Y832D02*
X2199Y832D01*
X1Y831D02*
X8Y831D01*
X1872Y831D02*
X1879Y831D01*
X1942Y831D02*
X1948Y831D01*
X2130Y831D02*
X2136Y831D01*
X2163Y831D02*
X2178Y831D01*
X2192Y831D02*
X2199Y831D01*
X1Y830D02*
X8Y830D01*
X1872Y830D02*
X1879Y830D01*
X1942Y830D02*
X1948Y830D01*
X2130Y830D02*
X2135Y830D01*
X2165Y830D02*
X2177Y830D01*
X2192Y830D02*
X2199Y830D01*
X1Y829D02*
X8Y829D01*
X1872Y829D02*
X1879Y829D01*
X1941Y829D02*
X1948Y829D01*
X2132Y829D02*
X2133Y829D01*
X2168Y829D02*
X2173Y829D01*
X2192Y829D02*
X2199Y829D01*
X1Y828D02*
X8Y828D01*
X1872Y828D02*
X1879Y828D01*
X1941Y828D02*
X1948Y828D01*
X2192Y828D02*
X2199Y828D01*
X1Y827D02*
X8Y827D01*
X1873Y827D02*
X1879Y827D01*
X1941Y827D02*
X1948Y827D01*
X2192Y827D02*
X2199Y827D01*
X1Y826D02*
X8Y826D01*
X1873Y826D02*
X1879Y826D01*
X1941Y826D02*
X1948Y826D01*
X2192Y826D02*
X2199Y826D01*
X1Y825D02*
X8Y825D01*
X1873Y825D02*
X1879Y825D01*
X1941Y825D02*
X1947Y825D01*
X2192Y825D02*
X2199Y825D01*
X1Y824D02*
X8Y824D01*
X1873Y824D02*
X1880Y824D01*
X1941Y824D02*
X1947Y824D01*
X2192Y824D02*
X2199Y824D01*
X1Y823D02*
X8Y823D01*
X1873Y823D02*
X1880Y823D01*
X1940Y823D02*
X1947Y823D01*
X2192Y823D02*
X2199Y823D01*
X1Y822D02*
X8Y822D01*
X1873Y822D02*
X1880Y822D01*
X1940Y822D02*
X1947Y822D01*
X2192Y822D02*
X2199Y822D01*
X1Y821D02*
X8Y821D01*
X1873Y821D02*
X1880Y821D01*
X1940Y821D02*
X1947Y821D01*
X2192Y821D02*
X2199Y821D01*
X1Y820D02*
X8Y820D01*
X1874Y820D02*
X1880Y820D01*
X1940Y820D02*
X1947Y820D01*
X2192Y820D02*
X2199Y820D01*
X1Y819D02*
X8Y819D01*
X1874Y819D02*
X1881Y819D01*
X1940Y819D02*
X1946Y819D01*
X2192Y819D02*
X2199Y819D01*
X1Y818D02*
X8Y818D01*
X1874Y818D02*
X1881Y818D01*
X1939Y818D02*
X1946Y818D01*
X2192Y818D02*
X2199Y818D01*
X1Y817D02*
X8Y817D01*
X1874Y817D02*
X1881Y817D01*
X1939Y817D02*
X1946Y817D01*
X2192Y817D02*
X2199Y817D01*
X1Y816D02*
X8Y816D01*
X1875Y816D02*
X1882Y816D01*
X1939Y816D02*
X1946Y816D01*
X2192Y816D02*
X2199Y816D01*
X1Y815D02*
X8Y815D01*
X1875Y815D02*
X1882Y815D01*
X1938Y815D02*
X1945Y815D01*
X2192Y815D02*
X2199Y815D01*
X1Y814D02*
X8Y814D01*
X1875Y814D02*
X1882Y814D01*
X1938Y814D02*
X1945Y814D01*
X2192Y814D02*
X2199Y814D01*
X1Y813D02*
X8Y813D01*
X1876Y813D02*
X1883Y813D01*
X1938Y813D02*
X1945Y813D01*
X2192Y813D02*
X2199Y813D01*
X1Y812D02*
X8Y812D01*
X1876Y812D02*
X1883Y812D01*
X1937Y812D02*
X1944Y812D01*
X2192Y812D02*
X2199Y812D01*
X1Y811D02*
X8Y811D01*
X1876Y811D02*
X1883Y811D01*
X1937Y811D02*
X1944Y811D01*
X2192Y811D02*
X2199Y811D01*
X1Y810D02*
X8Y810D01*
X1876Y810D02*
X1884Y810D01*
X1936Y810D02*
X1944Y810D01*
X2192Y810D02*
X2199Y810D01*
X1Y809D02*
X8Y809D01*
X1877Y809D02*
X1884Y809D01*
X1936Y809D02*
X1943Y809D01*
X2131Y809D02*
X2134Y809D01*
X2163Y809D02*
X2166Y809D01*
X2192Y809D02*
X2199Y809D01*
X1Y808D02*
X8Y808D01*
X1877Y808D02*
X1885Y808D01*
X1936Y808D02*
X1943Y808D01*
X2130Y808D02*
X2135Y808D01*
X2162Y808D02*
X2167Y808D01*
X2192Y808D02*
X2199Y808D01*
X1Y807D02*
X8Y807D01*
X1878Y807D02*
X1885Y807D01*
X1935Y807D02*
X1943Y807D01*
X2129Y807D02*
X2135Y807D01*
X2162Y807D02*
X2168Y807D01*
X2192Y807D02*
X2199Y807D01*
X1Y806D02*
X8Y806D01*
X1878Y806D02*
X1886Y806D01*
X1935Y806D02*
X1942Y806D01*
X2129Y806D02*
X2135Y806D01*
X2162Y806D02*
X2168Y806D01*
X2192Y806D02*
X2199Y806D01*
X1Y805D02*
X8Y805D01*
X1878Y805D02*
X1886Y805D01*
X1934Y805D02*
X1942Y805D01*
X2129Y805D02*
X2135Y805D01*
X2162Y805D02*
X2168Y805D01*
X2192Y805D02*
X2199Y805D01*
X1Y804D02*
X8Y804D01*
X1879Y804D02*
X1887Y804D01*
X1934Y804D02*
X1941Y804D01*
X2129Y804D02*
X2135Y804D01*
X2162Y804D02*
X2168Y804D01*
X2192Y804D02*
X2199Y804D01*
X1Y803D02*
X8Y803D01*
X1879Y803D02*
X1887Y803D01*
X1933Y803D02*
X1941Y803D01*
X2129Y803D02*
X2135Y803D01*
X2162Y803D02*
X2168Y803D01*
X2192Y803D02*
X2199Y803D01*
X1Y802D02*
X8Y802D01*
X1880Y802D02*
X1888Y802D01*
X1933Y802D02*
X1940Y802D01*
X2129Y802D02*
X2135Y802D01*
X2162Y802D02*
X2168Y802D01*
X2178Y802D02*
X2184Y802D01*
X2192Y802D02*
X2199Y802D01*
X1Y801D02*
X8Y801D01*
X1880Y801D02*
X1888Y801D01*
X1932Y801D02*
X1940Y801D01*
X2129Y801D02*
X2135Y801D01*
X2162Y801D02*
X2168Y801D01*
X2177Y801D02*
X2185Y801D01*
X2192Y801D02*
X2199Y801D01*
X1Y800D02*
X8Y800D01*
X1881Y800D02*
X1889Y800D01*
X1931Y800D02*
X1939Y800D01*
X2129Y800D02*
X2135Y800D01*
X2162Y800D02*
X2168Y800D01*
X2177Y800D02*
X2185Y800D01*
X2192Y800D02*
X2199Y800D01*
X1Y799D02*
X8Y799D01*
X1881Y799D02*
X1889Y799D01*
X1931Y799D02*
X1939Y799D01*
X2129Y799D02*
X2168Y799D01*
X2176Y799D02*
X2185Y799D01*
X2192Y799D02*
X2199Y799D01*
X1Y798D02*
X8Y798D01*
X1882Y798D02*
X1890Y798D01*
X1930Y798D02*
X1938Y798D01*
X2129Y798D02*
X2168Y798D01*
X2176Y798D02*
X2185Y798D01*
X2192Y798D02*
X2199Y798D01*
X1Y797D02*
X8Y797D01*
X1882Y797D02*
X1891Y797D01*
X1929Y797D02*
X1938Y797D01*
X2129Y797D02*
X2168Y797D01*
X2176Y797D02*
X2185Y797D01*
X2192Y797D02*
X2199Y797D01*
X1Y796D02*
X8Y796D01*
X1883Y796D02*
X1891Y796D01*
X1929Y796D02*
X1937Y796D01*
X2129Y796D02*
X2168Y796D01*
X2176Y796D02*
X2185Y796D01*
X2192Y796D02*
X2199Y796D01*
X1Y795D02*
X8Y795D01*
X1884Y795D02*
X1892Y795D01*
X1928Y795D02*
X1937Y795D01*
X2129Y795D02*
X2168Y795D01*
X2177Y795D02*
X2185Y795D01*
X2192Y795D02*
X2199Y795D01*
X1Y794D02*
X8Y794D01*
X1884Y794D02*
X1893Y794D01*
X1927Y794D02*
X1936Y794D01*
X2129Y794D02*
X2167Y794D01*
X2177Y794D02*
X2185Y794D01*
X2192Y794D02*
X2199Y794D01*
X1Y793D02*
X8Y793D01*
X1885Y793D02*
X1894Y793D01*
X1926Y793D02*
X1935Y793D01*
X2129Y793D02*
X2166Y793D01*
X2178Y793D02*
X2184Y793D01*
X2192Y793D02*
X2199Y793D01*
X1Y792D02*
X8Y792D01*
X1886Y792D02*
X1895Y792D01*
X1926Y792D02*
X1935Y792D01*
X2129Y792D02*
X2135Y792D01*
X2192Y792D02*
X2199Y792D01*
X1Y791D02*
X8Y791D01*
X1886Y791D02*
X1895Y791D01*
X1925Y791D02*
X1934Y791D01*
X2129Y791D02*
X2135Y791D01*
X2192Y791D02*
X2199Y791D01*
X1Y790D02*
X8Y790D01*
X1887Y790D02*
X1896Y790D01*
X1924Y790D02*
X1933Y790D01*
X2129Y790D02*
X2135Y790D01*
X2192Y790D02*
X2199Y790D01*
X1Y789D02*
X8Y789D01*
X1888Y789D02*
X1897Y789D01*
X1923Y789D02*
X1933Y789D01*
X2129Y789D02*
X2135Y789D01*
X2192Y789D02*
X2199Y789D01*
X1Y788D02*
X8Y788D01*
X1889Y788D02*
X1898Y788D01*
X1923Y788D02*
X1932Y788D01*
X2129Y788D02*
X2135Y788D01*
X2192Y788D02*
X2199Y788D01*
X1Y787D02*
X8Y787D01*
X1889Y787D02*
X1898Y787D01*
X1923Y787D02*
X1931Y787D01*
X2129Y787D02*
X2135Y787D01*
X2192Y787D02*
X2199Y787D01*
X1Y786D02*
X8Y786D01*
X1890Y786D02*
X1898Y786D01*
X1923Y786D02*
X1930Y786D01*
X2129Y786D02*
X2135Y786D01*
X2192Y786D02*
X2199Y786D01*
X1Y785D02*
X8Y785D01*
X1891Y785D02*
X1898Y785D01*
X1923Y785D02*
X1929Y785D01*
X2129Y785D02*
X2135Y785D01*
X2192Y785D02*
X2199Y785D01*
X1Y784D02*
X8Y784D01*
X1892Y784D02*
X1897Y784D01*
X1924Y784D02*
X1928Y784D01*
X2130Y784D02*
X2135Y784D01*
X2192Y784D02*
X2199Y784D01*
X1Y783D02*
X8Y783D01*
X1893Y783D02*
X1896Y783D01*
X2131Y783D02*
X2134Y783D01*
X2192Y783D02*
X2199Y783D01*
X1Y782D02*
X8Y782D01*
X2192Y782D02*
X2199Y782D01*
X1Y781D02*
X8Y781D01*
X2192Y781D02*
X2199Y781D01*
X1Y780D02*
X8Y780D01*
X2192Y780D02*
X2199Y780D01*
X1Y779D02*
X8Y779D01*
X2192Y779D02*
X2199Y779D01*
X1Y778D02*
X8Y778D01*
X2192Y778D02*
X2199Y778D01*
X1Y777D02*
X8Y777D01*
X2192Y777D02*
X2199Y777D01*
X1Y776D02*
X8Y776D01*
X2192Y776D02*
X2199Y776D01*
X1Y775D02*
X8Y775D01*
X2192Y775D02*
X2199Y775D01*
X1Y774D02*
X8Y774D01*
X2192Y774D02*
X2199Y774D01*
X1Y773D02*
X8Y773D01*
X2192Y773D02*
X2199Y773D01*
X1Y772D02*
X8Y772D01*
X2192Y772D02*
X2199Y772D01*
X1Y771D02*
X8Y771D01*
X2192Y771D02*
X2199Y771D01*
X1Y770D02*
X8Y770D01*
X2192Y770D02*
X2199Y770D01*
X1Y769D02*
X8Y769D01*
X2192Y769D02*
X2199Y769D01*
X1Y768D02*
X8Y768D01*
X2192Y768D02*
X2199Y768D01*
X1Y767D02*
X8Y767D01*
X2192Y767D02*
X2199Y767D01*
X1Y766D02*
X8Y766D01*
X2192Y766D02*
X2199Y766D01*
X1Y765D02*
X8Y765D01*
X2192Y765D02*
X2199Y765D01*
X1Y764D02*
X8Y764D01*
X2192Y764D02*
X2199Y764D01*
X1Y763D02*
X8Y763D01*
X2133Y763D02*
X2179Y763D01*
X2192Y763D02*
X2199Y763D01*
X1Y762D02*
X8Y762D01*
X2130Y762D02*
X2181Y762D01*
X2192Y762D02*
X2199Y762D01*
X1Y761D02*
X8Y761D01*
X2130Y761D02*
X2182Y761D01*
X2192Y761D02*
X2199Y761D01*
X1Y760D02*
X8Y760D01*
X2129Y760D02*
X2182Y760D01*
X2192Y760D02*
X2199Y760D01*
X1Y759D02*
X8Y759D01*
X2129Y759D02*
X2182Y759D01*
X2192Y759D02*
X2199Y759D01*
X1Y758D02*
X8Y758D01*
X2130Y758D02*
X2182Y758D01*
X2192Y758D02*
X2199Y758D01*
X1Y757D02*
X8Y757D01*
X2130Y757D02*
X2181Y757D01*
X2192Y757D02*
X2199Y757D01*
X1Y756D02*
X8Y756D01*
X2133Y756D02*
X2144Y756D01*
X2153Y756D02*
X2164Y756D01*
X2192Y756D02*
X2199Y756D01*
X1Y755D02*
X8Y755D01*
X2133Y755D02*
X2142Y755D01*
X2156Y755D02*
X2164Y755D01*
X2192Y755D02*
X2199Y755D01*
X1Y754D02*
X8Y754D01*
X2132Y754D02*
X2141Y754D01*
X2156Y754D02*
X2165Y754D01*
X2192Y754D02*
X2199Y754D01*
X1Y753D02*
X8Y753D01*
X2131Y753D02*
X2140Y753D01*
X2157Y753D02*
X2166Y753D01*
X2192Y753D02*
X2199Y753D01*
X1Y752D02*
X8Y752D01*
X2131Y752D02*
X2139Y752D01*
X2158Y752D02*
X2166Y752D01*
X2192Y752D02*
X2199Y752D01*
X1Y751D02*
X8Y751D01*
X2130Y751D02*
X2138Y751D01*
X2159Y751D02*
X2167Y751D01*
X2192Y751D02*
X2199Y751D01*
X1Y750D02*
X8Y750D01*
X2130Y750D02*
X2137Y750D01*
X2160Y750D02*
X2167Y750D01*
X2192Y750D02*
X2199Y750D01*
X1Y749D02*
X8Y749D01*
X2130Y749D02*
X2136Y749D01*
X2161Y749D02*
X2167Y749D01*
X2192Y749D02*
X2199Y749D01*
X1Y748D02*
X8Y748D01*
X2129Y748D02*
X2136Y748D01*
X2161Y748D02*
X2168Y748D01*
X2192Y748D02*
X2199Y748D01*
X1Y747D02*
X8Y747D01*
X2129Y747D02*
X2135Y747D01*
X2162Y747D02*
X2168Y747D01*
X2192Y747D02*
X2199Y747D01*
X1Y746D02*
X8Y746D01*
X2129Y746D02*
X2135Y746D01*
X2162Y746D02*
X2168Y746D01*
X2192Y746D02*
X2199Y746D01*
X1Y745D02*
X8Y745D01*
X2129Y745D02*
X2135Y745D01*
X2162Y745D02*
X2168Y745D01*
X2192Y745D02*
X2199Y745D01*
X1Y744D02*
X8Y744D01*
X2129Y744D02*
X2135Y744D01*
X2162Y744D02*
X2168Y744D01*
X2192Y744D02*
X2199Y744D01*
X1Y743D02*
X8Y743D01*
X2129Y743D02*
X2135Y743D01*
X2162Y743D02*
X2168Y743D01*
X2192Y743D02*
X2199Y743D01*
X1Y742D02*
X8Y742D01*
X2129Y742D02*
X2135Y742D01*
X2162Y742D02*
X2168Y742D01*
X2192Y742D02*
X2199Y742D01*
X1Y741D02*
X8Y741D01*
X2129Y741D02*
X2135Y741D01*
X2162Y741D02*
X2168Y741D01*
X2192Y741D02*
X2199Y741D01*
X1Y740D02*
X8Y740D01*
X757Y740D02*
X784Y740D01*
X2129Y740D02*
X2136Y740D01*
X2161Y740D02*
X2168Y740D01*
X2192Y740D02*
X2199Y740D01*
X1Y739D02*
X8Y739D01*
X756Y739D02*
X786Y739D01*
X2130Y739D02*
X2136Y739D01*
X2161Y739D02*
X2167Y739D01*
X2192Y739D02*
X2199Y739D01*
X1Y738D02*
X8Y738D01*
X756Y738D02*
X787Y738D01*
X2130Y738D02*
X2137Y738D01*
X2160Y738D02*
X2167Y738D01*
X2192Y738D02*
X2199Y738D01*
X1Y737D02*
X8Y737D01*
X756Y737D02*
X787Y737D01*
X2130Y737D02*
X2138Y737D01*
X2159Y737D02*
X2167Y737D01*
X2192Y737D02*
X2199Y737D01*
X1Y736D02*
X8Y736D01*
X756Y736D02*
X788Y736D01*
X2088Y736D02*
X2105Y736D01*
X2131Y736D02*
X2139Y736D01*
X2158Y736D02*
X2166Y736D01*
X2192Y736D02*
X2199Y736D01*
X1Y735D02*
X8Y735D01*
X756Y735D02*
X788Y735D01*
X2087Y735D02*
X2106Y735D01*
X2132Y735D02*
X2166Y735D01*
X2192Y735D02*
X2199Y735D01*
X1Y734D02*
X8Y734D01*
X758Y734D02*
X788Y734D01*
X2086Y734D02*
X2107Y734D01*
X2132Y734D02*
X2165Y734D01*
X2192Y734D02*
X2199Y734D01*
X1Y733D02*
X8Y733D01*
X783Y733D02*
X788Y733D01*
X2086Y733D02*
X2106Y733D01*
X2133Y733D02*
X2164Y733D01*
X2192Y733D02*
X2199Y733D01*
X1Y732D02*
X8Y732D01*
X783Y732D02*
X788Y732D01*
X2087Y732D02*
X2105Y732D01*
X2134Y732D02*
X2163Y732D01*
X2192Y732D02*
X2199Y732D01*
X1Y731D02*
X8Y731D01*
X783Y731D02*
X788Y731D01*
X2095Y731D02*
X2098Y731D01*
X2135Y731D02*
X2162Y731D01*
X2192Y731D02*
X2199Y731D01*
X1Y730D02*
X8Y730D01*
X783Y730D02*
X788Y730D01*
X2095Y730D02*
X2098Y730D01*
X2137Y730D02*
X2160Y730D01*
X2192Y730D02*
X2199Y730D01*
X1Y729D02*
X8Y729D01*
X783Y729D02*
X788Y729D01*
X2095Y729D02*
X2098Y729D01*
X2139Y729D02*
X2158Y729D01*
X2192Y729D02*
X2199Y729D01*
X1Y728D02*
X8Y728D01*
X783Y728D02*
X788Y728D01*
X2095Y728D02*
X2098Y728D01*
X2192Y728D02*
X2199Y728D01*
X1Y727D02*
X8Y727D01*
X783Y727D02*
X788Y727D01*
X2095Y727D02*
X2098Y727D01*
X2192Y727D02*
X2199Y727D01*
X1Y726D02*
X8Y726D01*
X783Y726D02*
X788Y726D01*
X2095Y726D02*
X2098Y726D01*
X2118Y726D02*
X2121Y726D01*
X2126Y726D02*
X2134Y726D01*
X2192Y726D02*
X2199Y726D01*
X1Y725D02*
X8Y725D01*
X783Y725D02*
X788Y725D01*
X2095Y725D02*
X2098Y725D01*
X2118Y725D02*
X2121Y725D01*
X2125Y725D02*
X2136Y725D01*
X2192Y725D02*
X2199Y725D01*
X1Y724D02*
X8Y724D01*
X783Y724D02*
X788Y724D01*
X2095Y724D02*
X2098Y724D01*
X2118Y724D02*
X2121Y724D01*
X2123Y724D02*
X2136Y724D01*
X2192Y724D02*
X2199Y724D01*
X1Y723D02*
X8Y723D01*
X783Y723D02*
X788Y723D01*
X1798Y723D02*
X1806Y723D01*
X2095Y723D02*
X2098Y723D01*
X2118Y723D02*
X2137Y723D01*
X2192Y723D02*
X2199Y723D01*
X1Y722D02*
X8Y722D01*
X783Y722D02*
X788Y722D01*
X1797Y722D02*
X1806Y722D01*
X2095Y722D02*
X2098Y722D01*
X2118Y722D02*
X2127Y722D01*
X2133Y722D02*
X2137Y722D01*
X2192Y722D02*
X2199Y722D01*
X1Y721D02*
X8Y721D01*
X783Y721D02*
X788Y721D01*
X1797Y721D02*
X1806Y721D01*
X2095Y721D02*
X2098Y721D01*
X2118Y721D02*
X2125Y721D01*
X2134Y721D02*
X2137Y721D01*
X2192Y721D02*
X2199Y721D01*
X1Y720D02*
X8Y720D01*
X782Y720D02*
X788Y720D01*
X1797Y720D02*
X1806Y720D01*
X2095Y720D02*
X2098Y720D01*
X2118Y720D02*
X2124Y720D01*
X2134Y720D02*
X2137Y720D01*
X2192Y720D02*
X2199Y720D01*
X1Y719D02*
X8Y719D01*
X782Y719D02*
X788Y719D01*
X1797Y719D02*
X1806Y719D01*
X2095Y719D02*
X2098Y719D01*
X2118Y719D02*
X2122Y719D01*
X2134Y719D02*
X2137Y719D01*
X2192Y719D02*
X2199Y719D01*
X1Y718D02*
X8Y718D01*
X781Y718D02*
X788Y718D01*
X1797Y718D02*
X1806Y718D01*
X2095Y718D02*
X2098Y718D01*
X2118Y718D02*
X2121Y718D01*
X2134Y718D02*
X2137Y718D01*
X2192Y718D02*
X2199Y718D01*
X1Y717D02*
X8Y717D01*
X764Y717D02*
X788Y717D01*
X1797Y717D02*
X1806Y717D01*
X2095Y717D02*
X2098Y717D01*
X2118Y717D02*
X2121Y717D01*
X2134Y717D02*
X2137Y717D01*
X2192Y717D02*
X2199Y717D01*
X1Y716D02*
X8Y716D01*
X763Y716D02*
X787Y716D01*
X1797Y716D02*
X1806Y716D01*
X2095Y716D02*
X2098Y716D01*
X2118Y716D02*
X2121Y716D01*
X2134Y716D02*
X2137Y716D01*
X2192Y716D02*
X2199Y716D01*
X1Y715D02*
X8Y715D01*
X763Y715D02*
X786Y715D01*
X1797Y715D02*
X1806Y715D01*
X2095Y715D02*
X2098Y715D01*
X2118Y715D02*
X2121Y715D01*
X2134Y715D02*
X2137Y715D01*
X2192Y715D02*
X2199Y715D01*
X1Y714D02*
X8Y714D01*
X762Y714D02*
X786Y714D01*
X1797Y714D02*
X1806Y714D01*
X2095Y714D02*
X2098Y714D01*
X2118Y714D02*
X2121Y714D01*
X2134Y714D02*
X2137Y714D01*
X2192Y714D02*
X2199Y714D01*
X1Y713D02*
X8Y713D01*
X763Y713D02*
X787Y713D01*
X1797Y713D02*
X1806Y713D01*
X2095Y713D02*
X2098Y713D01*
X2118Y713D02*
X2121Y713D01*
X2134Y713D02*
X2137Y713D01*
X2192Y713D02*
X2199Y713D01*
X1Y712D02*
X8Y712D01*
X763Y712D02*
X787Y712D01*
X1797Y712D02*
X1806Y712D01*
X2095Y712D02*
X2098Y712D01*
X2118Y712D02*
X2121Y712D01*
X2131Y712D02*
X2181Y712D01*
X2192Y712D02*
X2199Y712D01*
X1Y711D02*
X8Y711D01*
X764Y711D02*
X788Y711D01*
X1797Y711D02*
X1806Y711D01*
X2095Y711D02*
X2098Y711D01*
X2118Y711D02*
X2121Y711D01*
X2130Y711D02*
X2182Y711D01*
X2192Y711D02*
X2199Y711D01*
X1Y710D02*
X8Y710D01*
X781Y710D02*
X788Y710D01*
X1797Y710D02*
X1806Y710D01*
X2095Y710D02*
X2098Y710D01*
X2118Y710D02*
X2121Y710D01*
X2129Y710D02*
X2182Y710D01*
X2192Y710D02*
X2199Y710D01*
X1Y709D02*
X8Y709D01*
X782Y709D02*
X788Y709D01*
X1797Y709D02*
X1806Y709D01*
X2095Y709D02*
X2098Y709D01*
X2118Y709D02*
X2121Y709D01*
X2129Y709D02*
X2182Y709D01*
X2192Y709D02*
X2199Y709D01*
X1Y708D02*
X8Y708D01*
X782Y708D02*
X788Y708D01*
X1797Y708D02*
X1806Y708D01*
X2095Y708D02*
X2098Y708D01*
X2118Y708D02*
X2121Y708D01*
X2130Y708D02*
X2182Y708D01*
X2192Y708D02*
X2199Y708D01*
X1Y707D02*
X8Y707D01*
X783Y707D02*
X788Y707D01*
X1797Y707D02*
X1806Y707D01*
X2094Y707D02*
X2098Y707D01*
X2118Y707D02*
X2121Y707D01*
X2130Y707D02*
X2181Y707D01*
X2192Y707D02*
X2199Y707D01*
X1Y706D02*
X8Y706D01*
X783Y706D02*
X788Y706D01*
X1797Y706D02*
X1806Y706D01*
X2087Y706D02*
X2106Y706D01*
X2118Y706D02*
X2121Y706D01*
X2132Y706D02*
X2180Y706D01*
X2192Y706D02*
X2199Y706D01*
X1Y705D02*
X8Y705D01*
X783Y705D02*
X788Y705D01*
X1797Y705D02*
X1806Y705D01*
X2086Y705D02*
X2107Y705D01*
X2118Y705D02*
X2121Y705D01*
X2133Y705D02*
X2142Y705D01*
X2155Y705D02*
X2164Y705D01*
X2192Y705D02*
X2199Y705D01*
X1Y704D02*
X8Y704D01*
X783Y704D02*
X788Y704D01*
X1797Y704D02*
X1806Y704D01*
X2086Y704D02*
X2106Y704D01*
X2118Y704D02*
X2121Y704D01*
X2132Y704D02*
X2141Y704D01*
X2156Y704D02*
X2165Y704D01*
X2192Y704D02*
X2199Y704D01*
X1Y703D02*
X8Y703D01*
X783Y703D02*
X788Y703D01*
X1797Y703D02*
X1806Y703D01*
X2087Y703D02*
X2106Y703D01*
X2119Y703D02*
X2120Y703D01*
X2132Y703D02*
X2140Y703D01*
X2157Y703D02*
X2165Y703D01*
X2192Y703D02*
X2199Y703D01*
X1Y702D02*
X8Y702D01*
X783Y702D02*
X788Y702D01*
X1797Y702D02*
X1806Y702D01*
X2131Y702D02*
X2139Y702D01*
X2158Y702D02*
X2166Y702D01*
X2192Y702D02*
X2199Y702D01*
X1Y701D02*
X8Y701D01*
X783Y701D02*
X788Y701D01*
X1797Y701D02*
X1806Y701D01*
X2130Y701D02*
X2138Y701D01*
X2159Y701D02*
X2167Y701D01*
X2192Y701D02*
X2199Y701D01*
X1Y700D02*
X8Y700D01*
X783Y700D02*
X788Y700D01*
X1797Y700D02*
X1806Y700D01*
X2130Y700D02*
X2137Y700D01*
X2160Y700D02*
X2167Y700D01*
X2192Y700D02*
X2199Y700D01*
X1Y699D02*
X8Y699D01*
X783Y699D02*
X788Y699D01*
X1797Y699D02*
X1806Y699D01*
X2130Y699D02*
X2136Y699D01*
X2161Y699D02*
X2167Y699D01*
X2192Y699D02*
X2199Y699D01*
X1Y698D02*
X8Y698D01*
X783Y698D02*
X788Y698D01*
X1797Y698D02*
X1806Y698D01*
X2129Y698D02*
X2136Y698D01*
X2161Y698D02*
X2168Y698D01*
X2192Y698D02*
X2199Y698D01*
X1Y697D02*
X8Y697D01*
X783Y697D02*
X788Y697D01*
X1797Y697D02*
X1806Y697D01*
X2129Y697D02*
X2135Y697D01*
X2162Y697D02*
X2168Y697D01*
X2192Y697D02*
X2199Y697D01*
X1Y696D02*
X8Y696D01*
X783Y696D02*
X788Y696D01*
X1797Y696D02*
X1806Y696D01*
X2129Y696D02*
X2135Y696D01*
X2162Y696D02*
X2168Y696D01*
X2192Y696D02*
X2199Y696D01*
X1Y695D02*
X8Y695D01*
X783Y695D02*
X788Y695D01*
X1797Y695D02*
X1806Y695D01*
X2129Y695D02*
X2135Y695D01*
X2162Y695D02*
X2168Y695D01*
X2192Y695D02*
X2199Y695D01*
X1Y694D02*
X8Y694D01*
X757Y694D02*
X788Y694D01*
X1797Y694D02*
X1806Y694D01*
X2129Y694D02*
X2135Y694D01*
X2162Y694D02*
X2168Y694D01*
X2192Y694D02*
X2199Y694D01*
X1Y693D02*
X8Y693D01*
X756Y693D02*
X788Y693D01*
X1797Y693D02*
X1806Y693D01*
X2129Y693D02*
X2135Y693D01*
X2162Y693D02*
X2168Y693D01*
X2192Y693D02*
X2199Y693D01*
X1Y692D02*
X8Y692D01*
X756Y692D02*
X788Y692D01*
X1797Y692D02*
X1806Y692D01*
X2129Y692D02*
X2135Y692D01*
X2162Y692D02*
X2168Y692D01*
X2192Y692D02*
X2199Y692D01*
X1Y691D02*
X8Y691D01*
X756Y691D02*
X787Y691D01*
X1797Y691D02*
X1806Y691D01*
X2129Y691D02*
X2135Y691D01*
X2162Y691D02*
X2168Y691D01*
X2192Y691D02*
X2199Y691D01*
X1Y690D02*
X8Y690D01*
X756Y690D02*
X787Y690D01*
X1797Y690D02*
X1806Y690D01*
X2129Y690D02*
X2136Y690D01*
X2161Y690D02*
X2168Y690D01*
X2192Y690D02*
X2199Y690D01*
X1Y689D02*
X8Y689D01*
X756Y689D02*
X785Y689D01*
X1797Y689D02*
X1806Y689D01*
X2130Y689D02*
X2136Y689D01*
X2161Y689D02*
X2167Y689D01*
X2192Y689D02*
X2199Y689D01*
X1Y688D02*
X8Y688D01*
X758Y688D02*
X784Y688D01*
X1797Y688D02*
X1806Y688D01*
X2130Y688D02*
X2137Y688D01*
X2160Y688D02*
X2167Y688D01*
X2192Y688D02*
X2199Y688D01*
X1Y687D02*
X8Y687D01*
X1797Y687D02*
X1806Y687D01*
X2130Y687D02*
X2138Y687D01*
X2159Y687D02*
X2167Y687D01*
X2192Y687D02*
X2199Y687D01*
X1Y686D02*
X8Y686D01*
X1797Y686D02*
X1806Y686D01*
X2131Y686D02*
X2139Y686D01*
X2158Y686D02*
X2166Y686D01*
X2192Y686D02*
X2199Y686D01*
X1Y685D02*
X8Y685D01*
X1797Y685D02*
X1806Y685D01*
X2131Y685D02*
X2166Y685D01*
X2192Y685D02*
X2199Y685D01*
X1Y684D02*
X8Y684D01*
X1797Y684D02*
X1806Y684D01*
X2132Y684D02*
X2165Y684D01*
X2192Y684D02*
X2199Y684D01*
X1Y683D02*
X8Y683D01*
X1797Y683D02*
X1806Y683D01*
X2133Y683D02*
X2164Y683D01*
X2192Y683D02*
X2199Y683D01*
X1Y682D02*
X8Y682D01*
X1797Y682D02*
X1806Y682D01*
X2134Y682D02*
X2163Y682D01*
X2192Y682D02*
X2199Y682D01*
X1Y681D02*
X8Y681D01*
X1797Y681D02*
X1806Y681D01*
X2135Y681D02*
X2162Y681D01*
X2192Y681D02*
X2199Y681D01*
X1Y680D02*
X8Y680D01*
X1797Y680D02*
X1806Y680D01*
X2136Y680D02*
X2161Y680D01*
X2192Y680D02*
X2199Y680D01*
X1Y679D02*
X8Y679D01*
X1797Y679D02*
X1806Y679D01*
X2138Y679D02*
X2159Y679D01*
X2192Y679D02*
X2199Y679D01*
X1Y678D02*
X8Y678D01*
X1797Y678D02*
X1806Y678D01*
X2192Y678D02*
X2199Y678D01*
X1Y677D02*
X8Y677D01*
X1797Y677D02*
X1806Y677D01*
X2192Y677D02*
X2199Y677D01*
X1Y676D02*
X8Y676D01*
X1797Y676D02*
X1806Y676D01*
X2192Y676D02*
X2199Y676D01*
X1Y675D02*
X8Y675D01*
X2192Y675D02*
X2199Y675D01*
X1Y674D02*
X8Y674D01*
X2192Y674D02*
X2199Y674D01*
X1Y673D02*
X8Y673D01*
X2192Y673D02*
X2199Y673D01*
X1Y672D02*
X8Y672D01*
X2192Y672D02*
X2199Y672D01*
X1Y671D02*
X8Y671D01*
X2192Y671D02*
X2199Y671D01*
X1Y670D02*
X8Y670D01*
X2192Y670D02*
X2199Y670D01*
X1Y669D02*
X8Y669D01*
X2192Y669D02*
X2199Y669D01*
X1Y668D02*
X8Y668D01*
X2192Y668D02*
X2199Y668D01*
X1Y667D02*
X8Y667D01*
X2192Y667D02*
X2199Y667D01*
X1Y666D02*
X8Y666D01*
X2192Y666D02*
X2199Y666D01*
X1Y665D02*
X8Y665D01*
X2192Y665D02*
X2199Y665D01*
X1Y664D02*
X8Y664D01*
X2192Y664D02*
X2199Y664D01*
X1Y663D02*
X8Y663D01*
X2192Y663D02*
X2199Y663D01*
X1Y662D02*
X8Y662D01*
X2138Y662D02*
X2158Y662D01*
X2192Y662D02*
X2199Y662D01*
X1Y661D02*
X8Y661D01*
X2136Y661D02*
X2160Y661D01*
X2192Y661D02*
X2199Y661D01*
X1Y660D02*
X8Y660D01*
X2135Y660D02*
X2162Y660D01*
X2192Y660D02*
X2199Y660D01*
X1Y659D02*
X8Y659D01*
X2134Y659D02*
X2163Y659D01*
X2192Y659D02*
X2199Y659D01*
X1Y658D02*
X8Y658D01*
X2133Y658D02*
X2164Y658D01*
X2192Y658D02*
X2199Y658D01*
X1Y657D02*
X8Y657D01*
X2132Y657D02*
X2165Y657D01*
X2192Y657D02*
X2199Y657D01*
X1Y656D02*
X8Y656D01*
X2132Y656D02*
X2166Y656D01*
X2192Y656D02*
X2199Y656D01*
X1Y655D02*
X8Y655D01*
X2131Y655D02*
X2139Y655D01*
X2158Y655D02*
X2166Y655D01*
X2192Y655D02*
X2199Y655D01*
X1Y654D02*
X8Y654D01*
X2130Y654D02*
X2138Y654D01*
X2159Y654D02*
X2167Y654D01*
X2192Y654D02*
X2199Y654D01*
X1Y653D02*
X8Y653D01*
X2130Y653D02*
X2137Y653D01*
X2160Y653D02*
X2167Y653D01*
X2192Y653D02*
X2199Y653D01*
X1Y652D02*
X8Y652D01*
X2130Y652D02*
X2136Y652D01*
X2161Y652D02*
X2167Y652D01*
X2192Y652D02*
X2199Y652D01*
X1Y651D02*
X8Y651D01*
X2129Y651D02*
X2136Y651D01*
X2161Y651D02*
X2168Y651D01*
X2192Y651D02*
X2199Y651D01*
X1Y650D02*
X8Y650D01*
X2129Y650D02*
X2135Y650D01*
X2162Y650D02*
X2168Y650D01*
X2192Y650D02*
X2199Y650D01*
X1Y649D02*
X8Y649D01*
X2129Y649D02*
X2135Y649D01*
X2162Y649D02*
X2168Y649D01*
X2192Y649D02*
X2199Y649D01*
X1Y648D02*
X8Y648D01*
X2129Y648D02*
X2135Y648D01*
X2162Y648D02*
X2168Y648D01*
X2192Y648D02*
X2199Y648D01*
X1Y647D02*
X8Y647D01*
X2129Y647D02*
X2135Y647D01*
X2162Y647D02*
X2168Y647D01*
X2192Y647D02*
X2199Y647D01*
X1Y646D02*
X8Y646D01*
X2129Y646D02*
X2135Y646D01*
X2162Y646D02*
X2168Y646D01*
X2192Y646D02*
X2199Y646D01*
X1Y645D02*
X8Y645D01*
X2129Y645D02*
X2135Y645D01*
X2162Y645D02*
X2168Y645D01*
X2192Y645D02*
X2199Y645D01*
X1Y644D02*
X8Y644D01*
X2129Y644D02*
X2135Y644D01*
X2162Y644D02*
X2168Y644D01*
X2192Y644D02*
X2199Y644D01*
X1Y643D02*
X8Y643D01*
X2129Y643D02*
X2135Y643D01*
X2162Y643D02*
X2168Y643D01*
X2192Y643D02*
X2199Y643D01*
X1Y642D02*
X8Y642D01*
X2129Y642D02*
X2135Y642D01*
X2162Y642D02*
X2168Y642D01*
X2192Y642D02*
X2199Y642D01*
X1Y641D02*
X8Y641D01*
X2129Y641D02*
X2135Y641D01*
X2162Y641D02*
X2168Y641D01*
X2192Y641D02*
X2199Y641D01*
X1Y640D02*
X8Y640D01*
X2129Y640D02*
X2136Y640D01*
X2161Y640D02*
X2168Y640D01*
X2192Y640D02*
X2199Y640D01*
X1Y639D02*
X8Y639D01*
X2130Y639D02*
X2136Y639D01*
X2161Y639D02*
X2167Y639D01*
X2192Y639D02*
X2199Y639D01*
X1Y638D02*
X8Y638D01*
X2130Y638D02*
X2137Y638D01*
X2160Y638D02*
X2167Y638D01*
X2192Y638D02*
X2199Y638D01*
X1Y637D02*
X8Y637D01*
X2130Y637D02*
X2138Y637D01*
X2160Y637D02*
X2167Y637D01*
X2192Y637D02*
X2199Y637D01*
X1Y636D02*
X8Y636D01*
X2131Y636D02*
X2139Y636D01*
X2158Y636D02*
X2166Y636D01*
X2192Y636D02*
X2199Y636D01*
X1Y635D02*
X8Y635D01*
X2131Y635D02*
X2166Y635D01*
X2192Y635D02*
X2199Y635D01*
X1Y634D02*
X8Y634D01*
X2132Y634D02*
X2165Y634D01*
X2192Y634D02*
X2199Y634D01*
X1Y633D02*
X8Y633D01*
X2133Y633D02*
X2164Y633D01*
X2192Y633D02*
X2199Y633D01*
X1Y632D02*
X8Y632D01*
X2134Y632D02*
X2163Y632D01*
X2192Y632D02*
X2199Y632D01*
X1Y631D02*
X8Y631D01*
X2135Y631D02*
X2162Y631D01*
X2192Y631D02*
X2199Y631D01*
X1Y630D02*
X8Y630D01*
X2136Y630D02*
X2161Y630D01*
X2192Y630D02*
X2199Y630D01*
X1Y629D02*
X8Y629D01*
X2138Y629D02*
X2159Y629D01*
X2192Y629D02*
X2199Y629D01*
X1Y628D02*
X8Y628D01*
X2192Y628D02*
X2199Y628D01*
X1Y627D02*
X8Y627D01*
X2192Y627D02*
X2199Y627D01*
X1Y626D02*
X8Y626D01*
X2192Y626D02*
X2199Y626D01*
X1Y625D02*
X8Y625D01*
X2192Y625D02*
X2199Y625D01*
X1Y624D02*
X8Y624D01*
X2192Y624D02*
X2199Y624D01*
X1Y623D02*
X8Y623D01*
X2192Y623D02*
X2199Y623D01*
X1Y622D02*
X8Y622D01*
X2192Y622D02*
X2199Y622D01*
X1Y621D02*
X8Y621D01*
X2192Y621D02*
X2199Y621D01*
X1Y620D02*
X8Y620D01*
X2192Y620D02*
X2199Y620D01*
X1Y619D02*
X8Y619D01*
X2192Y619D02*
X2199Y619D01*
X1Y618D02*
X8Y618D01*
X2192Y618D02*
X2199Y618D01*
X1Y617D02*
X8Y617D01*
X2192Y617D02*
X2199Y617D01*
X1Y616D02*
X8Y616D01*
X2192Y616D02*
X2199Y616D01*
X1Y615D02*
X8Y615D01*
X2192Y615D02*
X2199Y615D01*
X1Y614D02*
X8Y614D01*
X2192Y614D02*
X2199Y614D01*
X1Y613D02*
X8Y613D01*
X2192Y613D02*
X2199Y613D01*
X1Y612D02*
X8Y612D01*
X2133Y612D02*
X2164Y612D01*
X2192Y612D02*
X2199Y612D01*
X1Y611D02*
X8Y611D01*
X2130Y611D02*
X2167Y611D01*
X2192Y611D02*
X2199Y611D01*
X1Y610D02*
X8Y610D01*
X2130Y610D02*
X2167Y610D01*
X2192Y610D02*
X2199Y610D01*
X1Y609D02*
X8Y609D01*
X2129Y609D02*
X2168Y609D01*
X2192Y609D02*
X2199Y609D01*
X1Y608D02*
X8Y608D01*
X2129Y608D02*
X2168Y608D01*
X2192Y608D02*
X2199Y608D01*
X1Y607D02*
X8Y607D01*
X2130Y607D02*
X2167Y607D01*
X2192Y607D02*
X2199Y607D01*
X1Y606D02*
X8Y606D01*
X2131Y606D02*
X2167Y606D01*
X2192Y606D02*
X2199Y606D01*
X1Y605D02*
X8Y605D01*
X2154Y605D02*
X2162Y605D01*
X2192Y605D02*
X2199Y605D01*
X1Y604D02*
X8Y604D01*
X2155Y604D02*
X2162Y604D01*
X2192Y604D02*
X2199Y604D01*
X1Y603D02*
X8Y603D01*
X2156Y603D02*
X2163Y603D01*
X2192Y603D02*
X2199Y603D01*
X1Y602D02*
X8Y602D01*
X2156Y602D02*
X2164Y602D01*
X2192Y602D02*
X2199Y602D01*
X1Y601D02*
X8Y601D01*
X2157Y601D02*
X2164Y601D01*
X2192Y601D02*
X2199Y601D01*
X1Y600D02*
X8Y600D01*
X2158Y600D02*
X2165Y600D01*
X2192Y600D02*
X2199Y600D01*
X1Y599D02*
X8Y599D01*
X2158Y599D02*
X2166Y599D01*
X2192Y599D02*
X2199Y599D01*
X1Y598D02*
X8Y598D01*
X2159Y598D02*
X2166Y598D01*
X2192Y598D02*
X2199Y598D01*
X1Y597D02*
X8Y597D01*
X2160Y597D02*
X2167Y597D01*
X2192Y597D02*
X2199Y597D01*
X1Y596D02*
X8Y596D01*
X2160Y596D02*
X2167Y596D01*
X2192Y596D02*
X2199Y596D01*
X1Y595D02*
X8Y595D01*
X2161Y595D02*
X2167Y595D01*
X2192Y595D02*
X2199Y595D01*
X1Y594D02*
X8Y594D01*
X2162Y594D02*
X2168Y594D01*
X2192Y594D02*
X2199Y594D01*
X1Y593D02*
X8Y593D01*
X2162Y593D02*
X2168Y593D01*
X2192Y593D02*
X2199Y593D01*
X1Y592D02*
X8Y592D01*
X2162Y592D02*
X2168Y592D01*
X2192Y592D02*
X2199Y592D01*
X1Y591D02*
X8Y591D01*
X2162Y591D02*
X2168Y591D01*
X2192Y591D02*
X2199Y591D01*
X1Y590D02*
X8Y590D01*
X2162Y590D02*
X2168Y590D01*
X2192Y590D02*
X2199Y590D01*
X1Y589D02*
X8Y589D01*
X2162Y589D02*
X2168Y589D01*
X2192Y589D02*
X2199Y589D01*
X1Y588D02*
X8Y588D01*
X2162Y588D02*
X2168Y588D01*
X2192Y588D02*
X2199Y588D01*
X1Y587D02*
X8Y587D01*
X2161Y587D02*
X2168Y587D01*
X2192Y587D02*
X2199Y587D01*
X1Y586D02*
X8Y586D01*
X2160Y586D02*
X2167Y586D01*
X2192Y586D02*
X2199Y586D01*
X1Y585D02*
X8Y585D01*
X2131Y585D02*
X2167Y585D01*
X2192Y585D02*
X2199Y585D01*
X1Y584D02*
X8Y584D01*
X2130Y584D02*
X2167Y584D01*
X2192Y584D02*
X2199Y584D01*
X1Y583D02*
X8Y583D01*
X2130Y583D02*
X2166Y583D01*
X2192Y583D02*
X2199Y583D01*
X1Y582D02*
X8Y582D01*
X2129Y582D02*
X2165Y582D01*
X2192Y582D02*
X2199Y582D01*
X1Y581D02*
X8Y581D01*
X2129Y581D02*
X2164Y581D01*
X2192Y581D02*
X2199Y581D01*
X1Y580D02*
X8Y580D01*
X2130Y580D02*
X2163Y580D01*
X2192Y580D02*
X2199Y580D01*
X1Y579D02*
X8Y579D01*
X2131Y579D02*
X2161Y579D01*
X2192Y579D02*
X2199Y579D01*
X1Y578D02*
X8Y578D01*
X2192Y578D02*
X2199Y578D01*
X1Y577D02*
X8Y577D01*
X2192Y577D02*
X2199Y577D01*
X1Y576D02*
X8Y576D01*
X2192Y576D02*
X2199Y576D01*
X1Y575D02*
X8Y575D01*
X2192Y575D02*
X2199Y575D01*
X1Y574D02*
X8Y574D01*
X2192Y574D02*
X2199Y574D01*
X1Y573D02*
X8Y573D01*
X2192Y573D02*
X2199Y573D01*
X1Y572D02*
X8Y572D01*
X2192Y572D02*
X2199Y572D01*
X1Y571D02*
X8Y571D01*
X2192Y571D02*
X2199Y571D01*
X1Y570D02*
X8Y570D01*
X2192Y570D02*
X2199Y570D01*
X1Y569D02*
X8Y569D01*
X2192Y569D02*
X2199Y569D01*
X1Y568D02*
X8Y568D01*
X2192Y568D02*
X2199Y568D01*
X1Y567D02*
X8Y567D01*
X2192Y567D02*
X2199Y567D01*
X1Y566D02*
X8Y566D01*
X2192Y566D02*
X2199Y566D01*
X1Y565D02*
X8Y565D01*
X2192Y565D02*
X2199Y565D01*
X1Y564D02*
X8Y564D01*
X2192Y564D02*
X2199Y564D01*
X1Y563D02*
X8Y563D01*
X2192Y563D02*
X2199Y563D01*
X1Y562D02*
X8Y562D01*
X2192Y562D02*
X2199Y562D01*
X1Y561D02*
X8Y561D01*
X2192Y561D02*
X2199Y561D01*
X1Y560D02*
X8Y560D01*
X2192Y560D02*
X2199Y560D01*
X1Y559D02*
X8Y559D01*
X1984Y559D02*
X1997Y559D01*
X2011Y559D02*
X2017Y559D01*
X2033Y559D02*
X2036Y559D01*
X2050Y559D02*
X2066Y559D01*
X2192Y559D02*
X2199Y559D01*
X1Y558D02*
X8Y558D01*
X1983Y558D02*
X1997Y558D01*
X2011Y558D02*
X2018Y558D01*
X2032Y558D02*
X2036Y558D01*
X2049Y558D02*
X2067Y558D01*
X2192Y558D02*
X2199Y558D01*
X1Y557D02*
X8Y557D01*
X1982Y557D02*
X1998Y557D01*
X2011Y557D02*
X2018Y557D01*
X2032Y557D02*
X2036Y557D01*
X2049Y557D02*
X2068Y557D01*
X2192Y557D02*
X2199Y557D01*
X1Y556D02*
X8Y556D01*
X1981Y556D02*
X1997Y556D01*
X2011Y556D02*
X2019Y556D01*
X2032Y556D02*
X2036Y556D01*
X2049Y556D02*
X2069Y556D01*
X2192Y556D02*
X2199Y556D01*
X1Y555D02*
X8Y555D01*
X1979Y555D02*
X1996Y555D01*
X2011Y555D02*
X2019Y555D01*
X2032Y555D02*
X2036Y555D01*
X2050Y555D02*
X2069Y555D01*
X2192Y555D02*
X2199Y555D01*
X1Y554D02*
X8Y554D01*
X1978Y554D02*
X1986Y554D01*
X2011Y554D02*
X2019Y554D01*
X2032Y554D02*
X2036Y554D01*
X2054Y554D02*
X2058Y554D01*
X2064Y554D02*
X2070Y554D01*
X2192Y554D02*
X2199Y554D01*
X1Y553D02*
X8Y553D01*
X1977Y553D02*
X1984Y553D01*
X2011Y553D02*
X2020Y553D01*
X2032Y553D02*
X2036Y553D01*
X2054Y553D02*
X2058Y553D01*
X2065Y553D02*
X2070Y553D01*
X2192Y553D02*
X2199Y553D01*
X1Y552D02*
X8Y552D01*
X1976Y552D02*
X1983Y552D01*
X2011Y552D02*
X2020Y552D01*
X2032Y552D02*
X2036Y552D01*
X2054Y552D02*
X2058Y552D01*
X2066Y552D02*
X2071Y552D01*
X2192Y552D02*
X2199Y552D01*
X1Y551D02*
X8Y551D01*
X1975Y551D02*
X1982Y551D01*
X2011Y551D02*
X2021Y551D01*
X2032Y551D02*
X2036Y551D01*
X2054Y551D02*
X2058Y551D01*
X2066Y551D02*
X2071Y551D01*
X2192Y551D02*
X2199Y551D01*
X1Y550D02*
X8Y550D01*
X1974Y550D02*
X1981Y550D01*
X2011Y550D02*
X2021Y550D01*
X2032Y550D02*
X2036Y550D01*
X2054Y550D02*
X2058Y550D01*
X2067Y550D02*
X2072Y550D01*
X2192Y550D02*
X2199Y550D01*
X1Y549D02*
X8Y549D01*
X1973Y549D02*
X1980Y549D01*
X2011Y549D02*
X2015Y549D01*
X2017Y549D02*
X2022Y549D01*
X2032Y549D02*
X2036Y549D01*
X2054Y549D02*
X2058Y549D01*
X2067Y549D02*
X2072Y549D01*
X2192Y549D02*
X2199Y549D01*
X1Y548D02*
X8Y548D01*
X1973Y548D02*
X1979Y548D01*
X2011Y548D02*
X2015Y548D01*
X2017Y548D02*
X2022Y548D01*
X2032Y548D02*
X2036Y548D01*
X2054Y548D02*
X2058Y548D01*
X2068Y548D02*
X2073Y548D01*
X2192Y548D02*
X2199Y548D01*
X1Y547D02*
X8Y547D01*
X1972Y547D02*
X1978Y547D01*
X2011Y547D02*
X2015Y547D01*
X2018Y547D02*
X2023Y547D01*
X2032Y547D02*
X2036Y547D01*
X2054Y547D02*
X2058Y547D01*
X2068Y547D02*
X2073Y547D01*
X2192Y547D02*
X2199Y547D01*
X1Y546D02*
X8Y546D01*
X1972Y546D02*
X1977Y546D01*
X2011Y546D02*
X2015Y546D01*
X2018Y546D02*
X2023Y546D01*
X2032Y546D02*
X2036Y546D01*
X2054Y546D02*
X2058Y546D01*
X2069Y546D02*
X2074Y546D01*
X2192Y546D02*
X2199Y546D01*
X1Y545D02*
X8Y545D01*
X1972Y545D02*
X1977Y545D01*
X2011Y545D02*
X2015Y545D01*
X2018Y545D02*
X2023Y545D01*
X2032Y545D02*
X2036Y545D01*
X2054Y545D02*
X2058Y545D01*
X2069Y545D02*
X2074Y545D01*
X2192Y545D02*
X2199Y545D01*
X1Y544D02*
X8Y544D01*
X1972Y544D02*
X1976Y544D01*
X2011Y544D02*
X2015Y544D01*
X2019Y544D02*
X2024Y544D01*
X2032Y544D02*
X2036Y544D01*
X2054Y544D02*
X2058Y544D01*
X2070Y544D02*
X2075Y544D01*
X2192Y544D02*
X2199Y544D01*
X1Y543D02*
X8Y543D01*
X1972Y543D02*
X1976Y543D01*
X2011Y543D02*
X2015Y543D01*
X2019Y543D02*
X2024Y543D01*
X2032Y543D02*
X2036Y543D01*
X2054Y543D02*
X2058Y543D01*
X2070Y543D02*
X2075Y543D01*
X2192Y543D02*
X2199Y543D01*
X1Y542D02*
X8Y542D01*
X1972Y542D02*
X1976Y542D01*
X2011Y542D02*
X2015Y542D01*
X2020Y542D02*
X2025Y542D01*
X2032Y542D02*
X2036Y542D01*
X2054Y542D02*
X2058Y542D01*
X2071Y542D02*
X2076Y542D01*
X2192Y542D02*
X2199Y542D01*
X1Y541D02*
X8Y541D01*
X1972Y541D02*
X1976Y541D01*
X2011Y541D02*
X2015Y541D01*
X2020Y541D02*
X2025Y541D01*
X2032Y541D02*
X2036Y541D01*
X2054Y541D02*
X2058Y541D01*
X2071Y541D02*
X2076Y541D01*
X2192Y541D02*
X2199Y541D01*
X1Y540D02*
X8Y540D01*
X1972Y540D02*
X1976Y540D01*
X2011Y540D02*
X2015Y540D01*
X2021Y540D02*
X2026Y540D01*
X2032Y540D02*
X2036Y540D01*
X2054Y540D02*
X2058Y540D01*
X2072Y540D02*
X2076Y540D01*
X2192Y540D02*
X2199Y540D01*
X1Y539D02*
X8Y539D01*
X1735Y539D02*
X1737Y539D01*
X1773Y539D02*
X1797Y539D01*
X1972Y539D02*
X1976Y539D01*
X1986Y539D02*
X1995Y539D01*
X2011Y539D02*
X2015Y539D01*
X2021Y539D02*
X2026Y539D01*
X2032Y539D02*
X2036Y539D01*
X2054Y539D02*
X2058Y539D01*
X2072Y539D02*
X2076Y539D01*
X2192Y539D02*
X2199Y539D01*
X1Y538D02*
X8Y538D01*
X1734Y538D02*
X1739Y538D01*
X1772Y538D02*
X1799Y538D01*
X1972Y538D02*
X1976Y538D01*
X1984Y538D02*
X1997Y538D01*
X2011Y538D02*
X2015Y538D01*
X2022Y538D02*
X2026Y538D01*
X2032Y538D02*
X2036Y538D01*
X2054Y538D02*
X2058Y538D01*
X2072Y538D02*
X2076Y538D01*
X2192Y538D02*
X2199Y538D01*
X1Y537D02*
X8Y537D01*
X1734Y537D02*
X1739Y537D01*
X1771Y537D02*
X1800Y537D01*
X1972Y537D02*
X1976Y537D01*
X1984Y537D02*
X1998Y537D01*
X2011Y537D02*
X2015Y537D01*
X2022Y537D02*
X2027Y537D01*
X2032Y537D02*
X2036Y537D01*
X2054Y537D02*
X2058Y537D01*
X2071Y537D02*
X2076Y537D01*
X2192Y537D02*
X2199Y537D01*
X1Y536D02*
X8Y536D01*
X1733Y536D02*
X1739Y536D01*
X1770Y536D02*
X1801Y536D01*
X1972Y536D02*
X1976Y536D01*
X1984Y536D02*
X1998Y536D01*
X2011Y536D02*
X2015Y536D01*
X2022Y536D02*
X2027Y536D01*
X2032Y536D02*
X2036Y536D01*
X2054Y536D02*
X2058Y536D01*
X2071Y536D02*
X2076Y536D01*
X2192Y536D02*
X2199Y536D01*
X1Y535D02*
X8Y535D01*
X1733Y535D02*
X1740Y535D01*
X1769Y535D02*
X1801Y535D01*
X1972Y535D02*
X1976Y535D01*
X1984Y535D02*
X1998Y535D01*
X2011Y535D02*
X2015Y535D01*
X2023Y535D02*
X2028Y535D01*
X2032Y535D02*
X2036Y535D01*
X2054Y535D02*
X2058Y535D01*
X2070Y535D02*
X2075Y535D01*
X2192Y535D02*
X2199Y535D01*
X1Y534D02*
X8Y534D01*
X1733Y534D02*
X1740Y534D01*
X1769Y534D02*
X1802Y534D01*
X1972Y534D02*
X1976Y534D01*
X1985Y534D02*
X1998Y534D01*
X2011Y534D02*
X2015Y534D01*
X2023Y534D02*
X2028Y534D01*
X2032Y534D02*
X2036Y534D01*
X2054Y534D02*
X2058Y534D01*
X2070Y534D02*
X2075Y534D01*
X2192Y534D02*
X2199Y534D01*
X1Y533D02*
X8Y533D01*
X1732Y533D02*
X1740Y533D01*
X1769Y533D02*
X1802Y533D01*
X1972Y533D02*
X1976Y533D01*
X1993Y533D02*
X1998Y533D01*
X2011Y533D02*
X2015Y533D01*
X2024Y533D02*
X2029Y533D01*
X2032Y533D02*
X2036Y533D01*
X2054Y533D02*
X2058Y533D01*
X2069Y533D02*
X2075Y533D01*
X2192Y533D02*
X2199Y533D01*
X1Y532D02*
X8Y532D01*
X1732Y532D02*
X1741Y532D01*
X1769Y532D02*
X1775Y532D01*
X1796Y532D02*
X1802Y532D01*
X1972Y532D02*
X1976Y532D01*
X1993Y532D02*
X1998Y532D01*
X2011Y532D02*
X2015Y532D01*
X2024Y532D02*
X2029Y532D01*
X2032Y532D02*
X2036Y532D01*
X2054Y532D02*
X2058Y532D01*
X2069Y532D02*
X2074Y532D01*
X2192Y532D02*
X2199Y532D01*
X1Y531D02*
X8Y531D01*
X1732Y531D02*
X1741Y531D01*
X1769Y531D02*
X1775Y531D01*
X1796Y531D02*
X1802Y531D01*
X1972Y531D02*
X1976Y531D01*
X1993Y531D02*
X1998Y531D01*
X2011Y531D02*
X2015Y531D01*
X2025Y531D02*
X2030Y531D01*
X2032Y531D02*
X2036Y531D01*
X2054Y531D02*
X2058Y531D01*
X2068Y531D02*
X2074Y531D01*
X2192Y531D02*
X2199Y531D01*
X1Y530D02*
X8Y530D01*
X1731Y530D02*
X1741Y530D01*
X1769Y530D02*
X1775Y530D01*
X1796Y530D02*
X1802Y530D01*
X1972Y530D02*
X1976Y530D01*
X1993Y530D02*
X1998Y530D01*
X2011Y530D02*
X2015Y530D01*
X2025Y530D02*
X2030Y530D01*
X2032Y530D02*
X2036Y530D01*
X2054Y530D02*
X2058Y530D01*
X2068Y530D02*
X2073Y530D01*
X2192Y530D02*
X2199Y530D01*
X1Y529D02*
X8Y529D01*
X1731Y529D02*
X1741Y529D01*
X1769Y529D02*
X1775Y529D01*
X1796Y529D02*
X1802Y529D01*
X1972Y529D02*
X1976Y529D01*
X1993Y529D02*
X1998Y529D01*
X2011Y529D02*
X2015Y529D01*
X2025Y529D02*
X2030Y529D01*
X2032Y529D02*
X2036Y529D01*
X2054Y529D02*
X2058Y529D01*
X2067Y529D02*
X2073Y529D01*
X2192Y529D02*
X2199Y529D01*
X1Y528D02*
X8Y528D01*
X1731Y528D02*
X1742Y528D01*
X1769Y528D02*
X1775Y528D01*
X1796Y528D02*
X1802Y528D01*
X1972Y528D02*
X1976Y528D01*
X1993Y528D02*
X1998Y528D01*
X2011Y528D02*
X2015Y528D01*
X2026Y528D02*
X2036Y528D01*
X2054Y528D02*
X2058Y528D01*
X2067Y528D02*
X2072Y528D01*
X2192Y528D02*
X2199Y528D01*
X1Y527D02*
X8Y527D01*
X1731Y527D02*
X1742Y527D01*
X1769Y527D02*
X1775Y527D01*
X1796Y527D02*
X1802Y527D01*
X1972Y527D02*
X1976Y527D01*
X1993Y527D02*
X1998Y527D01*
X2011Y527D02*
X2015Y527D01*
X2026Y527D02*
X2036Y527D01*
X2054Y527D02*
X2058Y527D01*
X2066Y527D02*
X2072Y527D01*
X2192Y527D02*
X2199Y527D01*
X1Y526D02*
X8Y526D01*
X1730Y526D02*
X1742Y526D01*
X1769Y526D02*
X1775Y526D01*
X1796Y526D02*
X1802Y526D01*
X1972Y526D02*
X1976Y526D01*
X1993Y526D02*
X1998Y526D01*
X2011Y526D02*
X2015Y526D01*
X2027Y526D02*
X2036Y526D01*
X2054Y526D02*
X2058Y526D01*
X2066Y526D02*
X2071Y526D01*
X2192Y526D02*
X2199Y526D01*
X1Y525D02*
X8Y525D01*
X1730Y525D02*
X1743Y525D01*
X1769Y525D02*
X1775Y525D01*
X1796Y525D02*
X1802Y525D01*
X1972Y525D02*
X1977Y525D01*
X1993Y525D02*
X1998Y525D01*
X2011Y525D02*
X2015Y525D01*
X2027Y525D02*
X2036Y525D01*
X2054Y525D02*
X2058Y525D01*
X2065Y525D02*
X2071Y525D01*
X2192Y525D02*
X2199Y525D01*
X1Y524D02*
X8Y524D01*
X1730Y524D02*
X1743Y524D01*
X1769Y524D02*
X1775Y524D01*
X1796Y524D02*
X1802Y524D01*
X1972Y524D02*
X1978Y524D01*
X1992Y524D02*
X1997Y524D01*
X2011Y524D02*
X2015Y524D01*
X2028Y524D02*
X2036Y524D01*
X2054Y524D02*
X2058Y524D01*
X2065Y524D02*
X2070Y524D01*
X2192Y524D02*
X2199Y524D01*
X1Y523D02*
X8Y523D01*
X1729Y523D02*
X1743Y523D01*
X1769Y523D02*
X1775Y523D01*
X1796Y523D02*
X1802Y523D01*
X1973Y523D02*
X1997Y523D01*
X2011Y523D02*
X2015Y523D01*
X2028Y523D02*
X2036Y523D01*
X2050Y523D02*
X2070Y523D01*
X2192Y523D02*
X2199Y523D01*
X1Y522D02*
X8Y522D01*
X1729Y522D02*
X1735Y522D01*
X1737Y522D02*
X1743Y522D01*
X1769Y522D02*
X1775Y522D01*
X1796Y522D02*
X1802Y522D01*
X1973Y522D02*
X1996Y522D01*
X2011Y522D02*
X2015Y522D01*
X2029Y522D02*
X2036Y522D01*
X2049Y522D02*
X2069Y522D01*
X2192Y522D02*
X2199Y522D01*
X1Y521D02*
X8Y521D01*
X1729Y521D02*
X1735Y521D01*
X1738Y521D02*
X1744Y521D01*
X1769Y521D02*
X1775Y521D01*
X1796Y521D02*
X1802Y521D01*
X1974Y521D02*
X1996Y521D01*
X2011Y521D02*
X2015Y521D01*
X2029Y521D02*
X2036Y521D01*
X2049Y521D02*
X2068Y521D01*
X2192Y521D02*
X2199Y521D01*
X1Y520D02*
X8Y520D01*
X1728Y520D02*
X1735Y520D01*
X1738Y520D02*
X1744Y520D01*
X1769Y520D02*
X1775Y520D01*
X1796Y520D02*
X1802Y520D01*
X1975Y520D02*
X1995Y520D01*
X2011Y520D02*
X2015Y520D01*
X2029Y520D02*
X2036Y520D01*
X2049Y520D02*
X2067Y520D01*
X2192Y520D02*
X2199Y520D01*
X1Y519D02*
X8Y519D01*
X1728Y519D02*
X1734Y519D01*
X1738Y519D02*
X1744Y519D01*
X1769Y519D02*
X1775Y519D01*
X1796Y519D02*
X1802Y519D01*
X1976Y519D02*
X1993Y519D01*
X2011Y519D02*
X2014Y519D01*
X2030Y519D02*
X2036Y519D01*
X2049Y519D02*
X2066Y519D01*
X2192Y519D02*
X2199Y519D01*
X1Y518D02*
X8Y518D01*
X1728Y518D02*
X1734Y518D01*
X1739Y518D02*
X1745Y518D01*
X1769Y518D02*
X1775Y518D01*
X1796Y518D02*
X1802Y518D01*
X2192Y518D02*
X2199Y518D01*
X1Y517D02*
X8Y517D01*
X1728Y517D02*
X1734Y517D01*
X1739Y517D02*
X1745Y517D01*
X1769Y517D02*
X1775Y517D01*
X1796Y517D02*
X1802Y517D01*
X2192Y517D02*
X2199Y517D01*
X1Y516D02*
X8Y516D01*
X1727Y516D02*
X1733Y516D01*
X1739Y516D02*
X1745Y516D01*
X1769Y516D02*
X1775Y516D01*
X1796Y516D02*
X1802Y516D01*
X2192Y516D02*
X2199Y516D01*
X1Y515D02*
X8Y515D01*
X1727Y515D02*
X1733Y515D01*
X1739Y515D02*
X1746Y515D01*
X1769Y515D02*
X1775Y515D01*
X1796Y515D02*
X1802Y515D01*
X2192Y515D02*
X2199Y515D01*
X1Y514D02*
X8Y514D01*
X1727Y514D02*
X1733Y514D01*
X1740Y514D02*
X1746Y514D01*
X1769Y514D02*
X1775Y514D01*
X1796Y514D02*
X1802Y514D01*
X2192Y514D02*
X2199Y514D01*
X1Y513D02*
X8Y513D01*
X1726Y513D02*
X1733Y513D01*
X1740Y513D02*
X1746Y513D01*
X1769Y513D02*
X1775Y513D01*
X1796Y513D02*
X1802Y513D01*
X2192Y513D02*
X2199Y513D01*
X1Y512D02*
X8Y512D01*
X1726Y512D02*
X1732Y512D01*
X1740Y512D02*
X1746Y512D01*
X1769Y512D02*
X1775Y512D01*
X1796Y512D02*
X1802Y512D01*
X2192Y512D02*
X2199Y512D01*
X1Y511D02*
X8Y511D01*
X1726Y511D02*
X1732Y511D01*
X1741Y511D02*
X1747Y511D01*
X1769Y511D02*
X1775Y511D01*
X1796Y511D02*
X1802Y511D01*
X2192Y511D02*
X2199Y511D01*
X1Y510D02*
X8Y510D01*
X1726Y510D02*
X1732Y510D01*
X1741Y510D02*
X1747Y510D01*
X1769Y510D02*
X1775Y510D01*
X1796Y510D02*
X1802Y510D01*
X2192Y510D02*
X2199Y510D01*
X1Y509D02*
X8Y509D01*
X1725Y509D02*
X1731Y509D01*
X1741Y509D02*
X1747Y509D01*
X1769Y509D02*
X1775Y509D01*
X1796Y509D02*
X1802Y509D01*
X2192Y509D02*
X2199Y509D01*
X1Y508D02*
X8Y508D01*
X1725Y508D02*
X1731Y508D01*
X1741Y508D02*
X1748Y508D01*
X1769Y508D02*
X1775Y508D01*
X1796Y508D02*
X1802Y508D01*
X2192Y508D02*
X2199Y508D01*
X1Y507D02*
X8Y507D01*
X1725Y507D02*
X1731Y507D01*
X1742Y507D02*
X1748Y507D01*
X1769Y507D02*
X1775Y507D01*
X1796Y507D02*
X1802Y507D01*
X2192Y507D02*
X2199Y507D01*
X1Y506D02*
X8Y506D01*
X1724Y506D02*
X1731Y506D01*
X1742Y506D02*
X1748Y506D01*
X1769Y506D02*
X1775Y506D01*
X1796Y506D02*
X1802Y506D01*
X2192Y506D02*
X2199Y506D01*
X1Y505D02*
X8Y505D01*
X1724Y505D02*
X1731Y505D01*
X1742Y505D02*
X1748Y505D01*
X1769Y505D02*
X1775Y505D01*
X1796Y505D02*
X1802Y505D01*
X2192Y505D02*
X2199Y505D01*
X1Y504D02*
X8Y504D01*
X1724Y504D02*
X1749Y504D01*
X1769Y504D02*
X1775Y504D01*
X1796Y504D02*
X1802Y504D01*
X2192Y504D02*
X2199Y504D01*
X1Y503D02*
X8Y503D01*
X1723Y503D02*
X1749Y503D01*
X1769Y503D02*
X1775Y503D01*
X1796Y503D02*
X1802Y503D01*
X2192Y503D02*
X2199Y503D01*
X1Y502D02*
X8Y502D01*
X1723Y502D02*
X1749Y502D01*
X1769Y502D02*
X1775Y502D01*
X1796Y502D02*
X1802Y502D01*
X2192Y502D02*
X2199Y502D01*
X1Y501D02*
X8Y501D01*
X1723Y501D02*
X1750Y501D01*
X1769Y501D02*
X1775Y501D01*
X1796Y501D02*
X1802Y501D01*
X2192Y501D02*
X2199Y501D01*
X1Y500D02*
X8Y500D01*
X1723Y500D02*
X1750Y500D01*
X1769Y500D02*
X1775Y500D01*
X1796Y500D02*
X1802Y500D01*
X2192Y500D02*
X2199Y500D01*
X1Y499D02*
X8Y499D01*
X1722Y499D02*
X1750Y499D01*
X1769Y499D02*
X1775Y499D01*
X1796Y499D02*
X1802Y499D01*
X2192Y499D02*
X2199Y499D01*
X1Y498D02*
X8Y498D01*
X1722Y498D02*
X1728Y498D01*
X1744Y498D02*
X1751Y498D01*
X1769Y498D02*
X1775Y498D01*
X1796Y498D02*
X1802Y498D01*
X2192Y498D02*
X2199Y498D01*
X1Y497D02*
X8Y497D01*
X1722Y497D02*
X1728Y497D01*
X1745Y497D02*
X1751Y497D01*
X1769Y497D02*
X1775Y497D01*
X1796Y497D02*
X1802Y497D01*
X2192Y497D02*
X2199Y497D01*
X1Y496D02*
X8Y496D01*
X1721Y496D02*
X1728Y496D01*
X1745Y496D02*
X1751Y496D01*
X1769Y496D02*
X1775Y496D01*
X1796Y496D02*
X1802Y496D01*
X2192Y496D02*
X2199Y496D01*
X1Y495D02*
X8Y495D01*
X1721Y495D02*
X1727Y495D01*
X1745Y495D02*
X1751Y495D01*
X1769Y495D02*
X1775Y495D01*
X1796Y495D02*
X1802Y495D01*
X2192Y495D02*
X2199Y495D01*
X1Y494D02*
X8Y494D01*
X1721Y494D02*
X1727Y494D01*
X1746Y494D02*
X1752Y494D01*
X1769Y494D02*
X1775Y494D01*
X1796Y494D02*
X1802Y494D01*
X2192Y494D02*
X2199Y494D01*
X1Y493D02*
X8Y493D01*
X1721Y493D02*
X1727Y493D01*
X1746Y493D02*
X1752Y493D01*
X1769Y493D02*
X1802Y493D01*
X2192Y493D02*
X2199Y493D01*
X1Y492D02*
X8Y492D01*
X1720Y492D02*
X1726Y492D01*
X1746Y492D02*
X1752Y492D01*
X1769Y492D02*
X1802Y492D01*
X2192Y492D02*
X2199Y492D01*
X1Y491D02*
X8Y491D01*
X1720Y491D02*
X1726Y491D01*
X1746Y491D02*
X1753Y491D01*
X1769Y491D02*
X1801Y491D01*
X2192Y491D02*
X2199Y491D01*
X1Y490D02*
X8Y490D01*
X1720Y490D02*
X1726Y490D01*
X1747Y490D02*
X1753Y490D01*
X1770Y490D02*
X1801Y490D01*
X2192Y490D02*
X2199Y490D01*
X1Y489D02*
X8Y489D01*
X1720Y489D02*
X1726Y489D01*
X1747Y489D02*
X1752Y489D01*
X1771Y489D02*
X1800Y489D01*
X2192Y489D02*
X2199Y489D01*
X1Y488D02*
X8Y488D01*
X1721Y488D02*
X1725Y488D01*
X1748Y488D02*
X1752Y488D01*
X1772Y488D02*
X1799Y488D01*
X2192Y488D02*
X2199Y488D01*
X1Y487D02*
X8Y487D01*
X1722Y487D02*
X1724Y487D01*
X1749Y487D02*
X1751Y487D01*
X1774Y487D02*
X1797Y487D01*
X2192Y487D02*
X2199Y487D01*
X1Y486D02*
X8Y486D01*
X2192Y486D02*
X2199Y486D01*
X1Y485D02*
X8Y485D01*
X2192Y485D02*
X2199Y485D01*
X1Y484D02*
X8Y484D01*
X2192Y484D02*
X2199Y484D01*
X1Y483D02*
X8Y483D01*
X2192Y483D02*
X2199Y483D01*
X1Y482D02*
X8Y482D01*
X2192Y482D02*
X2199Y482D01*
X1Y481D02*
X8Y481D01*
X2192Y481D02*
X2199Y481D01*
X1Y480D02*
X8Y480D01*
X2192Y480D02*
X2199Y480D01*
X1Y479D02*
X8Y479D01*
X2192Y479D02*
X2199Y479D01*
X1Y478D02*
X8Y478D01*
X2192Y478D02*
X2199Y478D01*
X1Y477D02*
X8Y477D01*
X2192Y477D02*
X2199Y477D01*
X1Y476D02*
X8Y476D01*
X2192Y476D02*
X2199Y476D01*
X1Y475D02*
X8Y475D01*
X2192Y475D02*
X2199Y475D01*
X1Y474D02*
X8Y474D01*
X2192Y474D02*
X2199Y474D01*
X1Y473D02*
X8Y473D01*
X2192Y473D02*
X2199Y473D01*
X1Y472D02*
X8Y472D01*
X2192Y472D02*
X2199Y472D01*
X1Y471D02*
X8Y471D01*
X2192Y471D02*
X2199Y471D01*
X1Y470D02*
X8Y470D01*
X2192Y470D02*
X2199Y470D01*
X1Y469D02*
X8Y469D01*
X2192Y469D02*
X2199Y469D01*
X1Y468D02*
X8Y468D01*
X2192Y468D02*
X2199Y468D01*
X1Y467D02*
X8Y467D01*
X2192Y467D02*
X2199Y467D01*
X1Y466D02*
X8Y466D01*
X2192Y466D02*
X2199Y466D01*
X1Y465D02*
X8Y465D01*
X2192Y465D02*
X2199Y465D01*
X1Y464D02*
X8Y464D01*
X2192Y464D02*
X2199Y464D01*
X1Y463D02*
X8Y463D01*
X2192Y463D02*
X2199Y463D01*
X1Y462D02*
X8Y462D01*
X2192Y462D02*
X2199Y462D01*
X1Y461D02*
X8Y461D01*
X2192Y461D02*
X2199Y461D01*
X1Y460D02*
X8Y460D01*
X2192Y460D02*
X2199Y460D01*
X1Y459D02*
X8Y459D01*
X2192Y459D02*
X2199Y459D01*
X1Y458D02*
X8Y458D01*
X2192Y458D02*
X2199Y458D01*
X1Y457D02*
X8Y457D01*
X2192Y457D02*
X2199Y457D01*
X1Y456D02*
X8Y456D01*
X2192Y456D02*
X2199Y456D01*
X1Y455D02*
X8Y455D01*
X2192Y455D02*
X2199Y455D01*
X1Y454D02*
X8Y454D01*
X2192Y454D02*
X2199Y454D01*
X1Y453D02*
X8Y453D01*
X2192Y453D02*
X2199Y453D01*
X1Y452D02*
X8Y452D01*
X2192Y452D02*
X2199Y452D01*
X1Y451D02*
X8Y451D01*
X2192Y451D02*
X2199Y451D01*
X1Y450D02*
X8Y450D01*
X2192Y450D02*
X2199Y450D01*
X1Y449D02*
X8Y449D01*
X2192Y449D02*
X2199Y449D01*
X1Y448D02*
X8Y448D01*
X2192Y448D02*
X2199Y448D01*
X1Y447D02*
X8Y447D01*
X2192Y447D02*
X2199Y447D01*
X1Y446D02*
X8Y446D01*
X2192Y446D02*
X2199Y446D01*
X1Y445D02*
X8Y445D01*
X2192Y445D02*
X2199Y445D01*
X1Y444D02*
X8Y444D01*
X2192Y444D02*
X2199Y444D01*
X1Y443D02*
X8Y443D01*
X2192Y443D02*
X2199Y443D01*
X1Y442D02*
X8Y442D01*
X2192Y442D02*
X2199Y442D01*
X1Y441D02*
X8Y441D01*
X2192Y441D02*
X2199Y441D01*
X1Y440D02*
X8Y440D01*
X2192Y440D02*
X2199Y440D01*
X1Y439D02*
X8Y439D01*
X2192Y439D02*
X2199Y439D01*
X1Y438D02*
X8Y438D01*
X2192Y438D02*
X2199Y438D01*
X1Y437D02*
X8Y437D01*
X2192Y437D02*
X2199Y437D01*
X1Y436D02*
X8Y436D01*
X2192Y436D02*
X2199Y436D01*
X1Y435D02*
X8Y435D01*
X2192Y435D02*
X2199Y435D01*
X1Y434D02*
X8Y434D01*
X2192Y434D02*
X2199Y434D01*
X1Y433D02*
X8Y433D01*
X2192Y433D02*
X2199Y433D01*
X1Y432D02*
X8Y432D01*
X2192Y432D02*
X2199Y432D01*
X1Y431D02*
X8Y431D01*
X2192Y431D02*
X2199Y431D01*
X1Y430D02*
X8Y430D01*
X2192Y430D02*
X2199Y430D01*
X1Y429D02*
X8Y429D01*
X2192Y429D02*
X2199Y429D01*
X1Y428D02*
X8Y428D01*
X2192Y428D02*
X2199Y428D01*
X1Y427D02*
X8Y427D01*
X2192Y427D02*
X2199Y427D01*
X1Y426D02*
X8Y426D01*
X2192Y426D02*
X2199Y426D01*
X1Y425D02*
X8Y425D01*
X2192Y425D02*
X2199Y425D01*
X1Y424D02*
X8Y424D01*
X2192Y424D02*
X2199Y424D01*
X1Y423D02*
X8Y423D01*
X2192Y423D02*
X2199Y423D01*
X1Y422D02*
X8Y422D01*
X2192Y422D02*
X2199Y422D01*
X1Y421D02*
X8Y421D01*
X2192Y421D02*
X2199Y421D01*
X1Y420D02*
X8Y420D01*
X2192Y420D02*
X2199Y420D01*
X1Y419D02*
X8Y419D01*
X2192Y419D02*
X2199Y419D01*
X1Y418D02*
X8Y418D01*
X2192Y418D02*
X2199Y418D01*
X1Y417D02*
X8Y417D01*
X2192Y417D02*
X2199Y417D01*
X1Y416D02*
X8Y416D01*
X2192Y416D02*
X2199Y416D01*
X1Y415D02*
X8Y415D01*
X2192Y415D02*
X2199Y415D01*
X1Y414D02*
X8Y414D01*
X2192Y414D02*
X2199Y414D01*
X1Y413D02*
X8Y413D01*
X2192Y413D02*
X2199Y413D01*
X1Y412D02*
X8Y412D01*
X2192Y412D02*
X2199Y412D01*
X1Y411D02*
X8Y411D01*
X2192Y411D02*
X2199Y411D01*
X1Y410D02*
X8Y410D01*
X2192Y410D02*
X2199Y410D01*
X1Y409D02*
X8Y409D01*
X2192Y409D02*
X2199Y409D01*
X1Y408D02*
X8Y408D01*
X2192Y408D02*
X2199Y408D01*
X1Y407D02*
X8Y407D01*
X2192Y407D02*
X2199Y407D01*
X1Y406D02*
X8Y406D01*
X2192Y406D02*
X2199Y406D01*
X1Y405D02*
X8Y405D01*
X2192Y405D02*
X2199Y405D01*
X1Y404D02*
X8Y404D01*
X2192Y404D02*
X2199Y404D01*
X1Y403D02*
X8Y403D01*
X2192Y403D02*
X2199Y403D01*
X1Y402D02*
X8Y402D01*
X2192Y402D02*
X2199Y402D01*
X1Y401D02*
X8Y401D01*
X2192Y401D02*
X2199Y401D01*
X1Y400D02*
X8Y400D01*
X2192Y400D02*
X2199Y400D01*
X1Y399D02*
X8Y399D01*
X2192Y399D02*
X2199Y399D01*
X1Y398D02*
X8Y398D01*
X2192Y398D02*
X2199Y398D01*
X1Y397D02*
X8Y397D01*
X2192Y397D02*
X2199Y397D01*
X1Y396D02*
X8Y396D01*
X2192Y396D02*
X2199Y396D01*
X1Y395D02*
X8Y395D01*
X2192Y395D02*
X2199Y395D01*
X1Y394D02*
X8Y394D01*
X2192Y394D02*
X2199Y394D01*
X1Y393D02*
X8Y393D01*
X2192Y393D02*
X2199Y393D01*
X1Y392D02*
X8Y392D01*
X2192Y392D02*
X2199Y392D01*
X1Y391D02*
X8Y391D01*
X2192Y391D02*
X2199Y391D01*
X1Y390D02*
X8Y390D01*
X2192Y390D02*
X2199Y390D01*
X1Y389D02*
X8Y389D01*
X2192Y389D02*
X2199Y389D01*
X1Y388D02*
X8Y388D01*
X2192Y388D02*
X2199Y388D01*
X1Y387D02*
X8Y387D01*
X2192Y387D02*
X2199Y387D01*
X1Y386D02*
X8Y386D01*
X2192Y386D02*
X2199Y386D01*
X1Y385D02*
X8Y385D01*
X2192Y385D02*
X2199Y385D01*
X1Y384D02*
X8Y384D01*
X2192Y384D02*
X2199Y384D01*
X1Y383D02*
X8Y383D01*
X2192Y383D02*
X2199Y383D01*
X1Y382D02*
X8Y382D01*
X2192Y382D02*
X2199Y382D01*
X1Y381D02*
X8Y381D01*
X2192Y381D02*
X2199Y381D01*
X1Y380D02*
X8Y380D01*
X2192Y380D02*
X2199Y380D01*
X1Y379D02*
X8Y379D01*
X2192Y379D02*
X2199Y379D01*
X1Y378D02*
X8Y378D01*
X2192Y378D02*
X2199Y378D01*
X1Y377D02*
X8Y377D01*
X2192Y377D02*
X2199Y377D01*
X1Y376D02*
X8Y376D01*
X2192Y376D02*
X2199Y376D01*
X1Y375D02*
X8Y375D01*
X2192Y375D02*
X2199Y375D01*
X1Y374D02*
X8Y374D01*
X2192Y374D02*
X2199Y374D01*
X1Y373D02*
X8Y373D01*
X2192Y373D02*
X2199Y373D01*
X1Y372D02*
X8Y372D01*
X2192Y372D02*
X2199Y372D01*
X1Y371D02*
X8Y371D01*
X2192Y371D02*
X2199Y371D01*
X1Y370D02*
X8Y370D01*
X2192Y370D02*
X2199Y370D01*
X1Y369D02*
X8Y369D01*
X2192Y369D02*
X2199Y369D01*
X1Y368D02*
X8Y368D01*
X2192Y368D02*
X2199Y368D01*
X1Y367D02*
X8Y367D01*
X2192Y367D02*
X2199Y367D01*
X1Y366D02*
X8Y366D01*
X2192Y366D02*
X2199Y366D01*
X1Y365D02*
X8Y365D01*
X2192Y365D02*
X2199Y365D01*
X1Y364D02*
X8Y364D01*
X2192Y364D02*
X2199Y364D01*
X1Y363D02*
X8Y363D01*
X2192Y363D02*
X2199Y363D01*
X1Y362D02*
X8Y362D01*
X2192Y362D02*
X2199Y362D01*
X1Y361D02*
X8Y361D01*
X2192Y361D02*
X2199Y361D01*
X1Y360D02*
X8Y360D01*
X2192Y360D02*
X2199Y360D01*
X1Y359D02*
X8Y359D01*
X2192Y359D02*
X2199Y359D01*
X1Y358D02*
X8Y358D01*
X2192Y358D02*
X2199Y358D01*
X1Y357D02*
X8Y357D01*
X2192Y357D02*
X2199Y357D01*
X1Y356D02*
X8Y356D01*
X2192Y356D02*
X2199Y356D01*
X1Y355D02*
X8Y355D01*
X2192Y355D02*
X2199Y355D01*
X1Y354D02*
X8Y354D01*
X2192Y354D02*
X2199Y354D01*
X1Y353D02*
X8Y353D01*
X2192Y353D02*
X2199Y353D01*
X1Y352D02*
X8Y352D01*
X2192Y352D02*
X2199Y352D01*
X1Y351D02*
X8Y351D01*
X2192Y351D02*
X2199Y351D01*
X1Y350D02*
X8Y350D01*
X2192Y350D02*
X2199Y350D01*
X1Y349D02*
X8Y349D01*
X2192Y349D02*
X2199Y349D01*
X1Y348D02*
X8Y348D01*
X2192Y348D02*
X2199Y348D01*
X1Y347D02*
X8Y347D01*
X2192Y347D02*
X2199Y347D01*
X1Y346D02*
X8Y346D01*
X2192Y346D02*
X2199Y346D01*
X1Y345D02*
X8Y345D01*
X2192Y345D02*
X2199Y345D01*
X1Y344D02*
X8Y344D01*
X2192Y344D02*
X2199Y344D01*
X1Y343D02*
X8Y343D01*
X2192Y343D02*
X2199Y343D01*
X1Y342D02*
X8Y342D01*
X2192Y342D02*
X2199Y342D01*
X1Y341D02*
X8Y341D01*
X2192Y341D02*
X2199Y341D01*
X1Y340D02*
X8Y340D01*
X2192Y340D02*
X2199Y340D01*
X1Y339D02*
X8Y339D01*
X2192Y339D02*
X2199Y339D01*
X1Y338D02*
X8Y338D01*
X2192Y338D02*
X2199Y338D01*
X1Y337D02*
X8Y337D01*
X2192Y337D02*
X2199Y337D01*
X1Y336D02*
X8Y336D01*
X2192Y336D02*
X2199Y336D01*
X1Y335D02*
X8Y335D01*
X2192Y335D02*
X2199Y335D01*
X1Y334D02*
X8Y334D01*
X2192Y334D02*
X2199Y334D01*
X1Y333D02*
X8Y333D01*
X2192Y333D02*
X2199Y333D01*
X1Y332D02*
X8Y332D01*
X2192Y332D02*
X2199Y332D01*
X1Y331D02*
X8Y331D01*
X2192Y331D02*
X2199Y331D01*
X1Y330D02*
X8Y330D01*
X2192Y330D02*
X2199Y330D01*
X1Y329D02*
X8Y329D01*
X2192Y329D02*
X2199Y329D01*
X1Y328D02*
X8Y328D01*
X2192Y328D02*
X2199Y328D01*
X1Y327D02*
X8Y327D01*
X2192Y327D02*
X2199Y327D01*
X1Y326D02*
X8Y326D01*
X2192Y326D02*
X2199Y326D01*
X1Y325D02*
X8Y325D01*
X2192Y325D02*
X2199Y325D01*
X1Y324D02*
X8Y324D01*
X2192Y324D02*
X2199Y324D01*
X1Y323D02*
X8Y323D01*
X2192Y323D02*
X2199Y323D01*
X1Y322D02*
X8Y322D01*
X2192Y322D02*
X2199Y322D01*
X1Y321D02*
X8Y321D01*
X2192Y321D02*
X2199Y321D01*
X1Y320D02*
X8Y320D01*
X2192Y320D02*
X2199Y320D01*
X1Y319D02*
X8Y319D01*
X2192Y319D02*
X2199Y319D01*
X1Y318D02*
X8Y318D01*
X2192Y318D02*
X2199Y318D01*
X1Y317D02*
X8Y317D01*
X2192Y317D02*
X2199Y317D01*
X1Y316D02*
X8Y316D01*
X2192Y316D02*
X2199Y316D01*
X1Y315D02*
X8Y315D01*
X2192Y315D02*
X2199Y315D01*
X1Y314D02*
X8Y314D01*
X2192Y314D02*
X2199Y314D01*
X1Y313D02*
X8Y313D01*
X2192Y313D02*
X2199Y313D01*
X1Y312D02*
X8Y312D01*
X2192Y312D02*
X2199Y312D01*
X1Y311D02*
X8Y311D01*
X2192Y311D02*
X2199Y311D01*
X1Y310D02*
X8Y310D01*
X2192Y310D02*
X2199Y310D01*
X1Y309D02*
X8Y309D01*
X2192Y309D02*
X2199Y309D01*
X1Y308D02*
X8Y308D01*
X2192Y308D02*
X2199Y308D01*
X1Y307D02*
X8Y307D01*
X2192Y307D02*
X2199Y307D01*
X1Y306D02*
X8Y306D01*
X2192Y306D02*
X2199Y306D01*
X1Y305D02*
X8Y305D01*
X2192Y305D02*
X2199Y305D01*
X1Y304D02*
X8Y304D01*
X2192Y304D02*
X2199Y304D01*
X1Y303D02*
X8Y303D01*
X2192Y303D02*
X2199Y303D01*
X1Y302D02*
X8Y302D01*
X2192Y302D02*
X2199Y302D01*
X1Y301D02*
X8Y301D01*
X2192Y301D02*
X2199Y301D01*
X1Y300D02*
X8Y300D01*
X2192Y300D02*
X2199Y300D01*
X1Y299D02*
X8Y299D01*
X2192Y299D02*
X2199Y299D01*
X1Y298D02*
X8Y298D01*
X2192Y298D02*
X2199Y298D01*
X1Y297D02*
X8Y297D01*
X2192Y297D02*
X2199Y297D01*
X1Y296D02*
X8Y296D01*
X2192Y296D02*
X2199Y296D01*
X1Y295D02*
X8Y295D01*
X2192Y295D02*
X2199Y295D01*
X1Y294D02*
X8Y294D01*
X2192Y294D02*
X2199Y294D01*
X1Y293D02*
X8Y293D01*
X2192Y293D02*
X2199Y293D01*
X1Y292D02*
X8Y292D01*
X2192Y292D02*
X2199Y292D01*
X1Y291D02*
X8Y291D01*
X2192Y291D02*
X2199Y291D01*
X1Y290D02*
X8Y290D01*
X2192Y290D02*
X2199Y290D01*
X1Y289D02*
X8Y289D01*
X2192Y289D02*
X2199Y289D01*
X1Y288D02*
X8Y288D01*
X2192Y288D02*
X2199Y288D01*
X1Y287D02*
X8Y287D01*
X2192Y287D02*
X2199Y287D01*
X1Y286D02*
X8Y286D01*
X2192Y286D02*
X2199Y286D01*
X1Y285D02*
X8Y285D01*
X2192Y285D02*
X2199Y285D01*
X1Y284D02*
X8Y284D01*
X2192Y284D02*
X2199Y284D01*
X1Y283D02*
X8Y283D01*
X2192Y283D02*
X2199Y283D01*
X1Y282D02*
X8Y282D01*
X2192Y282D02*
X2199Y282D01*
X1Y281D02*
X8Y281D01*
X2192Y281D02*
X2199Y281D01*
X1Y280D02*
X8Y280D01*
X2192Y280D02*
X2199Y280D01*
X1Y279D02*
X8Y279D01*
X2192Y279D02*
X2199Y279D01*
X1Y278D02*
X8Y278D01*
X2192Y278D02*
X2199Y278D01*
X1Y277D02*
X8Y277D01*
X2192Y277D02*
X2199Y277D01*
X1Y276D02*
X8Y276D01*
X2192Y276D02*
X2199Y276D01*
X1Y275D02*
X8Y275D01*
X2192Y275D02*
X2199Y275D01*
X1Y274D02*
X8Y274D01*
X2192Y274D02*
X2199Y274D01*
X1Y273D02*
X8Y273D01*
X2192Y273D02*
X2199Y273D01*
X1Y272D02*
X8Y272D01*
X2192Y272D02*
X2199Y272D01*
X1Y271D02*
X8Y271D01*
X2192Y271D02*
X2199Y271D01*
X1Y270D02*
X8Y270D01*
X2192Y270D02*
X2199Y270D01*
X1Y269D02*
X8Y269D01*
X2192Y269D02*
X2199Y269D01*
X1Y268D02*
X8Y268D01*
X2192Y268D02*
X2199Y268D01*
X1Y267D02*
X8Y267D01*
X2192Y267D02*
X2199Y267D01*
X1Y266D02*
X8Y266D01*
X2192Y266D02*
X2199Y266D01*
X1Y265D02*
X8Y265D01*
X2192Y265D02*
X2199Y265D01*
X1Y264D02*
X8Y264D01*
X2192Y264D02*
X2199Y264D01*
X1Y263D02*
X8Y263D01*
X2192Y263D02*
X2199Y263D01*
X1Y262D02*
X8Y262D01*
X2192Y262D02*
X2199Y262D01*
X1Y261D02*
X8Y261D01*
X2192Y261D02*
X2199Y261D01*
X1Y260D02*
X8Y260D01*
X2192Y260D02*
X2199Y260D01*
X1Y259D02*
X8Y259D01*
X2192Y259D02*
X2199Y259D01*
X1Y258D02*
X8Y258D01*
X2192Y258D02*
X2199Y258D01*
X1Y257D02*
X8Y257D01*
X2192Y257D02*
X2199Y257D01*
X1Y256D02*
X8Y256D01*
X2192Y256D02*
X2199Y256D01*
X1Y255D02*
X8Y255D01*
X2192Y255D02*
X2199Y255D01*
X1Y254D02*
X8Y254D01*
X2192Y254D02*
X2199Y254D01*
X1Y253D02*
X8Y253D01*
X2192Y253D02*
X2199Y253D01*
X1Y252D02*
X8Y252D01*
X2192Y252D02*
X2199Y252D01*
X1Y251D02*
X8Y251D01*
X2192Y251D02*
X2199Y251D01*
X1Y250D02*
X8Y250D01*
X2192Y250D02*
X2199Y250D01*
X1Y249D02*
X8Y249D01*
X2192Y249D02*
X2199Y249D01*
X1Y248D02*
X8Y248D01*
X2192Y248D02*
X2199Y248D01*
X1Y247D02*
X8Y247D01*
X183Y247D02*
X279Y247D01*
X306Y247D02*
X379Y247D01*
X406Y247D02*
X479Y247D01*
X507Y247D02*
X603Y247D01*
X2192Y247D02*
X2199Y247D01*
X1Y246D02*
X8Y246D01*
X183Y246D02*
X276Y246D01*
X309Y246D02*
X376Y246D01*
X409Y246D02*
X476Y246D01*
X509Y246D02*
X603Y246D01*
X2192Y246D02*
X2199Y246D01*
X1Y245D02*
X8Y245D01*
X183Y245D02*
X274Y245D01*
X311Y245D02*
X374Y245D01*
X411Y245D02*
X474Y245D01*
X511Y245D02*
X603Y245D01*
X2192Y245D02*
X2199Y245D01*
X1Y244D02*
X8Y244D01*
X183Y244D02*
X272Y244D01*
X313Y244D02*
X372Y244D01*
X413Y244D02*
X472Y244D01*
X513Y244D02*
X603Y244D01*
X2192Y244D02*
X2199Y244D01*
X1Y243D02*
X8Y243D01*
X183Y243D02*
X270Y243D01*
X315Y243D02*
X370Y243D01*
X415Y243D02*
X470Y243D01*
X515Y243D02*
X603Y243D01*
X2192Y243D02*
X2199Y243D01*
X1Y242D02*
X8Y242D01*
X183Y242D02*
X268Y242D01*
X317Y242D02*
X368Y242D01*
X417Y242D02*
X468Y242D01*
X517Y242D02*
X603Y242D01*
X2192Y242D02*
X2199Y242D01*
X1Y241D02*
X8Y241D01*
X183Y241D02*
X267Y241D01*
X318Y241D02*
X367Y241D01*
X418Y241D02*
X467Y241D01*
X518Y241D02*
X603Y241D01*
X2192Y241D02*
X2199Y241D01*
X1Y240D02*
X8Y240D01*
X183Y240D02*
X266Y240D01*
X319Y240D02*
X366Y240D01*
X419Y240D02*
X466Y240D01*
X519Y240D02*
X603Y240D01*
X2192Y240D02*
X2199Y240D01*
X1Y239D02*
X8Y239D01*
X183Y239D02*
X265Y239D01*
X321Y239D02*
X365Y239D01*
X421Y239D02*
X464Y239D01*
X521Y239D02*
X603Y239D01*
X2192Y239D02*
X2199Y239D01*
X1Y238D02*
X8Y238D01*
X183Y238D02*
X263Y238D01*
X322Y238D02*
X363Y238D01*
X422Y238D02*
X463Y238D01*
X522Y238D02*
X603Y238D01*
X2192Y238D02*
X2199Y238D01*
X1Y237D02*
X8Y237D01*
X2192Y237D02*
X2199Y237D01*
X1Y236D02*
X8Y236D01*
X2192Y236D02*
X2199Y236D01*
X1Y235D02*
X8Y235D01*
X2192Y235D02*
X2199Y235D01*
X1Y234D02*
X8Y234D01*
X2192Y234D02*
X2199Y234D01*
X1Y233D02*
X8Y233D01*
X2192Y233D02*
X2199Y233D01*
X1Y232D02*
X8Y232D01*
X2192Y232D02*
X2199Y232D01*
X1Y231D02*
X8Y231D01*
X2192Y231D02*
X2199Y231D01*
X1Y230D02*
X8Y230D01*
X2192Y230D02*
X2199Y230D01*
X1Y229D02*
X8Y229D01*
X2192Y229D02*
X2199Y229D01*
X1Y228D02*
X8Y228D01*
X2192Y228D02*
X2199Y228D01*
X1Y227D02*
X8Y227D01*
X2192Y227D02*
X2199Y227D01*
X1Y226D02*
X8Y226D01*
X2192Y226D02*
X2199Y226D01*
X1Y225D02*
X8Y225D01*
X2192Y225D02*
X2199Y225D01*
X1Y224D02*
X8Y224D01*
X2192Y224D02*
X2199Y224D01*
X1Y223D02*
X8Y223D01*
X2192Y223D02*
X2199Y223D01*
X1Y222D02*
X8Y222D01*
X2192Y222D02*
X2199Y222D01*
X1Y221D02*
X8Y221D01*
X2192Y221D02*
X2199Y221D01*
X1Y220D02*
X8Y220D01*
X2192Y220D02*
X2199Y220D01*
X1Y219D02*
X8Y219D01*
X2192Y219D02*
X2199Y219D01*
X1Y218D02*
X8Y218D01*
X2192Y218D02*
X2199Y218D01*
X1Y217D02*
X8Y217D01*
X2192Y217D02*
X2199Y217D01*
X1Y216D02*
X8Y216D01*
X2192Y216D02*
X2199Y216D01*
X1Y215D02*
X8Y215D01*
X2192Y215D02*
X2199Y215D01*
X1Y214D02*
X8Y214D01*
X2192Y214D02*
X2199Y214D01*
X1Y213D02*
X8Y213D01*
X2192Y213D02*
X2199Y213D01*
X1Y212D02*
X8Y212D01*
X2192Y212D02*
X2199Y212D01*
X1Y211D02*
X8Y211D01*
X2192Y211D02*
X2199Y211D01*
X1Y210D02*
X8Y210D01*
X2192Y210D02*
X2199Y210D01*
X1Y209D02*
X8Y209D01*
X2192Y209D02*
X2199Y209D01*
X1Y208D02*
X8Y208D01*
X2192Y208D02*
X2199Y208D01*
X1Y207D02*
X8Y207D01*
X2192Y207D02*
X2199Y207D01*
X1Y206D02*
X8Y206D01*
X2192Y206D02*
X2199Y206D01*
X1Y205D02*
X8Y205D01*
X2192Y205D02*
X2199Y205D01*
X1Y204D02*
X8Y204D01*
X2192Y204D02*
X2199Y204D01*
X1Y203D02*
X8Y203D01*
X2192Y203D02*
X2199Y203D01*
X1Y202D02*
X8Y202D01*
X2192Y202D02*
X2199Y202D01*
X1Y201D02*
X8Y201D01*
X2192Y201D02*
X2199Y201D01*
X1Y200D02*
X8Y200D01*
X2192Y200D02*
X2199Y200D01*
X1Y199D02*
X8Y199D01*
X2192Y199D02*
X2199Y199D01*
X1Y198D02*
X8Y198D01*
X2192Y198D02*
X2199Y198D01*
X1Y197D02*
X8Y197D01*
X2192Y197D02*
X2199Y197D01*
X1Y196D02*
X8Y196D01*
X2192Y196D02*
X2199Y196D01*
X1Y195D02*
X8Y195D01*
X2192Y195D02*
X2199Y195D01*
X1Y194D02*
X8Y194D01*
X2192Y194D02*
X2199Y194D01*
X1Y193D02*
X8Y193D01*
X2192Y193D02*
X2199Y193D01*
X1Y192D02*
X8Y192D01*
X2192Y192D02*
X2199Y192D01*
X1Y191D02*
X8Y191D01*
X2192Y191D02*
X2199Y191D01*
X1Y190D02*
X8Y190D01*
X2192Y190D02*
X2199Y190D01*
X1Y189D02*
X8Y189D01*
X2192Y189D02*
X2199Y189D01*
X1Y188D02*
X8Y188D01*
X2192Y188D02*
X2199Y188D01*
X1Y187D02*
X8Y187D01*
X2192Y187D02*
X2199Y187D01*
X1Y186D02*
X8Y186D01*
X2192Y186D02*
X2199Y186D01*
X1Y185D02*
X8Y185D01*
X2192Y185D02*
X2199Y185D01*
X1Y184D02*
X8Y184D01*
X2192Y184D02*
X2199Y184D01*
X1Y183D02*
X8Y183D01*
X2192Y183D02*
X2199Y183D01*
X1Y182D02*
X8Y182D01*
X2192Y182D02*
X2199Y182D01*
X1Y181D02*
X8Y181D01*
X2192Y181D02*
X2199Y181D01*
X1Y180D02*
X8Y180D01*
X2192Y180D02*
X2199Y180D01*
X1Y179D02*
X8Y179D01*
X2192Y179D02*
X2199Y179D01*
X1Y178D02*
X8Y178D01*
X2192Y178D02*
X2199Y178D01*
X1Y177D02*
X8Y177D01*
X2192Y177D02*
X2199Y177D01*
X1Y176D02*
X8Y176D01*
X2192Y176D02*
X2199Y176D01*
X1Y175D02*
X8Y175D01*
X2192Y175D02*
X2199Y175D01*
X1Y174D02*
X8Y174D01*
X2192Y174D02*
X2199Y174D01*
X1Y173D02*
X8Y173D01*
X2192Y173D02*
X2199Y173D01*
X1Y172D02*
X8Y172D01*
X2192Y172D02*
X2199Y172D01*
X1Y171D02*
X8Y171D01*
X2192Y171D02*
X2199Y171D01*
X1Y170D02*
X8Y170D01*
X2192Y170D02*
X2199Y170D01*
X1Y169D02*
X8Y169D01*
X2192Y169D02*
X2199Y169D01*
X1Y168D02*
X8Y168D01*
X2192Y168D02*
X2199Y168D01*
X1Y167D02*
X8Y167D01*
X2192Y167D02*
X2199Y167D01*
X1Y166D02*
X8Y166D01*
X2192Y166D02*
X2199Y166D01*
X1Y165D02*
X8Y165D01*
X2192Y165D02*
X2199Y165D01*
X1Y164D02*
X8Y164D01*
X2192Y164D02*
X2199Y164D01*
X1Y163D02*
X8Y163D01*
X2192Y163D02*
X2199Y163D01*
X1Y162D02*
X8Y162D01*
X2192Y162D02*
X2199Y162D01*
X1Y161D02*
X8Y161D01*
X2192Y161D02*
X2199Y161D01*
X1Y160D02*
X8Y160D01*
X2192Y160D02*
X2199Y160D01*
X1Y159D02*
X8Y159D01*
X2192Y159D02*
X2199Y159D01*
X1Y158D02*
X8Y158D01*
X2192Y158D02*
X2199Y158D01*
X1Y157D02*
X8Y157D01*
X2192Y157D02*
X2199Y157D01*
X1Y156D02*
X8Y156D01*
X2192Y156D02*
X2199Y156D01*
X1Y155D02*
X8Y155D01*
X2192Y155D02*
X2199Y155D01*
X1Y154D02*
X8Y154D01*
X2192Y154D02*
X2199Y154D01*
X1Y153D02*
X8Y153D01*
X2192Y153D02*
X2199Y153D01*
X1Y152D02*
X8Y152D01*
X2192Y152D02*
X2199Y152D01*
X1Y151D02*
X8Y151D01*
X2192Y151D02*
X2199Y151D01*
X1Y150D02*
X8Y150D01*
X2192Y150D02*
X2199Y150D01*
X1Y149D02*
X8Y149D01*
X2192Y149D02*
X2199Y149D01*
X1Y148D02*
X8Y148D01*
X2192Y148D02*
X2199Y148D01*
X1Y147D02*
X8Y147D01*
X2192Y147D02*
X2199Y147D01*
X1Y146D02*
X8Y146D01*
X2192Y146D02*
X2199Y146D01*
X1Y145D02*
X8Y145D01*
X2192Y145D02*
X2199Y145D01*
X1Y144D02*
X8Y144D01*
X2192Y144D02*
X2199Y144D01*
X1Y143D02*
X8Y143D01*
X2192Y143D02*
X2199Y143D01*
X1Y142D02*
X8Y142D01*
X2192Y142D02*
X2199Y142D01*
X1Y141D02*
X8Y141D01*
X2192Y141D02*
X2199Y141D01*
X1Y140D02*
X8Y140D01*
X2192Y140D02*
X2199Y140D01*
X1Y139D02*
X8Y139D01*
X2192Y139D02*
X2199Y139D01*
X1Y138D02*
X8Y138D01*
X2192Y138D02*
X2199Y138D01*
X1Y137D02*
X8Y137D01*
X2192Y137D02*
X2199Y137D01*
X1Y136D02*
X8Y136D01*
X2192Y136D02*
X2199Y136D01*
X1Y135D02*
X8Y135D01*
X2192Y135D02*
X2199Y135D01*
X1Y134D02*
X8Y134D01*
X2192Y134D02*
X2199Y134D01*
X1Y133D02*
X8Y133D01*
X2192Y133D02*
X2199Y133D01*
X1Y132D02*
X8Y132D01*
X2192Y132D02*
X2199Y132D01*
X1Y131D02*
X8Y131D01*
X2192Y131D02*
X2199Y131D01*
X1Y130D02*
X8Y130D01*
X2192Y130D02*
X2199Y130D01*
X1Y129D02*
X8Y129D01*
X2192Y129D02*
X2199Y129D01*
X1Y128D02*
X8Y128D01*
X2192Y128D02*
X2199Y128D01*
X1Y127D02*
X8Y127D01*
X2192Y127D02*
X2199Y127D01*
X1Y126D02*
X8Y126D01*
X2192Y126D02*
X2199Y126D01*
X1Y125D02*
X8Y125D01*
X2192Y125D02*
X2199Y125D01*
X1Y124D02*
X8Y124D01*
X2192Y124D02*
X2199Y124D01*
X1Y123D02*
X8Y123D01*
X2192Y123D02*
X2199Y123D01*
X1Y122D02*
X8Y122D01*
X2192Y122D02*
X2199Y122D01*
X1Y121D02*
X8Y121D01*
X2192Y121D02*
X2199Y121D01*
X1Y120D02*
X8Y120D01*
X2192Y120D02*
X2199Y120D01*
X1Y119D02*
X8Y119D01*
X2192Y119D02*
X2199Y119D01*
X1Y118D02*
X8Y118D01*
X2192Y118D02*
X2199Y118D01*
X1Y117D02*
X8Y117D01*
X2192Y117D02*
X2199Y117D01*
X1Y116D02*
X8Y116D01*
X2192Y116D02*
X2199Y116D01*
X1Y115D02*
X8Y115D01*
X2192Y115D02*
X2199Y115D01*
X1Y114D02*
X8Y114D01*
X2192Y114D02*
X2199Y114D01*
X1Y113D02*
X8Y113D01*
X2192Y113D02*
X2199Y113D01*
X1Y112D02*
X8Y112D01*
X174Y112D02*
X178Y112D01*
X206Y112D02*
X210Y112D01*
X231Y112D02*
X262Y112D01*
X306Y112D02*
X310Y112D01*
X344Y112D02*
X353Y112D01*
X380Y112D02*
X389Y112D01*
X407Y112D02*
X441Y112D01*
X463Y112D02*
X495Y112D01*
X581Y112D02*
X614Y112D01*
X642Y112D02*
X672Y112D01*
X697Y112D02*
X730Y112D01*
X757Y112D02*
X761Y112D01*
X2192Y112D02*
X2199Y112D01*
X1Y111D02*
X8Y111D01*
X173Y111D02*
X179Y111D01*
X205Y111D02*
X211Y111D01*
X231Y111D02*
X264Y111D01*
X306Y111D02*
X311Y111D01*
X344Y111D02*
X354Y111D01*
X379Y111D02*
X389Y111D01*
X406Y111D02*
X442Y111D01*
X463Y111D02*
X496Y111D01*
X580Y111D02*
X615Y111D01*
X641Y111D02*
X674Y111D01*
X696Y111D02*
X732Y111D01*
X756Y111D02*
X762Y111D01*
X2192Y111D02*
X2199Y111D01*
X1Y110D02*
X8Y110D01*
X173Y110D02*
X180Y110D01*
X204Y110D02*
X212Y110D01*
X231Y110D02*
X265Y110D01*
X305Y110D02*
X312Y110D01*
X344Y110D02*
X355Y110D01*
X379Y110D02*
X389Y110D01*
X406Y110D02*
X443Y110D01*
X463Y110D02*
X498Y110D01*
X580Y110D02*
X616Y110D01*
X640Y110D02*
X675Y110D01*
X696Y110D02*
X733Y110D01*
X756Y110D02*
X762Y110D01*
X2192Y110D02*
X2199Y110D01*
X1Y109D02*
X8Y109D01*
X173Y109D02*
X180Y109D01*
X203Y109D02*
X212Y109D01*
X231Y109D02*
X266Y109D01*
X305Y109D02*
X312Y109D01*
X344Y109D02*
X355Y109D01*
X378Y109D02*
X389Y109D01*
X406Y109D02*
X443Y109D01*
X463Y109D02*
X499Y109D01*
X580Y109D02*
X617Y109D01*
X639Y109D02*
X675Y109D01*
X696Y109D02*
X733Y109D01*
X755Y109D02*
X762Y109D01*
X2192Y109D02*
X2199Y109D01*
X1Y108D02*
X8Y108D01*
X173Y108D02*
X180Y108D01*
X201Y108D02*
X212Y108D01*
X231Y108D02*
X267Y108D01*
X304Y108D02*
X312Y108D01*
X344Y108D02*
X356Y108D01*
X378Y108D02*
X389Y108D01*
X406Y108D02*
X443Y108D01*
X463Y108D02*
X500Y108D01*
X580Y108D02*
X618Y108D01*
X638Y108D02*
X676Y108D01*
X696Y108D02*
X734Y108D01*
X755Y108D02*
X763Y108D01*
X2192Y108D02*
X2199Y108D01*
X1Y107D02*
X8Y107D01*
X173Y107D02*
X180Y107D01*
X200Y107D02*
X211Y107D01*
X231Y107D02*
X268Y107D01*
X304Y107D02*
X313Y107D01*
X344Y107D02*
X356Y107D01*
X377Y107D02*
X389Y107D01*
X406Y107D02*
X443Y107D01*
X463Y107D02*
X500Y107D01*
X580Y107D02*
X618Y107D01*
X638Y107D02*
X676Y107D01*
X696Y107D02*
X734Y107D01*
X755Y107D02*
X763Y107D01*
X2192Y107D02*
X2199Y107D01*
X1Y106D02*
X8Y106D01*
X173Y106D02*
X180Y106D01*
X199Y106D02*
X210Y106D01*
X231Y106D02*
X269Y106D01*
X304Y106D02*
X313Y106D01*
X344Y106D02*
X356Y106D01*
X377Y106D02*
X389Y106D01*
X406Y106D02*
X442Y106D01*
X463Y106D02*
X501Y106D01*
X581Y106D02*
X618Y106D01*
X638Y106D02*
X676Y106D01*
X697Y106D02*
X735Y106D01*
X755Y106D02*
X763Y106D01*
X2192Y106D02*
X2199Y106D01*
X1Y105D02*
X8Y105D01*
X173Y105D02*
X180Y105D01*
X198Y105D02*
X209Y105D01*
X231Y105D02*
X269Y105D01*
X304Y105D02*
X313Y105D01*
X344Y105D02*
X357Y105D01*
X376Y105D02*
X389Y105D01*
X406Y105D02*
X440Y105D01*
X463Y105D02*
X501Y105D01*
X582Y105D02*
X619Y105D01*
X638Y105D02*
X677Y105D01*
X699Y105D02*
X735Y105D01*
X755Y105D02*
X763Y105D01*
X781Y105D02*
X785Y105D01*
X2192Y105D02*
X2199Y105D01*
X1Y104D02*
X8Y104D01*
X173Y104D02*
X180Y104D01*
X197Y104D02*
X208Y104D01*
X231Y104D02*
X238Y104D01*
X261Y104D02*
X269Y104D01*
X303Y104D02*
X314Y104D01*
X344Y104D02*
X357Y104D01*
X376Y104D02*
X389Y104D01*
X406Y104D02*
X413Y104D01*
X463Y104D02*
X470Y104D01*
X493Y104D02*
X502Y104D01*
X611Y104D02*
X619Y104D01*
X638Y104D02*
X645Y104D01*
X669Y104D02*
X677Y104D01*
X728Y104D02*
X735Y104D01*
X755Y104D02*
X763Y104D01*
X780Y104D02*
X786Y104D01*
X2192Y104D02*
X2199Y104D01*
X1Y103D02*
X8Y103D01*
X173Y103D02*
X180Y103D01*
X196Y103D02*
X207Y103D01*
X231Y103D02*
X238Y103D01*
X262Y103D02*
X270Y103D01*
X303Y103D02*
X314Y103D01*
X344Y103D02*
X358Y103D01*
X375Y103D02*
X389Y103D01*
X406Y103D02*
X413Y103D01*
X463Y103D02*
X470Y103D01*
X494Y103D02*
X502Y103D01*
X611Y103D02*
X619Y103D01*
X638Y103D02*
X645Y103D01*
X669Y103D02*
X677Y103D01*
X728Y103D02*
X735Y103D01*
X755Y103D02*
X763Y103D01*
X780Y103D02*
X786Y103D01*
X2192Y103D02*
X2199Y103D01*
X1Y102D02*
X8Y102D01*
X173Y102D02*
X180Y102D01*
X194Y102D02*
X206Y102D01*
X231Y102D02*
X238Y102D01*
X262Y102D02*
X270Y102D01*
X303Y102D02*
X314Y102D01*
X344Y102D02*
X358Y102D01*
X375Y102D02*
X389Y102D01*
X406Y102D02*
X413Y102D01*
X463Y102D02*
X470Y102D01*
X495Y102D02*
X502Y102D01*
X611Y102D02*
X619Y102D01*
X638Y102D02*
X645Y102D01*
X669Y102D02*
X677Y102D01*
X728Y102D02*
X735Y102D01*
X755Y102D02*
X763Y102D01*
X779Y102D02*
X786Y102D01*
X2192Y102D02*
X2199Y102D01*
X1Y101D02*
X8Y101D01*
X173Y101D02*
X180Y101D01*
X193Y101D02*
X205Y101D01*
X231Y101D02*
X238Y101D01*
X263Y101D02*
X270Y101D01*
X302Y101D02*
X314Y101D01*
X344Y101D02*
X359Y101D01*
X374Y101D02*
X389Y101D01*
X406Y101D02*
X413Y101D01*
X463Y101D02*
X470Y101D01*
X495Y101D02*
X502Y101D01*
X611Y101D02*
X619Y101D01*
X638Y101D02*
X645Y101D01*
X669Y101D02*
X677Y101D01*
X728Y101D02*
X735Y101D01*
X755Y101D02*
X763Y101D01*
X779Y101D02*
X786Y101D01*
X2192Y101D02*
X2199Y101D01*
X1Y100D02*
X8Y100D01*
X173Y100D02*
X180Y100D01*
X192Y100D02*
X204Y100D01*
X231Y100D02*
X238Y100D01*
X263Y100D02*
X270Y100D01*
X302Y100D02*
X315Y100D01*
X344Y100D02*
X359Y100D01*
X374Y100D02*
X389Y100D01*
X406Y100D02*
X413Y100D01*
X463Y100D02*
X470Y100D01*
X495Y100D02*
X502Y100D01*
X611Y100D02*
X619Y100D01*
X638Y100D02*
X645Y100D01*
X669Y100D02*
X677Y100D01*
X728Y100D02*
X735Y100D01*
X755Y100D02*
X763Y100D01*
X779Y100D02*
X786Y100D01*
X2192Y100D02*
X2199Y100D01*
X1Y99D02*
X8Y99D01*
X173Y99D02*
X180Y99D01*
X191Y99D02*
X202Y99D01*
X231Y99D02*
X238Y99D01*
X263Y99D02*
X270Y99D01*
X302Y99D02*
X315Y99D01*
X344Y99D02*
X360Y99D01*
X373Y99D02*
X389Y99D01*
X406Y99D02*
X413Y99D01*
X463Y99D02*
X470Y99D01*
X495Y99D02*
X502Y99D01*
X611Y99D02*
X619Y99D01*
X638Y99D02*
X645Y99D01*
X669Y99D02*
X677Y99D01*
X728Y99D02*
X735Y99D01*
X755Y99D02*
X763Y99D01*
X779Y99D02*
X786Y99D01*
X2192Y99D02*
X2199Y99D01*
X1Y98D02*
X8Y98D01*
X173Y98D02*
X180Y98D01*
X190Y98D02*
X201Y98D01*
X231Y98D02*
X238Y98D01*
X263Y98D02*
X270Y98D01*
X301Y98D02*
X315Y98D01*
X344Y98D02*
X360Y98D01*
X373Y98D02*
X389Y98D01*
X406Y98D02*
X413Y98D01*
X463Y98D02*
X470Y98D01*
X495Y98D02*
X502Y98D01*
X611Y98D02*
X619Y98D01*
X638Y98D02*
X645Y98D01*
X669Y98D02*
X677Y98D01*
X728Y98D02*
X735Y98D01*
X755Y98D02*
X763Y98D01*
X779Y98D02*
X786Y98D01*
X2192Y98D02*
X2199Y98D01*
X1Y97D02*
X8Y97D01*
X173Y97D02*
X180Y97D01*
X189Y97D02*
X200Y97D01*
X231Y97D02*
X238Y97D01*
X263Y97D02*
X270Y97D01*
X301Y97D02*
X316Y97D01*
X344Y97D02*
X351Y97D01*
X353Y97D02*
X361Y97D01*
X372Y97D02*
X380Y97D01*
X382Y97D02*
X389Y97D01*
X406Y97D02*
X413Y97D01*
X463Y97D02*
X470Y97D01*
X495Y97D02*
X502Y97D01*
X611Y97D02*
X619Y97D01*
X638Y97D02*
X645Y97D01*
X669Y97D02*
X677Y97D01*
X728Y97D02*
X735Y97D01*
X755Y97D02*
X763Y97D01*
X779Y97D02*
X786Y97D01*
X2192Y97D02*
X2199Y97D01*
X1Y96D02*
X8Y96D01*
X173Y96D02*
X180Y96D01*
X187Y96D02*
X199Y96D01*
X231Y96D02*
X238Y96D01*
X263Y96D02*
X270Y96D01*
X301Y96D02*
X316Y96D01*
X344Y96D02*
X351Y96D01*
X353Y96D02*
X361Y96D01*
X372Y96D02*
X380Y96D01*
X382Y96D02*
X389Y96D01*
X406Y96D02*
X413Y96D01*
X463Y96D02*
X470Y96D01*
X495Y96D02*
X502Y96D01*
X611Y96D02*
X619Y96D01*
X638Y96D02*
X645Y96D01*
X669Y96D02*
X677Y96D01*
X728Y96D02*
X735Y96D01*
X755Y96D02*
X763Y96D01*
X779Y96D02*
X786Y96D01*
X2192Y96D02*
X2199Y96D01*
X1Y95D02*
X8Y95D01*
X173Y95D02*
X180Y95D01*
X186Y95D02*
X198Y95D01*
X231Y95D02*
X238Y95D01*
X262Y95D02*
X270Y95D01*
X301Y95D02*
X316Y95D01*
X344Y95D02*
X351Y95D01*
X354Y95D02*
X362Y95D01*
X371Y95D02*
X379Y95D01*
X382Y95D02*
X389Y95D01*
X406Y95D02*
X413Y95D01*
X463Y95D02*
X470Y95D01*
X495Y95D02*
X502Y95D01*
X611Y95D02*
X619Y95D01*
X638Y95D02*
X645Y95D01*
X669Y95D02*
X677Y95D01*
X728Y95D02*
X735Y95D01*
X755Y95D02*
X763Y95D01*
X779Y95D02*
X786Y95D01*
X2192Y95D02*
X2199Y95D01*
X1Y94D02*
X8Y94D01*
X173Y94D02*
X180Y94D01*
X185Y94D02*
X197Y94D01*
X231Y94D02*
X238Y94D01*
X262Y94D02*
X270Y94D01*
X300Y94D02*
X317Y94D01*
X344Y94D02*
X351Y94D01*
X354Y94D02*
X362Y94D01*
X371Y94D02*
X379Y94D01*
X382Y94D02*
X389Y94D01*
X406Y94D02*
X413Y94D01*
X463Y94D02*
X470Y94D01*
X494Y94D02*
X502Y94D01*
X611Y94D02*
X619Y94D01*
X638Y94D02*
X645Y94D01*
X669Y94D02*
X677Y94D01*
X728Y94D02*
X735Y94D01*
X755Y94D02*
X763Y94D01*
X779Y94D02*
X786Y94D01*
X2192Y94D02*
X2199Y94D01*
X1Y93D02*
X8Y93D01*
X173Y93D02*
X180Y93D01*
X184Y93D02*
X195Y93D01*
X231Y93D02*
X238Y93D01*
X261Y93D02*
X269Y93D01*
X300Y93D02*
X317Y93D01*
X344Y93D02*
X351Y93D01*
X355Y93D02*
X363Y93D01*
X370Y93D02*
X378Y93D01*
X382Y93D02*
X389Y93D01*
X406Y93D02*
X413Y93D01*
X463Y93D02*
X470Y93D01*
X493Y93D02*
X502Y93D01*
X611Y93D02*
X619Y93D01*
X638Y93D02*
X645Y93D01*
X669Y93D02*
X677Y93D01*
X728Y93D02*
X735Y93D01*
X755Y93D02*
X763Y93D01*
X779Y93D02*
X786Y93D01*
X2192Y93D02*
X2199Y93D01*
X1Y92D02*
X8Y92D01*
X173Y92D02*
X180Y92D01*
X183Y92D02*
X194Y92D01*
X231Y92D02*
X269Y92D01*
X300Y92D02*
X307Y92D01*
X310Y92D02*
X317Y92D01*
X344Y92D02*
X351Y92D01*
X355Y92D02*
X363Y92D01*
X370Y92D02*
X378Y92D01*
X382Y92D02*
X389Y92D01*
X406Y92D02*
X413Y92D01*
X463Y92D02*
X501Y92D01*
X611Y92D02*
X619Y92D01*
X638Y92D02*
X645Y92D01*
X669Y92D02*
X677Y92D01*
X728Y92D02*
X735Y92D01*
X755Y92D02*
X763Y92D01*
X779Y92D02*
X786Y92D01*
X2192Y92D02*
X2199Y92D01*
X1Y91D02*
X8Y91D01*
X173Y91D02*
X180Y91D01*
X182Y91D02*
X193Y91D01*
X231Y91D02*
X268Y91D01*
X299Y91D02*
X307Y91D01*
X310Y91D02*
X317Y91D01*
X344Y91D02*
X351Y91D01*
X356Y91D02*
X363Y91D01*
X369Y91D02*
X377Y91D01*
X382Y91D02*
X389Y91D01*
X406Y91D02*
X413Y91D01*
X463Y91D02*
X501Y91D01*
X611Y91D02*
X619Y91D01*
X638Y91D02*
X645Y91D01*
X669Y91D02*
X677Y91D01*
X728Y91D02*
X735Y91D01*
X755Y91D02*
X763Y91D01*
X779Y91D02*
X786Y91D01*
X2192Y91D02*
X2199Y91D01*
X1Y90D02*
X8Y90D01*
X173Y90D02*
X192Y90D01*
X231Y90D02*
X268Y90D01*
X299Y90D02*
X307Y90D01*
X310Y90D02*
X318Y90D01*
X344Y90D02*
X351Y90D01*
X356Y90D02*
X364Y90D01*
X369Y90D02*
X377Y90D01*
X382Y90D02*
X389Y90D01*
X406Y90D02*
X413Y90D01*
X463Y90D02*
X500Y90D01*
X611Y90D02*
X619Y90D01*
X638Y90D02*
X645Y90D01*
X669Y90D02*
X677Y90D01*
X728Y90D02*
X735Y90D01*
X755Y90D02*
X763Y90D01*
X779Y90D02*
X786Y90D01*
X2192Y90D02*
X2199Y90D01*
X1Y89D02*
X8Y89D01*
X173Y89D02*
X191Y89D01*
X231Y89D02*
X267Y89D01*
X299Y89D02*
X306Y89D01*
X311Y89D02*
X318Y89D01*
X344Y89D02*
X351Y89D01*
X357Y89D02*
X364Y89D01*
X368Y89D02*
X376Y89D01*
X382Y89D02*
X389Y89D01*
X406Y89D02*
X413Y89D01*
X463Y89D02*
X500Y89D01*
X611Y89D02*
X619Y89D01*
X638Y89D02*
X645Y89D01*
X669Y89D02*
X677Y89D01*
X728Y89D02*
X735Y89D01*
X755Y89D02*
X763Y89D01*
X779Y89D02*
X786Y89D01*
X2192Y89D02*
X2199Y89D01*
X1Y88D02*
X8Y88D01*
X173Y88D02*
X190Y88D01*
X231Y88D02*
X266Y88D01*
X299Y88D02*
X306Y88D01*
X311Y88D02*
X318Y88D01*
X344Y88D02*
X351Y88D01*
X357Y88D02*
X365Y88D01*
X368Y88D02*
X376Y88D01*
X382Y88D02*
X389Y88D01*
X406Y88D02*
X413Y88D01*
X463Y88D02*
X499Y88D01*
X611Y88D02*
X619Y88D01*
X638Y88D02*
X645Y88D01*
X669Y88D02*
X677Y88D01*
X728Y88D02*
X735Y88D01*
X755Y88D02*
X763Y88D01*
X779Y88D02*
X786Y88D01*
X2192Y88D02*
X2199Y88D01*
X1Y87D02*
X8Y87D01*
X173Y87D02*
X188Y87D01*
X231Y87D02*
X265Y87D01*
X298Y87D02*
X306Y87D01*
X311Y87D02*
X319Y87D01*
X344Y87D02*
X351Y87D01*
X357Y87D02*
X365Y87D01*
X367Y87D02*
X375Y87D01*
X382Y87D02*
X389Y87D01*
X406Y87D02*
X413Y87D01*
X463Y87D02*
X498Y87D01*
X611Y87D02*
X619Y87D01*
X638Y87D02*
X645Y87D01*
X669Y87D02*
X677Y87D01*
X728Y87D02*
X735Y87D01*
X755Y87D02*
X763Y87D01*
X779Y87D02*
X786Y87D01*
X2192Y87D02*
X2199Y87D01*
X1Y86D02*
X8Y86D01*
X173Y86D02*
X187Y86D01*
X231Y86D02*
X264Y86D01*
X298Y86D02*
X305Y86D01*
X311Y86D02*
X319Y86D01*
X344Y86D02*
X351Y86D01*
X358Y86D02*
X375Y86D01*
X382Y86D02*
X389Y86D01*
X406Y86D02*
X413Y86D01*
X463Y86D02*
X496Y86D01*
X611Y86D02*
X619Y86D01*
X638Y86D02*
X645Y86D01*
X669Y86D02*
X677Y86D01*
X728Y86D02*
X735Y86D01*
X755Y86D02*
X763Y86D01*
X779Y86D02*
X786Y86D01*
X2192Y86D02*
X2199Y86D01*
X1Y85D02*
X8Y85D01*
X173Y85D02*
X186Y85D01*
X231Y85D02*
X262Y85D01*
X298Y85D02*
X305Y85D01*
X312Y85D02*
X319Y85D01*
X344Y85D02*
X351Y85D01*
X358Y85D02*
X374Y85D01*
X382Y85D02*
X389Y85D01*
X406Y85D02*
X428Y85D01*
X463Y85D02*
X494Y85D01*
X585Y85D02*
X618Y85D01*
X638Y85D02*
X645Y85D01*
X669Y85D02*
X677Y85D01*
X701Y85D02*
X735Y85D01*
X755Y85D02*
X763Y85D01*
X779Y85D02*
X786Y85D01*
X2192Y85D02*
X2199Y85D01*
X1Y84D02*
X8Y84D01*
X173Y84D02*
X185Y84D01*
X231Y84D02*
X238Y84D01*
X245Y84D02*
X253Y84D01*
X297Y84D02*
X305Y84D01*
X312Y84D02*
X319Y84D01*
X344Y84D02*
X351Y84D01*
X359Y84D02*
X374Y84D01*
X382Y84D02*
X389Y84D01*
X406Y84D02*
X429Y84D01*
X463Y84D02*
X471Y84D01*
X477Y84D02*
X486Y84D01*
X583Y84D02*
X618Y84D01*
X638Y84D02*
X645Y84D01*
X669Y84D02*
X677Y84D01*
X699Y84D02*
X735Y84D01*
X755Y84D02*
X763Y84D01*
X779Y84D02*
X786Y84D01*
X2192Y84D02*
X2199Y84D01*
X1Y83D02*
X8Y83D01*
X173Y83D02*
X184Y83D01*
X231Y83D02*
X238Y83D01*
X245Y83D02*
X254Y83D01*
X297Y83D02*
X305Y83D01*
X312Y83D02*
X320Y83D01*
X344Y83D02*
X351Y83D01*
X359Y83D02*
X374Y83D01*
X382Y83D02*
X389Y83D01*
X406Y83D02*
X430Y83D01*
X463Y83D02*
X470Y83D01*
X478Y83D02*
X486Y83D01*
X582Y83D02*
X618Y83D01*
X638Y83D02*
X645Y83D01*
X669Y83D02*
X677Y83D01*
X698Y83D02*
X734Y83D01*
X755Y83D02*
X763Y83D01*
X779Y83D02*
X786Y83D01*
X2192Y83D02*
X2199Y83D01*
X1Y82D02*
X8Y82D01*
X173Y82D02*
X183Y82D01*
X231Y82D02*
X238Y82D01*
X246Y82D02*
X254Y82D01*
X297Y82D02*
X304Y82D01*
X313Y82D02*
X320Y82D01*
X344Y82D02*
X351Y82D01*
X360Y82D02*
X373Y82D01*
X382Y82D02*
X389Y82D01*
X406Y82D02*
X430Y82D01*
X463Y82D02*
X470Y82D01*
X478Y82D02*
X487Y82D01*
X581Y82D02*
X618Y82D01*
X638Y82D02*
X645Y82D01*
X669Y82D02*
X677Y82D01*
X697Y82D02*
X734Y82D01*
X755Y82D02*
X763Y82D01*
X779Y82D02*
X786Y82D01*
X2192Y82D02*
X2199Y82D01*
X1Y81D02*
X8Y81D01*
X173Y81D02*
X183Y81D01*
X231Y81D02*
X238Y81D01*
X246Y81D02*
X255Y81D01*
X296Y81D02*
X304Y81D01*
X313Y81D02*
X320Y81D01*
X344Y81D02*
X351Y81D01*
X360Y81D02*
X373Y81D01*
X382Y81D02*
X389Y81D01*
X406Y81D02*
X430Y81D01*
X463Y81D02*
X470Y81D01*
X479Y81D02*
X487Y81D01*
X580Y81D02*
X617Y81D01*
X638Y81D02*
X645Y81D01*
X669Y81D02*
X677Y81D01*
X697Y81D02*
X733Y81D01*
X755Y81D02*
X763Y81D01*
X779Y81D02*
X786Y81D01*
X2192Y81D02*
X2199Y81D01*
X1Y80D02*
X8Y80D01*
X173Y80D02*
X184Y80D01*
X231Y80D02*
X238Y80D01*
X247Y80D02*
X255Y80D01*
X296Y80D02*
X304Y80D01*
X313Y80D02*
X321Y80D01*
X344Y80D02*
X351Y80D01*
X361Y80D02*
X372Y80D01*
X382Y80D02*
X389Y80D01*
X406Y80D02*
X430Y80D01*
X463Y80D02*
X470Y80D01*
X479Y80D02*
X488Y80D01*
X580Y80D02*
X616Y80D01*
X638Y80D02*
X645Y80D01*
X669Y80D02*
X677Y80D01*
X696Y80D02*
X732Y80D01*
X755Y80D02*
X763Y80D01*
X779Y80D02*
X786Y80D01*
X2192Y80D02*
X2199Y80D01*
X1Y79D02*
X8Y79D01*
X173Y79D02*
X185Y79D01*
X231Y79D02*
X238Y79D01*
X248Y79D02*
X256Y79D01*
X296Y79D02*
X303Y79D01*
X313Y79D02*
X321Y79D01*
X344Y79D02*
X351Y79D01*
X361Y79D02*
X372Y79D01*
X382Y79D02*
X389Y79D01*
X406Y79D02*
X429Y79D01*
X463Y79D02*
X470Y79D01*
X480Y79D02*
X489Y79D01*
X580Y79D02*
X615Y79D01*
X638Y79D02*
X645Y79D01*
X669Y79D02*
X677Y79D01*
X696Y79D02*
X731Y79D01*
X755Y79D02*
X763Y79D01*
X779Y79D02*
X787Y79D01*
X2192Y79D02*
X2199Y79D01*
X1Y78D02*
X8Y78D01*
X173Y78D02*
X186Y78D01*
X231Y78D02*
X238Y78D01*
X248Y78D02*
X257Y78D01*
X296Y78D02*
X303Y78D01*
X314Y78D02*
X321Y78D01*
X344Y78D02*
X351Y78D01*
X362Y78D02*
X371Y78D01*
X382Y78D02*
X389Y78D01*
X406Y78D02*
X428Y78D01*
X463Y78D02*
X470Y78D01*
X481Y78D02*
X489Y78D01*
X580Y78D02*
X613Y78D01*
X638Y78D02*
X645Y78D01*
X669Y78D02*
X677Y78D01*
X696Y78D02*
X729Y78D01*
X755Y78D02*
X790Y78D01*
X2192Y78D02*
X2199Y78D01*
X1Y77D02*
X8Y77D01*
X173Y77D02*
X187Y77D01*
X231Y77D02*
X238Y77D01*
X249Y77D02*
X257Y77D01*
X295Y77D02*
X303Y77D01*
X314Y77D02*
X322Y77D01*
X344Y77D02*
X351Y77D01*
X362Y77D02*
X371Y77D01*
X382Y77D02*
X389Y77D01*
X406Y77D02*
X413Y77D01*
X463Y77D02*
X470Y77D01*
X481Y77D02*
X490Y77D01*
X580Y77D02*
X587Y77D01*
X638Y77D02*
X645Y77D01*
X669Y77D02*
X677Y77D01*
X696Y77D02*
X703Y77D01*
X755Y77D02*
X791Y77D01*
X2192Y77D02*
X2199Y77D01*
X1Y76D02*
X8Y76D01*
X173Y76D02*
X188Y76D01*
X231Y76D02*
X238Y76D01*
X249Y76D02*
X258Y76D01*
X295Y76D02*
X303Y76D01*
X314Y76D02*
X322Y76D01*
X344Y76D02*
X351Y76D01*
X363Y76D02*
X370Y76D01*
X382Y76D02*
X389Y76D01*
X406Y76D02*
X413Y76D01*
X463Y76D02*
X470Y76D01*
X482Y76D02*
X490Y76D01*
X580Y76D02*
X587Y76D01*
X638Y76D02*
X645Y76D01*
X669Y76D02*
X677Y76D01*
X696Y76D02*
X703Y76D01*
X755Y76D02*
X791Y76D01*
X2192Y76D02*
X2199Y76D01*
X1Y75D02*
X8Y75D01*
X173Y75D02*
X190Y75D01*
X231Y75D02*
X238Y75D01*
X250Y75D02*
X258Y75D01*
X295Y75D02*
X302Y75D01*
X315Y75D02*
X322Y75D01*
X344Y75D02*
X351Y75D01*
X363Y75D02*
X370Y75D01*
X382Y75D02*
X389Y75D01*
X406Y75D02*
X413Y75D01*
X463Y75D02*
X470Y75D01*
X482Y75D02*
X491Y75D01*
X580Y75D02*
X587Y75D01*
X638Y75D02*
X645Y75D01*
X669Y75D02*
X677Y75D01*
X696Y75D02*
X703Y75D01*
X755Y75D02*
X791Y75D01*
X2192Y75D02*
X2199Y75D01*
X1Y74D02*
X8Y74D01*
X173Y74D02*
X191Y74D01*
X231Y74D02*
X238Y74D01*
X250Y74D02*
X259Y74D01*
X294Y74D02*
X302Y74D01*
X315Y74D02*
X322Y74D01*
X344Y74D02*
X351Y74D01*
X364Y74D02*
X369Y74D01*
X382Y74D02*
X389Y74D01*
X406Y74D02*
X413Y74D01*
X463Y74D02*
X470Y74D01*
X483Y74D02*
X491Y74D01*
X580Y74D02*
X587Y74D01*
X638Y74D02*
X645Y74D01*
X669Y74D02*
X677Y74D01*
X696Y74D02*
X703Y74D01*
X755Y74D02*
X791Y74D01*
X2192Y74D02*
X2199Y74D01*
X1Y73D02*
X8Y73D01*
X173Y73D02*
X192Y73D01*
X231Y73D02*
X238Y73D01*
X251Y73D02*
X260Y73D01*
X294Y73D02*
X302Y73D01*
X315Y73D02*
X323Y73D01*
X344Y73D02*
X351Y73D01*
X364Y73D02*
X368Y73D01*
X382Y73D02*
X389Y73D01*
X406Y73D02*
X413Y73D01*
X463Y73D02*
X470Y73D01*
X484Y73D02*
X492Y73D01*
X580Y73D02*
X587Y73D01*
X638Y73D02*
X645Y73D01*
X669Y73D02*
X677Y73D01*
X696Y73D02*
X703Y73D01*
X755Y73D02*
X791Y73D01*
X2192Y73D02*
X2199Y73D01*
X1Y72D02*
X8Y72D01*
X173Y72D02*
X180Y72D01*
X182Y72D02*
X193Y72D01*
X231Y72D02*
X238Y72D01*
X252Y72D02*
X260Y72D01*
X294Y72D02*
X302Y72D01*
X315Y72D02*
X323Y72D01*
X344Y72D02*
X351Y72D01*
X382Y72D02*
X389Y72D01*
X406Y72D02*
X413Y72D01*
X463Y72D02*
X470Y72D01*
X484Y72D02*
X493Y72D01*
X580Y72D02*
X587Y72D01*
X638Y72D02*
X645Y72D01*
X669Y72D02*
X677Y72D01*
X696Y72D02*
X703Y72D01*
X755Y72D02*
X790Y72D01*
X2192Y72D02*
X2199Y72D01*
X1Y71D02*
X8Y71D01*
X173Y71D02*
X180Y71D01*
X183Y71D02*
X194Y71D01*
X231Y71D02*
X238Y71D01*
X252Y71D02*
X261Y71D01*
X294Y71D02*
X323Y71D01*
X344Y71D02*
X351Y71D01*
X382Y71D02*
X389Y71D01*
X406Y71D02*
X413Y71D01*
X463Y71D02*
X470Y71D01*
X485Y71D02*
X493Y71D01*
X580Y71D02*
X587Y71D01*
X638Y71D02*
X645Y71D01*
X669Y71D02*
X677Y71D01*
X696Y71D02*
X703Y71D01*
X756Y71D02*
X789Y71D01*
X2192Y71D02*
X2199Y71D01*
X1Y70D02*
X8Y70D01*
X173Y70D02*
X180Y70D01*
X184Y70D02*
X195Y70D01*
X231Y70D02*
X238Y70D01*
X253Y70D02*
X261Y70D01*
X293Y70D02*
X324Y70D01*
X344Y70D02*
X351Y70D01*
X382Y70D02*
X389Y70D01*
X406Y70D02*
X413Y70D01*
X463Y70D02*
X470Y70D01*
X485Y70D02*
X494Y70D01*
X580Y70D02*
X587Y70D01*
X638Y70D02*
X645Y70D01*
X669Y70D02*
X677Y70D01*
X696Y70D02*
X703Y70D01*
X779Y70D02*
X786Y70D01*
X2192Y70D02*
X2199Y70D01*
X1Y69D02*
X8Y69D01*
X173Y69D02*
X180Y69D01*
X185Y69D02*
X197Y69D01*
X231Y69D02*
X238Y69D01*
X253Y69D02*
X262Y69D01*
X293Y69D02*
X324Y69D01*
X344Y69D02*
X351Y69D01*
X382Y69D02*
X389Y69D01*
X406Y69D02*
X413Y69D01*
X463Y69D02*
X470Y69D01*
X486Y69D02*
X494Y69D01*
X580Y69D02*
X587Y69D01*
X638Y69D02*
X645Y69D01*
X669Y69D02*
X677Y69D01*
X696Y69D02*
X703Y69D01*
X779Y69D02*
X786Y69D01*
X2192Y69D02*
X2199Y69D01*
X1Y68D02*
X8Y68D01*
X173Y68D02*
X180Y68D01*
X186Y68D02*
X198Y68D01*
X231Y68D02*
X238Y68D01*
X254Y68D02*
X262Y68D01*
X293Y68D02*
X324Y68D01*
X344Y68D02*
X351Y68D01*
X382Y68D02*
X389Y68D01*
X406Y68D02*
X413Y68D01*
X463Y68D02*
X470Y68D01*
X486Y68D02*
X495Y68D01*
X580Y68D02*
X587Y68D01*
X638Y68D02*
X645Y68D01*
X669Y68D02*
X677Y68D01*
X696Y68D02*
X703Y68D01*
X779Y68D02*
X786Y68D01*
X2192Y68D02*
X2199Y68D01*
X1Y67D02*
X8Y67D01*
X173Y67D02*
X180Y67D01*
X187Y67D02*
X199Y67D01*
X231Y67D02*
X238Y67D01*
X255Y67D02*
X263Y67D01*
X292Y67D02*
X324Y67D01*
X344Y67D02*
X351Y67D01*
X382Y67D02*
X389Y67D01*
X406Y67D02*
X413Y67D01*
X463Y67D02*
X470Y67D01*
X487Y67D02*
X496Y67D01*
X580Y67D02*
X587Y67D01*
X638Y67D02*
X645Y67D01*
X669Y67D02*
X677Y67D01*
X696Y67D02*
X703Y67D01*
X779Y67D02*
X786Y67D01*
X2192Y67D02*
X2199Y67D01*
X1Y66D02*
X8Y66D01*
X173Y66D02*
X180Y66D01*
X189Y66D02*
X200Y66D01*
X231Y66D02*
X238Y66D01*
X255Y66D02*
X264Y66D01*
X292Y66D02*
X325Y66D01*
X344Y66D02*
X351Y66D01*
X382Y66D02*
X389Y66D01*
X406Y66D02*
X413Y66D01*
X463Y66D02*
X470Y66D01*
X488Y66D02*
X496Y66D01*
X580Y66D02*
X587Y66D01*
X638Y66D02*
X645Y66D01*
X669Y66D02*
X677Y66D01*
X696Y66D02*
X703Y66D01*
X779Y66D02*
X786Y66D01*
X2192Y66D02*
X2199Y66D01*
X1Y65D02*
X8Y65D01*
X173Y65D02*
X180Y65D01*
X190Y65D02*
X201Y65D01*
X231Y65D02*
X238Y65D01*
X256Y65D02*
X264Y65D01*
X292Y65D02*
X325Y65D01*
X344Y65D02*
X351Y65D01*
X382Y65D02*
X389Y65D01*
X406Y65D02*
X413Y65D01*
X463Y65D02*
X470Y65D01*
X488Y65D02*
X497Y65D01*
X580Y65D02*
X587Y65D01*
X638Y65D02*
X645Y65D01*
X669Y65D02*
X677Y65D01*
X696Y65D02*
X703Y65D01*
X779Y65D02*
X786Y65D01*
X2192Y65D02*
X2199Y65D01*
X1Y64D02*
X8Y64D01*
X173Y64D02*
X180Y64D01*
X191Y64D02*
X203Y64D01*
X231Y64D02*
X238Y64D01*
X256Y64D02*
X265Y64D01*
X292Y64D02*
X325Y64D01*
X344Y64D02*
X351Y64D01*
X382Y64D02*
X389Y64D01*
X406Y64D02*
X413Y64D01*
X463Y64D02*
X470Y64D01*
X489Y64D02*
X497Y64D01*
X580Y64D02*
X587Y64D01*
X638Y64D02*
X645Y64D01*
X669Y64D02*
X677Y64D01*
X696Y64D02*
X703Y64D01*
X779Y64D02*
X786Y64D01*
X2192Y64D02*
X2199Y64D01*
X1Y63D02*
X8Y63D01*
X173Y63D02*
X180Y63D01*
X192Y63D02*
X204Y63D01*
X231Y63D02*
X238Y63D01*
X257Y63D02*
X265Y63D01*
X291Y63D02*
X299Y63D01*
X318Y63D02*
X326Y63D01*
X344Y63D02*
X351Y63D01*
X382Y63D02*
X389Y63D01*
X406Y63D02*
X413Y63D01*
X463Y63D02*
X470Y63D01*
X489Y63D02*
X498Y63D01*
X580Y63D02*
X587Y63D01*
X638Y63D02*
X645Y63D01*
X669Y63D02*
X677Y63D01*
X696Y63D02*
X703Y63D01*
X779Y63D02*
X786Y63D01*
X2192Y63D02*
X2199Y63D01*
X1Y62D02*
X8Y62D01*
X173Y62D02*
X180Y62D01*
X193Y62D02*
X205Y62D01*
X231Y62D02*
X238Y62D01*
X257Y62D02*
X266Y62D01*
X291Y62D02*
X298Y62D01*
X318Y62D02*
X326Y62D01*
X344Y62D02*
X351Y62D01*
X382Y62D02*
X389Y62D01*
X406Y62D02*
X413Y62D01*
X463Y62D02*
X470Y62D01*
X490Y62D02*
X498Y62D01*
X580Y62D02*
X587Y62D01*
X638Y62D02*
X645Y62D01*
X669Y62D02*
X677Y62D01*
X696Y62D02*
X703Y62D01*
X779Y62D02*
X786Y62D01*
X2192Y62D02*
X2199Y62D01*
X1Y61D02*
X8Y61D01*
X173Y61D02*
X180Y61D01*
X194Y61D02*
X206Y61D01*
X231Y61D02*
X238Y61D01*
X258Y61D02*
X267Y61D01*
X291Y61D02*
X298Y61D01*
X319Y61D02*
X326Y61D01*
X344Y61D02*
X351Y61D01*
X382Y61D02*
X389Y61D01*
X406Y61D02*
X413Y61D01*
X463Y61D02*
X470Y61D01*
X491Y61D02*
X499Y61D01*
X580Y61D02*
X587Y61D01*
X638Y61D02*
X645Y61D01*
X669Y61D02*
X677Y61D01*
X696Y61D02*
X703Y61D01*
X779Y61D02*
X786Y61D01*
X2192Y61D02*
X2199Y61D01*
X1Y60D02*
X8Y60D01*
X173Y60D02*
X180Y60D01*
X196Y60D02*
X207Y60D01*
X231Y60D02*
X238Y60D01*
X259Y60D02*
X267Y60D01*
X290Y60D02*
X298Y60D01*
X319Y60D02*
X326Y60D01*
X344Y60D02*
X351Y60D01*
X382Y60D02*
X389Y60D01*
X406Y60D02*
X413Y60D01*
X463Y60D02*
X470Y60D01*
X491Y60D02*
X500Y60D01*
X580Y60D02*
X587Y60D01*
X638Y60D02*
X645Y60D01*
X669Y60D02*
X677Y60D01*
X696Y60D02*
X703Y60D01*
X779Y60D02*
X786Y60D01*
X2192Y60D02*
X2199Y60D01*
X1Y59D02*
X8Y59D01*
X173Y59D02*
X180Y59D01*
X197Y59D02*
X208Y59D01*
X231Y59D02*
X238Y59D01*
X259Y59D02*
X268Y59D01*
X290Y59D02*
X298Y59D01*
X319Y59D02*
X327Y59D01*
X344Y59D02*
X351Y59D01*
X382Y59D02*
X389Y59D01*
X406Y59D02*
X413Y59D01*
X463Y59D02*
X470Y59D01*
X492Y59D02*
X500Y59D01*
X580Y59D02*
X587Y59D01*
X638Y59D02*
X645Y59D01*
X669Y59D02*
X677Y59D01*
X696Y59D02*
X703Y59D01*
X779Y59D02*
X786Y59D01*
X2192Y59D02*
X2199Y59D01*
X1Y58D02*
X8Y58D01*
X173Y58D02*
X180Y58D01*
X198Y58D02*
X210Y58D01*
X231Y58D02*
X238Y58D01*
X260Y58D02*
X268Y58D01*
X290Y58D02*
X297Y58D01*
X320Y58D02*
X327Y58D01*
X344Y58D02*
X351Y58D01*
X382Y58D02*
X389Y58D01*
X406Y58D02*
X440Y58D01*
X463Y58D02*
X470Y58D01*
X492Y58D02*
X501Y58D01*
X580Y58D02*
X616Y58D01*
X638Y58D02*
X677Y58D01*
X696Y58D02*
X732Y58D01*
X779Y58D02*
X786Y58D01*
X2192Y58D02*
X2199Y58D01*
X1Y57D02*
X8Y57D01*
X173Y57D02*
X180Y57D01*
X199Y57D02*
X211Y57D01*
X231Y57D02*
X238Y57D01*
X260Y57D02*
X269Y57D01*
X289Y57D02*
X297Y57D01*
X320Y57D02*
X327Y57D01*
X344Y57D02*
X351Y57D01*
X382Y57D02*
X389Y57D01*
X406Y57D02*
X442Y57D01*
X463Y57D02*
X470Y57D01*
X493Y57D02*
X501Y57D01*
X580Y57D02*
X617Y57D01*
X638Y57D02*
X676Y57D01*
X696Y57D02*
X734Y57D01*
X779Y57D02*
X786Y57D01*
X2192Y57D02*
X2199Y57D01*
X1Y56D02*
X8Y56D01*
X173Y56D02*
X180Y56D01*
X200Y56D02*
X211Y56D01*
X231Y56D02*
X238Y56D01*
X261Y56D02*
X269Y56D01*
X289Y56D02*
X297Y56D01*
X320Y56D02*
X328Y56D01*
X344Y56D02*
X351Y56D01*
X382Y56D02*
X389Y56D01*
X406Y56D02*
X443Y56D01*
X463Y56D02*
X470Y56D01*
X493Y56D02*
X502Y56D01*
X580Y56D02*
X618Y56D01*
X638Y56D02*
X676Y56D01*
X696Y56D02*
X734Y56D01*
X779Y56D02*
X786Y56D01*
X2192Y56D02*
X2199Y56D01*
X1Y55D02*
X8Y55D01*
X173Y55D02*
X180Y55D01*
X201Y55D02*
X212Y55D01*
X231Y55D02*
X238Y55D01*
X262Y55D02*
X270Y55D01*
X289Y55D02*
X296Y55D01*
X320Y55D02*
X328Y55D01*
X344Y55D02*
X351Y55D01*
X382Y55D02*
X389Y55D01*
X406Y55D02*
X443Y55D01*
X463Y55D02*
X470Y55D01*
X494Y55D02*
X502Y55D01*
X580Y55D02*
X618Y55D01*
X638Y55D02*
X676Y55D01*
X696Y55D02*
X735Y55D01*
X779Y55D02*
X786Y55D01*
X2192Y55D02*
X2199Y55D01*
X1Y54D02*
X8Y54D01*
X173Y54D02*
X180Y54D01*
X203Y54D02*
X212Y54D01*
X231Y54D02*
X238Y54D01*
X262Y54D02*
X270Y54D01*
X289Y54D02*
X296Y54D01*
X321Y54D02*
X328Y54D01*
X344Y54D02*
X351Y54D01*
X382Y54D02*
X389Y54D01*
X406Y54D02*
X443Y54D01*
X463Y54D02*
X470Y54D01*
X495Y54D02*
X502Y54D01*
X580Y54D02*
X618Y54D01*
X639Y54D02*
X675Y54D01*
X696Y54D02*
X735Y54D01*
X779Y54D02*
X786Y54D01*
X2192Y54D02*
X2199Y54D01*
X1Y53D02*
X8Y53D01*
X173Y53D02*
X180Y53D01*
X204Y53D02*
X211Y53D01*
X231Y53D02*
X238Y53D01*
X263Y53D02*
X270Y53D01*
X289Y53D02*
X296Y53D01*
X321Y53D02*
X328Y53D01*
X344Y53D02*
X350Y53D01*
X383Y53D02*
X389Y53D01*
X406Y53D02*
X443Y53D01*
X464Y53D02*
X470Y53D01*
X495Y53D02*
X502Y53D01*
X580Y53D02*
X618Y53D01*
X640Y53D02*
X675Y53D01*
X696Y53D02*
X734Y53D01*
X780Y53D02*
X786Y53D01*
X2192Y53D02*
X2199Y53D01*
X1Y52D02*
X8Y52D01*
X173Y52D02*
X179Y52D01*
X205Y52D02*
X211Y52D01*
X232Y52D02*
X237Y52D01*
X263Y52D02*
X269Y52D01*
X290Y52D02*
X295Y52D01*
X322Y52D02*
X327Y52D01*
X344Y52D02*
X350Y52D01*
X383Y52D02*
X389Y52D01*
X406Y52D02*
X442Y52D01*
X464Y52D02*
X470Y52D01*
X496Y52D02*
X502Y52D01*
X580Y52D02*
X618Y52D01*
X641Y52D02*
X673Y52D01*
X696Y52D02*
X734Y52D01*
X780Y52D02*
X786Y52D01*
X2192Y52D02*
X2199Y52D01*
X1Y51D02*
X8Y51D01*
X174Y51D02*
X178Y51D01*
X206Y51D02*
X210Y51D01*
X233Y51D02*
X236Y51D01*
X264Y51D02*
X268Y51D01*
X291Y51D02*
X294Y51D01*
X322Y51D02*
X326Y51D01*
X345Y51D02*
X349Y51D01*
X384Y51D02*
X388Y51D01*
X407Y51D02*
X441Y51D01*
X465Y51D02*
X469Y51D01*
X497Y51D02*
X501Y51D01*
X580Y51D02*
X617Y51D01*
X642Y51D02*
X672Y51D01*
X696Y51D02*
X733Y51D01*
X781Y51D02*
X785Y51D01*
X2192Y51D02*
X2199Y51D01*
X1Y50D02*
X8Y50D01*
X2192Y50D02*
X2199Y50D01*
X1Y49D02*
X8Y49D01*
X2192Y49D02*
X2199Y49D01*
X1Y48D02*
X8Y48D01*
X2192Y48D02*
X2199Y48D01*
X1Y47D02*
X8Y47D01*
X2192Y47D02*
X2199Y47D01*
X1Y46D02*
X8Y46D01*
X2192Y46D02*
X2199Y46D01*
X1Y45D02*
X8Y45D01*
X2192Y45D02*
X2199Y45D01*
X1Y44D02*
X8Y44D01*
X2192Y44D02*
X2199Y44D01*
X1Y43D02*
X8Y43D01*
X2192Y43D02*
X2199Y43D01*
X1Y42D02*
X8Y42D01*
X2192Y42D02*
X2199Y42D01*
X1Y41D02*
X8Y41D01*
X2192Y41D02*
X2199Y41D01*
X1Y40D02*
X8Y40D01*
X2192Y40D02*
X2199Y40D01*
X1Y39D02*
X8Y39D01*
X2192Y39D02*
X2199Y39D01*
X1Y38D02*
X8Y38D01*
X2192Y38D02*
X2199Y38D01*
X1Y37D02*
X8Y37D01*
X2192Y37D02*
X2199Y37D01*
X1Y36D02*
X8Y36D01*
X2192Y36D02*
X2199Y36D01*
X1Y35D02*
X8Y35D01*
X2192Y35D02*
X2199Y35D01*
X1Y34D02*
X8Y34D01*
X2192Y34D02*
X2199Y34D01*
X1Y33D02*
X8Y33D01*
X2192Y33D02*
X2199Y33D01*
X1Y32D02*
X8Y32D01*
X2192Y32D02*
X2199Y32D01*
X1Y31D02*
X8Y31D01*
X2192Y31D02*
X2199Y31D01*
X1Y30D02*
X8Y30D01*
X2192Y30D02*
X2199Y30D01*
X1Y29D02*
X8Y29D01*
X2192Y29D02*
X2199Y29D01*
X1Y28D02*
X8Y28D01*
X2192Y28D02*
X2199Y28D01*
X1Y27D02*
X8Y27D01*
X2192Y27D02*
X2199Y27D01*
X1Y26D02*
X8Y26D01*
X2192Y26D02*
X2199Y26D01*
X1Y25D02*
X8Y25D01*
X2192Y25D02*
X2199Y25D01*
X1Y24D02*
X8Y24D01*
X2192Y24D02*
X2199Y24D01*
X1Y23D02*
X8Y23D01*
X2192Y23D02*
X2199Y23D01*
X1Y22D02*
X8Y22D01*
X2192Y22D02*
X2199Y22D01*
X1Y21D02*
X8Y21D01*
X2192Y21D02*
X2199Y21D01*
X1Y20D02*
X8Y20D01*
X2192Y20D02*
X2199Y20D01*
X1Y19D02*
X8Y19D01*
X2192Y19D02*
X2199Y19D01*
X1Y18D02*
X8Y18D01*
X2192Y18D02*
X2199Y18D01*
X1Y17D02*
X8Y17D01*
X2192Y17D02*
X2199Y17D01*
X1Y16D02*
X8Y16D01*
X2192Y16D02*
X2199Y16D01*
X1Y15D02*
X8Y15D01*
X2192Y15D02*
X2199Y15D01*
X1Y14D02*
X8Y14D01*
X2192Y14D02*
X2199Y14D01*
X1Y13D02*
X8Y13D01*
X2192Y13D02*
X2199Y13D01*
X1Y12D02*
X8Y12D01*
X2192Y12D02*
X2199Y12D01*
X1Y11D02*
X8Y11D01*
X2192Y11D02*
X2199Y11D01*
X1Y10D02*
X8Y10D01*
X2192Y10D02*
X2199Y10D01*
X1Y9D02*
X8Y9D01*
X2192Y9D02*
X2199Y9D01*
X1Y8D02*
X2199Y8D01*
X1Y7D02*
X2199Y7D01*
X1Y6D02*
X2199Y6D01*
X1Y5D02*
X2199Y5D01*
X1Y4D02*
X2199Y4D01*
X1Y3D02*
X2199Y3D01*
X1Y2D02*
X2199Y2D01*
X1Y1D02*
X2199Y1D01*
D02*
G04 End of Silk1*
M02*